<svg width="16" height="34" viewBox="0 0 16 34" fill="none" xmlns="http://www.w3.org/2000/svg">
<path d="M12.0198 0.212646C12.3246 0.348096 12.4431 0.602064 12.4261 0.923757C12.4261 1.49942 12.4261 2.05815 12.4261 2.63381C12.4261 3.2264 12.3246 3.36185 11.715 3.46344C11.715 4.19148 11.6642 4.90259 12.0367 5.6137C13.0187 7.40841 13.9161 9.25391 14.8473 11.0994C15.406 12.183 15.6769 13.3343 15.6769 14.5365C15.6769 20.2253 15.6769 25.8973 15.6769 31.5862C15.6769 32.9915 14.6949 33.838 13.4082 33.8211C9.73408 33.7873 6.06001 33.8211 2.40286 33.8211C1.35313 33.8211 0.591224 33.2624 0.337256 32.3142C0.286462 32.1111 0.269531 31.891 0.269531 31.6708V14.4518C0.269531 13.2835 0.557363 12.1661 1.08223 11.1163C2.01345 9.27085 2.94466 7.42534 3.89281 5.59677C4.14678 5.10577 4.29916 4.63169 4.24837 4.10683C4.23144 3.88672 4.24837 3.66661 4.24837 3.46344C3.62191 3.36185 3.52032 3.24333 3.52032 2.63381C3.52032 2.05815 3.52032 1.49942 3.52032 0.923757C3.52032 0.585133 3.62191 0.348096 3.92668 0.212646H11.9859H12.0198ZM2.75842 10.2529C2.53831 10.71 2.35207 11.0825 2.1489 11.438C1.6071 12.4708 1.37006 13.5544 1.37006 14.7058C1.37006 20.3269 1.37006 25.9312 1.37006 31.5523C1.37006 32.3989 1.67482 32.7037 2.55525 32.7037H13.442C14.3055 32.7037 14.6103 32.3989 14.6103 31.5354C14.6103 26.0835 14.5933 20.6317 14.6103 15.1798C14.6103 13.673 14.3394 12.2846 13.5944 10.964C13.1542 10.1851 13.1711 10.1682 12.4261 10.6931C11.3256 11.4719 10.2082 11.4719 9.0907 10.6931C8.26107 10.1005 7.70234 10.1005 6.87271 10.6931C5.77218 11.4719 4.65472 11.4719 3.53726 10.6931C3.30022 10.5238 3.04625 10.3883 2.75842 10.219V10.2529ZM12.714 9.30471C12.714 9.30471 12.6293 9.11847 12.5955 9.03381C12.0875 8.03487 11.6134 7.03593 11.0716 6.05392C10.75 5.47825 10.5806 4.90259 10.6314 4.24228C10.6484 3.98831 10.6314 3.73434 10.6314 3.46344H5.3489C5.3489 3.7682 5.33196 4.07296 5.3489 4.36079C5.39969 4.91952 5.24731 5.42746 4.97641 5.91847C4.38382 7.03593 3.82509 8.17032 3.24943 9.27085C3.63884 9.52481 3.9944 9.76185 4.36689 9.98196C4.5362 10.0835 4.72244 10.1513 4.90869 10.1851C5.41662 10.2867 5.85683 10.1174 6.26318 9.79572C6.90657 9.28778 7.65154 9.05074 8.46424 9.25392C8.90445 9.3555 9.32773 9.57561 9.70022 9.82958C10.4621 10.3206 11.0547 10.3544 11.7997 9.82958C12.0875 9.6264 12.3923 9.45709 12.697 9.25392L12.714 9.30471ZM4.63778 2.36291H11.3256V1.07614H4.63778V2.36291Z" fill="#EEECDF"/>
</svg>
