<svg width="36" height="35" viewBox="0 0 36 35" fill="none" xmlns="http://www.w3.org/2000/svg">
<path d="M32.5389 26.7326C32.5389 27.2576 32.4223 27.7971 32.1743 28.3221C31.9264 28.8471 31.6056 29.343 31.1827 29.8096C30.4681 30.5971 29.6806 31.1659 28.791 31.5305C27.916 31.8951 26.9681 32.0846 25.9473 32.0846C24.4598 32.0846 22.8702 31.7346 21.1931 31.0201C19.516 30.3055 17.8389 29.343 16.1764 28.1326C14.4993 26.9076 12.9098 25.5513 11.3931 24.0492C9.89102 22.5326 8.53477 20.943 7.32435 19.2805C6.12852 17.618 5.16602 15.9555 4.46602 14.3076C3.76602 12.6451 3.41602 11.0555 3.41602 9.5388C3.41602 8.54714 3.59102 7.59922 3.94102 6.72422C4.29102 5.83464 4.84518 5.01797 5.6181 4.2888C6.55143 3.37005 7.57227 2.91797 8.65143 2.91797C9.05977 2.91797 9.4681 3.00547 9.83268 3.18047C10.2118 3.35547 10.5473 3.61797 10.8098 3.99714L14.1931 8.76589C14.4556 9.13047 14.6452 9.46589 14.7764 9.78672C14.9077 10.093 14.9806 10.3992 14.9806 10.6763C14.9806 11.0263 14.8785 11.3763 14.6743 11.7117C14.4848 12.0471 14.2077 12.3971 13.8577 12.7471L12.7493 13.8992C12.5889 14.0596 12.516 14.2492 12.516 14.4826C12.516 14.5992 12.5306 14.7013 12.5598 14.818C12.6035 14.9346 12.6473 15.0221 12.6764 15.1096C12.9389 15.5909 13.391 16.218 14.0327 16.9763C14.6889 17.7346 15.3889 18.5076 16.1473 19.2805C16.9348 20.0534 17.6931 20.768 18.466 21.4242C19.2243 22.0659 19.8514 22.5034 20.3473 22.7659C20.4202 22.7951 20.5077 22.8388 20.6098 22.8826C20.7264 22.9263 20.8431 22.9409 20.9743 22.9409C21.2223 22.9409 21.4118 22.8534 21.5723 22.693L22.6806 21.5992C23.0452 21.2346 23.3952 20.9576 23.7306 20.7826C24.066 20.5784 24.4014 20.4763 24.766 20.4763C25.0431 20.4763 25.3348 20.5346 25.6556 20.6659C25.9764 20.7971 26.3118 20.9867 26.6764 21.2346L31.5035 24.6617C31.8827 24.9242 32.1452 25.2305 32.3056 25.595C32.4514 25.9596 32.5389 26.3242 32.5389 26.7326Z" stroke="#EDEBDF" stroke-width="2.5" stroke-miterlimit="10"/>
</svg>
