<svg width="50" height="50" viewBox="0 0 50 50" fill="none" xmlns="http://www.w3.org/2000/svg">
<path d="M12.3347 21.4907L11.7109 13.3296" stroke="#EDEBDF" stroke-width="2" stroke-linecap="round" stroke-linejoin="round"/>
<path d="M38.2878 13.3296L37.6641 21.4907" stroke="#EDEBDF" stroke-width="2" stroke-linecap="round" stroke-linejoin="round"/>
<path d="M13.6328 38.6704L14.1957 46.0742C14.2123 46.292 14.3105 46.4954 14.4707 46.6439C14.6309 46.7924 14.8412 46.8749 15.0596 46.8749H34.9307C35.1491 46.8749 35.3595 46.7924 35.5197 46.6439C35.6798 46.4954 35.778 46.292 35.7946 46.0742L36.3575 38.6704" stroke="#EDEBDF" stroke-width="2" stroke-linecap="round" stroke-linejoin="round"/>
<path d="M39.1763 8.22607H10.8203C10.3888 8.22607 10.0391 8.57585 10.0391 9.00732V12.5457C10.0391 12.9771 10.3888 13.3269 10.8203 13.3269H39.1763C39.6078 13.3269 39.9575 12.9771 39.9575 12.5457V9.00732C39.9575 8.57585 39.6078 8.22607 39.1763 8.22607Z" stroke="#EDEBDF" stroke-width="2" stroke-linecap="round" stroke-linejoin="round"/>
<path d="M37.3609 8.22585H12.6406L14.9987 3.59803C15.0712 3.45567 15.1817 3.33614 15.318 3.25266C15.4542 3.16918 15.6109 3.125 15.7706 3.125H34.2309C34.3907 3.125 34.5473 3.16918 34.6836 3.25266C34.8198 3.33614 34.9303 3.45567 35.0028 3.59803L37.3609 8.22585Z" stroke="#EDEBDF" stroke-width="2" stroke-linecap="round" stroke-linejoin="round"/>
<path d="M10.9913 21.4883H39.0007C39.1215 21.4883 39.241 21.5136 39.3515 21.5625C39.462 21.6114 39.561 21.6829 39.6422 21.7724C39.7235 21.8619 39.785 21.9673 39.8231 22.082C39.8611 22.1967 39.8747 22.3181 39.863 22.4384L38.3622 37.8919C38.3414 38.1062 38.2415 38.305 38.0821 38.4497C37.9227 38.5944 37.7151 38.6745 37.4999 38.6745H12.4922C12.2769 38.6745 12.0694 38.5944 11.9099 38.4497C11.7505 38.305 11.6507 38.1062 11.6299 37.8919L10.1291 22.4384C10.1174 22.3181 10.131 22.1967 10.169 22.0821C10.207 21.9674 10.2686 21.8619 10.3498 21.7724C10.431 21.6829 10.53 21.6114 10.6405 21.5625C10.751 21.5136 10.8705 21.4883 10.9913 21.4883Z" stroke="#EDEBDF" stroke-width="2" stroke-linecap="round" stroke-linejoin="round"/>
<path d="M18.0312 13.3296V26.1283" stroke="#EDEBDF" stroke-width="2" stroke-linecap="round" stroke-linejoin="round"/>
<path d="M17.98 26.1279H18.0783C18.937 26.1279 19.7606 26.4691 20.3678 27.0763C20.975 27.6835 21.3161 28.507 21.3161 29.3658V33.3543C21.3161 33.5615 21.2338 33.7602 21.0873 33.9067C20.9408 34.0532 20.7421 34.1355 20.5349 34.1355H15.5234C15.3162 34.1355 15.1175 34.0532 14.971 33.9067C14.8245 33.7602 14.7422 33.5615 14.7422 33.3543V29.3658C14.7422 28.507 15.0833 27.6835 15.6905 27.0763C16.2977 26.4691 17.1213 26.1279 17.98 26.1279Z" stroke="#EDEBDF" stroke-width="2" stroke-linecap="round" stroke-linejoin="round"/>
</svg>
