<svg width="80" height="81" viewBox="0 0 80 81" fill="none" xmlns="http://www.w3.org/2000/svg">
<g clip-path="url(#clip0_2768_1959)">
<path d="M25.1768 37.9667C23.6077 34.6253 23.0329 31.0146 22.468 27.4783C21.9742 24.3781 21.4638 21.1754 20.2729 18.2486C16.9827 10.1766 9.03465 4.75075 0.493642 4.74579L0.442439 4.74414C0.34664 5.09265 0.275616 5.45438 0.25084 5.83923L0.0774102 8.68183C-0.822774 23.3325 6.1838 36.3117 18.1851 42.9516C20.3819 41.0339 22.729 39.3872 25.1768 37.9667Z" fill="#EDEBDF"/>
<path d="M23.33 17.0051C24.6663 20.2821 25.2064 23.678 25.73 26.96C26.2618 30.2964 26.7755 33.5173 28.0969 36.4045C33.7127 33.7039 39.8224 32.2719 46.1534 32.2719C46.1716 32.2719 46.1881 32.2735 46.2062 32.2735C43.8889 14.1344 29.1969 1 10.222 1C9.38129 1 8.53397 1.02643 7.67673 1.07928L4.83578 1.25436C4.25272 1.28905 3.71592 1.42119 3.21875 1.61774C11.986 2.63189 19.8829 8.54998 23.33 17.0051Z" fill="#EDEBDF"/>
<path d="M47.4964 55.8645C55.6972 64.0652 69.043 64.0652 77.2438 55.8645L79.3547 53.8593C79.0078 53.0813 78.5585 52.3282 77.9507 51.641L76.0628 49.5103C68.1181 40.5283 57.4992 35.5781 46.1585 35.5781C34.8179 35.5781 24.1957 40.5267 16.2526 49.5103L14.3663 51.641C13.1755 52.9872 12.5164 54.5596 12.3281 56.1667L12.8071 55.7934C22.397 46.2796 37.9379 46.3043 47.4964 55.8645Z" fill="#EDEBDF"/>
<path d="M79.5422 58.2252C74.9719 62.7971 68.8605 65.3308 62.3643 65.3308C55.8682 65.3308 49.7552 62.7971 45.1551 58.1971C41.1795 54.2214 35.8345 52.0312 30.1097 52.0312C24.3849 52.0312 19.0399 54.2214 15.0642 58.1971L14.9106 58.3292L12.8047 59.9743C13.1582 60.8646 13.6718 61.7186 14.359 62.4965L16.2452 64.6289C24.1899 73.6109 34.8105 78.5594 46.1511 78.5594C57.4918 78.5594 68.1123 73.6125 76.0554 64.6305L77.9433 62.4982C79.1788 61.1008 79.8428 59.459 79.998 57.7908L79.5422 58.2252Z" fill="#EDEBDF"/>
</g>
<defs>
<clipPath id="clip0_2768_1959">
<rect width="80" height="80" fill="white" transform="translate(0 0.5)"/>
</clipPath>
</defs>
</svg>
