<svg width="30" height="42" viewBox="0 0 30 42" fill="none" xmlns="http://www.w3.org/2000/svg">
<path d="M5.89342 1H23.8198C24.1987 1 24.562 1.15051 24.8299 1.41842C25.0978 1.68633 25.2483 2.04969 25.2483 2.42857V5.61857H4.46484V2.42857C4.46484 2.04969 4.61535 1.68633 4.88326 1.41842C5.15117 1.15051 5.51453 1 5.89342 1Z" stroke="#EDEBDF" stroke-width="1.8" stroke-linecap="round" stroke-linejoin="round"/>
<path d="M4.46392 5.61914L1 12.4645V37.8253C1 38.2423 1.08213 38.6552 1.2417 39.0404C1.40128 39.4257 1.63517 39.7757 1.93002 40.0705C2.22487 40.3654 2.57491 40.5993 2.96015 40.7589C3.34539 40.9184 3.75829 41.0006 4.17528 41.0006H25.0412" stroke="#EDEBDF" stroke-width="1.8" stroke-linecap="round" stroke-linejoin="round"/>
<path d="M21.7852 12.4645L25.2491 5.61914L28.3006 12.4645V37.7429C28.2993 38.606 27.9556 39.4334 27.3448 40.0433C26.7339 40.6532 25.9061 40.9958 25.0429 40.9958C24.1797 40.9958 23.3518 40.6532 22.741 40.0433C22.1302 39.4334 21.7864 38.606 21.7852 37.7429V12.4645Z" stroke="#EDEBDF" stroke-width="1.8" stroke-linecap="round" stroke-linejoin="round"/>
<path d="M1 12.4648H21.7835" stroke="#EDEBDF" stroke-width="1.8" stroke-linecap="round" stroke-linejoin="round"/>
<path d="M1 36.2367L21.7835 36.1543" stroke="#EDEBDF" stroke-width="1.8" stroke-linecap="round" stroke-linejoin="round"/>
<path d="M15.7864 27.5959C18.079 24.8917 18.2019 21.2283 16.0611 19.4133C13.9203 17.5984 10.3263 18.3193 8.0338 21.0235C5.74127 23.7277 5.6183 27.3912 7.75912 29.2061C9.89995 31.021 13.4939 30.3001 15.7864 27.5959Z" stroke="#EDEBDF" stroke-width="1.8" stroke-linecap="round" stroke-linejoin="round"/>
<path d="M16.9452 20.4629L16.4908 21.4165C16.0788 22.2823 15.4312 23.0144 14.6222 23.5289C13.8132 24.0435 12.8755 24.3196 11.9168 24.3258C10.9845 24.3317 10.0717 24.5931 9.27751 25.0813C8.48331 25.5696 7.83809 26.2662 7.41192 27.0954L6.87109 28.147" stroke="#EDEBDF" stroke-width="1.8" stroke-linecap="round" stroke-linejoin="round"/>
</svg>
