<svg width="50" height="50" viewBox="0 0 50 50" fill="none" xmlns="http://www.w3.org/2000/svg">
<path d="M6.53125 28.943L5.81562 19.4273H5.80781L5.4375 14.4727" stroke="#EDEBDF" stroke-width="2" stroke-linecap="round" stroke-linejoin="round"/>
<path d="M21.5703 14.4727L21.1922 19.4273L20.4688 28.943" stroke="#EDEBDF" stroke-width="2" stroke-linecap="round" stroke-linejoin="round"/>
<path d="M21.8052 11.377H5.20312C4.77165 11.377 4.42188 11.7267 4.42188 12.1582V13.6926C4.42188 14.1241 4.77165 14.4739 5.20312 14.4739H21.8052C22.2367 14.4739 22.5865 14.1241 22.5865 13.6926V12.1582C22.5865 11.7267 22.2367 11.377 21.8052 11.377Z" stroke="#EDEBDF" stroke-width="2" stroke-linecap="round" stroke-linejoin="round"/>
<path d="M21.0086 11.3772H6L7.36066 8.70684C7.42607 8.57846 7.5257 8.47068 7.64855 8.3954C7.7714 8.32012 7.91267 8.28027 8.05675 8.28027H18.9518C19.0959 8.28027 19.2372 8.32012 19.36 8.3954C19.4828 8.47068 19.5825 8.57846 19.6479 8.70684L21.0086 11.3772Z" stroke="#EDEBDF" stroke-width="2" stroke-linecap="round" stroke-linejoin="round"/>
<path d="M5.80469 19.4292H21.1888" stroke="#EDEBDF" stroke-width="2" stroke-linecap="round" stroke-linejoin="round"/>
<path d="M28.4844 14.4727L28.8633 19.4273L29.5867 28.943" stroke="#EDEBDF" stroke-width="2" stroke-linecap="round" stroke-linejoin="round"/>
<path d="M44.6258 14.4727L44.2469 19.4273L43.5234 28.943" stroke="#EDEBDF" stroke-width="2" stroke-linecap="round" stroke-linejoin="round"/>
<path d="M44.8599 11.377H28.2578C27.8263 11.377 27.4766 11.7267 27.4766 12.1582V13.6926C27.4766 14.1241 27.8263 14.4739 28.2578 14.4739H44.8599C45.2914 14.4739 45.6412 14.1241 45.6412 13.6926V12.1582C45.6412 11.7267 45.2914 11.377 44.8599 11.377Z" stroke="#EDEBDF" stroke-width="2" stroke-linecap="round" stroke-linejoin="round"/>
<path d="M44.0633 11.3772H29.0547L30.4153 8.70684C30.4808 8.57846 30.5804 8.47068 30.7032 8.3954C30.8261 8.32012 30.9674 8.28027 31.1114 8.28027H42.0065C42.1506 8.28027 42.2919 8.32012 42.4147 8.3954C42.5376 8.47068 42.6372 8.57846 42.7026 8.70684L44.0633 11.3772Z" stroke="#EDEBDF" stroke-width="2" stroke-linecap="round" stroke-linejoin="round"/>
<path d="M28.8672 19.4292H44.2513" stroke="#EDEBDF" stroke-width="2" stroke-linecap="round" stroke-linejoin="round"/>
<path d="M5.16699 28.9438H44.833C45.9608 28.9438 46.875 29.8581 46.875 30.9858V30.9858C46.875 32.1136 45.9608 33.0278 44.833 33.0278H5.16699C4.03923 33.0278 3.125 32.1136 3.125 30.9858V30.9858C3.125 29.8581 4.03923 28.9438 5.16699 28.9438Z" stroke="#EDEBDF" stroke-width="2" stroke-linecap="round" stroke-linejoin="round"/>
<path d="M21.5685 33.0278L20.4581 40.2918C20.3973 40.6893 20.1961 41.052 19.891 41.314C19.5859 41.5761 19.197 41.7201 18.7948 41.7201H7.72684C7.32464 41.7201 6.93575 41.5761 6.63063 41.314C6.3255 41.052 6.12433 40.6893 6.06355 40.2918L4.95312 33.0278" stroke="#EDEBDF" stroke-width="2" stroke-linecap="round" stroke-linejoin="round"/>
<path d="M44.8653 33.0278L43.7549 40.2918C43.6942 40.6893 43.493 41.052 43.1879 41.314C42.8827 41.5761 42.4938 41.7201 42.0917 41.7201H31.0237C30.6215 41.7201 30.2326 41.5761 29.9275 41.314C29.6224 41.052 29.4212 40.6893 29.3604 40.2918L28.25 33.0278" stroke="#EDEBDF" stroke-width="2" stroke-linecap="round" stroke-linejoin="round"/>
</svg>
