<svg width="50" height="50" viewBox="0 0 50 50" fill="none" xmlns="http://www.w3.org/2000/svg">
<path d="M20.9281 24.6088C21.4927 19.8201 23.8126 5.85585 31.7114 5.20867C31.8913 5.19599 32.0707 5.24013 32.2241 5.33487C37.2844 8.42103 41.5205 12.6886 44.5691 17.7715C44.5691 17.7716 46.8257 25.5732 26.1001 29.4987C25.5731 29.5983 25.0299 29.5679 24.5173 29.4101C24.0048 29.2523 23.5385 28.9719 23.1588 28.5932L21.8693 27.3037C21.5189 26.9549 21.2522 26.5311 21.0892 26.0643C20.9261 25.5976 20.8711 25.0999 20.9281 24.6088Z" stroke="#EDEBDF" stroke-width="2" stroke-linecap="round" stroke-linejoin="round"/>
<path d="M29.7334 5.68457C27.7858 4.39821 25.5635 3.58673 23.2452 3.31537C21.2699 3.17464 19.2855 3.23431 17.3222 3.49345C17.0861 3.54667 16.8534 3.61389 16.6254 3.69475C16.565 3.71171 16.5093 3.74211 16.4623 3.78368C16.4154 3.82525 16.3785 3.8769 16.3544 3.93477C14.9375 8.03055 14.5039 15.7576 15.5724 19.9385C15.7209 20.5436 15.9419 21.1285 16.2305 21.6806C16.5402 22.2535 19.6759 23.1439 21.0773 23.4304" stroke="#EDEBDF" stroke-width="2" stroke-linecap="round" stroke-linejoin="round"/>
<path d="M15.5738 19.9386C14.2575 19.7838 12.0199 19.3889 11.7335 18.994C11.2971 18.3417 10.9702 17.6225 10.7657 16.8648C9.86425 13.4614 9.58361 9.92326 9.93721 6.42022C9.99572 5.78908 10.0992 5.16292 10.2469 4.54653C10.2616 4.49526 10.2882 4.44819 10.3245 4.40917C10.3608 4.37014 10.4059 4.34027 10.456 4.322C12.2122 3.62463 14.0964 3.30795 15.9841 3.39289C16.4321 3.40275 16.8792 3.43635 17.3236 3.49355L17.3468 3.48581" stroke="#EDEBDF" stroke-width="2" stroke-linecap="round" stroke-linejoin="round"/>
<path d="M9.93371 6.42529C9.93371 6.42529 1.39584 10.0782 3.47459 14.7791C3.72387 15.3069 4.11306 15.7564 4.59986 16.0786C5.08665 16.4008 5.65245 16.5835 6.23576 16.6067L10.7653 16.8674" stroke="#EDEBDF" stroke-width="2" stroke-linecap="round" stroke-linejoin="round"/>
<path d="M26.6641 29.3921C27.0202 30.9406 27.779 33.4337 28.29 33.7124C28.8421 34.001 29.427 34.222 30.032 34.3705C34.213 35.439 41.94 35.0054 46.0358 33.5885C46.1674 33.5498 46.4849 32.5975 46.4849 32.5975C46.908 30.6586 46.9657 28.6578 46.6552 26.6977C46.3838 24.3794 45.5723 22.1571 44.286 20.2095" stroke="#EDEBDF" stroke-width="2" stroke-linecap="round" stroke-linejoin="round"/>
<path d="M30.0781 34.3859C30.2333 35.7021 30.6329 38.0057 31.0279 38.2921C31.6803 38.7284 32.3995 39.0551 33.1573 39.2594C36.561 40.1601 40.0991 40.4399 43.6021 40.0855C44.2332 40.0269 44.8594 39.9232 45.4757 39.7754C45.527 39.7607 45.574 39.7341 45.6131 39.6978C45.6521 39.6614 45.6819 39.6164 45.7002 39.5663C46.3972 37.8099 46.7134 35.9256 46.628 34.0379C46.6124 33.5888 46.5473 33.0312 46.4853 32.5977" stroke="#EDEBDF" stroke-width="2" stroke-linecap="round" stroke-linejoin="round"/>
<path d="M43.5985 40.088C43.5985 40.088 39.9475 48.6267 35.2462 46.549C34.7183 46.2999 34.2688 45.9108 33.9464 45.4241C33.6241 44.9373 33.4413 44.3716 33.418 43.7883L33.1562 39.2588" stroke="#EDEBDF" stroke-width="2" stroke-linecap="round" stroke-linejoin="round"/>
</svg>
