<svg width="19" height="19" viewBox="0 0 19 19" fill="none" xmlns="http://www.w3.org/2000/svg">
<path d="M6.86719 11.3443C6.86719 12.3655 7.65094 13.1889 8.62469 13.1889H10.6118C11.4589 13.1889 12.1476 12.4685 12.1476 11.5818C12.1476 10.616 11.728 10.2755 11.1026 10.0539L7.91219 8.94555C7.28677 8.72388 6.86719 8.38346 6.86719 7.41763C6.86719 6.53096 7.55594 5.81055 8.40302 5.81055H10.3901C11.3639 5.81055 12.1476 6.63388 12.1476 7.65513" stroke="#2E418E" stroke-linecap="round" stroke-linejoin="round"/>
<path d="M9.5 4.75V14.25" stroke="#2E418E" stroke-linecap="round" stroke-linejoin="round"/>
<path d="M9.4987 17.4163C13.871 17.4163 17.4154 13.8719 17.4154 9.49967C17.4154 5.12742 13.871 1.58301 9.4987 1.58301C5.12644 1.58301 1.58203 5.12742 1.58203 9.49967C1.58203 13.8719 5.12644 17.4163 9.4987 17.4163Z" stroke="#2E418E" stroke-linecap="round" stroke-linejoin="round"/>
</svg>
