<svg width="78" height="81" viewBox="0 0 78 81" fill="none" xmlns="http://www.w3.org/2000/svg">
<path d="M33.041 4.01562C40.9612 26.0469 23.4612 26.8281 13.8122 40.8371C7.09263 50.5931 5.96124 72.0625 30.1746 77.6875C19.9914 72.1406 17.8039 56.0469 28.8168 45.9688C25.9735 55.7426 31.1982 62.0071 37.7669 59.7072C44.2048 57.4531 48.3876 62.2417 48.278 67.6875C48.2026 71.4375 47.0711 74.3281 43.0733 76.4375C43.0733 76.4375 65.1746 72.0625 65.1746 49.7188C65.1746 36.125 53.4828 34.2402 59.3664 22.8438C52.3513 23.4688 49.9291 28.2171 50.6164 36.0469C51.069 41.2031 45.8642 44.7448 42.0173 42.3766C38.8925 40.453 39 36.6621 41.7155 33.8594C47.4972 27.8921 49.7867 14.25 33.041 4.01562Z" fill="#EDEBDF"/>
</svg>
