<svg width="24" height="34" viewBox="0 0 24 34" fill="none" xmlns="http://www.w3.org/2000/svg">
<path fill-rule="evenodd" clip-rule="evenodd" d="M22.8778 7.42535H21.9805L21.371 3.71741C21.3202 3.41265 21.0662 3.17562 20.7953 3.17562H20.2366L19.6948 0.686727C19.6609 0.517415 19.5593 0.365034 19.4069 0.263447C19.2546 0.178791 19.0853 0.16186 18.9329 0.212654L14.9202 1.63488C14.6831 1.71953 14.5138 1.9735 14.5138 2.26133V3.17562H3.23763C2.9498 3.17562 2.71276 3.39572 2.66197 3.71741L2.05245 7.42535H1.15509C0.833399 7.42535 0.5625 7.71318 0.5625 8.06874V11.6412C0.5625 11.9968 0.833399 12.2846 1.15509 12.2846H1.95086L4.33816 33.2116C4.37202 33.5333 4.62599 33.7873 4.93075 33.7873H19.136C19.4408 33.7873 19.6948 33.5502 19.7286 33.2116L22.1159 12.2846H22.9117C23.2334 12.2846 23.5043 11.9968 23.5043 11.6412V8.06874C23.5043 7.71318 23.2334 7.42535 22.9117 7.42535H22.8778ZM15.6651 2.7354L18.662 1.68567L18.9837 3.19255H15.6651V2.75234V2.7354ZM20.2704 4.47932H3.71171L3.2207 7.42535H20.7614L20.2704 4.47932ZM19.153 27.3365H4.82917L3.89795 19.2433H20.0842L19.153 27.3365ZM5.3879 32.5005H18.5435L19.0683 27.8783H4.87996L5.40483 32.5005H5.3879ZM20.135 18.7185H3.84716L3.11911 12.3015H20.8969L20.1688 18.7185H20.135ZM1.67996 10.9978H22.2514V8.72906H1.71382V10.9978H1.67996Z" fill="#EEECDF"/>
</svg>
