<svg width="276" height="251" viewBox="0 0 276 251" fill="none" xmlns="http://www.w3.org/2000/svg">
<path d="M81.8344 251C80.7912 251 79.8252 250.819 78.9365 250.45C78.0479 250.082 77.2641 249.571 76.5906 248.911C75.9172 248.251 75.3928 247.487 75.0285 246.618C74.6642 245.75 74.4766 244.804 74.4766 243.792C74.4766 242.781 74.6587 241.841 75.0285 240.967C75.3984 240.098 75.9172 239.328 76.5906 238.674C77.2641 238.014 78.0479 237.503 78.9476 237.135C79.8418 236.766 80.8022 236.585 81.8344 236.585C82.5686 236.585 83.2861 236.684 83.9871 236.876C84.6882 237.069 85.334 237.344 85.9301 237.706C86.5262 238.064 87.0451 238.498 87.4812 239.004L86.0791 240.439C85.5603 239.812 84.9255 239.339 84.1748 239.009C83.4241 238.685 82.6458 238.52 81.8289 238.52C81.0782 238.52 80.3882 238.652 79.7535 238.921C79.1187 239.185 78.5667 239.559 78.0975 240.032C77.6284 240.505 77.2641 241.06 77.0046 241.698C76.7452 242.335 76.6127 243.034 76.6127 243.792C76.6127 244.551 76.7452 245.227 77.0046 245.871C77.2641 246.508 77.6339 247.069 78.1196 247.547C78.6054 248.026 79.1629 248.4 79.8032 248.663C80.4434 248.927 81.1389 249.065 81.8896 249.065C82.7066 249.065 83.4738 248.9 84.2024 248.575C84.931 248.251 85.5492 247.789 86.0571 247.19L87.4425 248.586C86.9733 249.081 86.4434 249.51 85.8473 249.873C85.2512 250.241 84.6109 250.516 83.9209 250.709C83.2309 250.901 82.5354 251 81.8289 251H81.8344Z" fill="#2E418E"/>
<path d="M103.117 251C102.102 251 101.152 250.819 100.269 250.45C99.3861 250.082 98.6078 249.571 97.9344 248.911C97.261 248.251 96.7366 247.487 96.3723 246.618C96.008 245.75 95.8203 244.804 95.8203 243.792C95.8203 242.781 96.0025 241.841 96.3723 240.967C96.7421 240.098 97.261 239.328 97.9344 238.674C98.6078 238.014 99.3861 237.503 100.269 237.135C101.152 236.766 102.102 236.585 103.117 236.585C104.133 236.585 105.083 236.766 105.971 237.135C106.86 237.503 107.638 238.014 108.306 238.674C108.974 239.334 109.493 240.098 109.868 240.967C110.243 241.841 110.431 242.781 110.431 243.792C110.431 244.804 110.243 245.744 109.868 246.618C109.493 247.492 108.974 248.257 108.306 248.911C107.638 249.571 106.86 250.082 105.971 250.45C105.083 250.819 104.133 251 103.117 251ZM103.14 249.065C103.863 249.065 104.531 248.933 105.154 248.663C105.778 248.4 106.319 248.026 106.788 247.553C107.257 247.08 107.622 246.519 107.892 245.876C108.157 245.233 108.295 244.535 108.295 243.792C108.295 243.05 108.163 242.335 107.892 241.698C107.627 241.06 107.257 240.505 106.788 240.032C106.319 239.559 105.778 239.191 105.154 238.921C104.531 238.657 103.863 238.52 103.14 238.52C102.416 238.52 101.721 238.652 101.097 238.921C100.468 239.185 99.9215 239.559 99.4523 240.032C98.9831 240.505 98.6188 241.06 98.3594 241.698C98.1 242.335 97.9675 243.028 97.9675 243.776C97.9675 244.524 98.1 245.238 98.3594 245.882C98.6188 246.525 98.9831 247.086 99.4523 247.558C99.9215 248.031 100.468 248.4 101.097 248.669C101.726 248.933 102.405 249.07 103.14 249.07V249.065Z" fill="#2E418E"/>
<path d="M119.875 250.78V236.805H130.258V238.641H121.978V242.935H127.432V244.711H121.978V250.78H119.875Z" fill="#2E418E"/>
<path d="M139.508 250.78V236.805H149.891V238.641H141.611V242.935H147.064V244.711H141.611V250.78H139.508Z" fill="#2E418E"/>
<path d="M159.148 250.78V236.805H169.492V238.641H161.257V242.83H166.666V244.606H161.257V248.938H169.575V250.775H159.154L159.148 250.78Z" fill="#2E418E"/>
<path d="M178.953 250.78V236.805H189.297V238.641H181.062V242.83H186.471V244.606H181.062V248.938H189.38V250.775H178.959L178.953 250.78Z" fill="#2E418E"/>
<path d="M270.173 142.259H270.14C266.866 142.259 264.25 144.761 264.25 147.949C264.25 151.138 266.866 153.678 270.14 153.678C273.413 153.678 275.996 151.144 275.996 147.949C275.996 144.755 273.418 142.259 270.178 142.259H270.173ZM270.173 152.496C267.628 152.496 265.713 150.484 265.713 147.949C265.713 145.415 267.628 143.403 270.101 143.403H270.134C272.646 143.403 274.528 145.448 274.528 147.982C274.528 150.517 272.646 152.529 270.173 152.496Z" fill="#2E418E"/>
<path d="M271.461 148.125V148.054C272.123 147.845 272.648 147.394 272.648 146.701C272.648 146.146 272.405 145.728 272.057 145.486C271.676 145.206 271.185 145.036 270.103 145.036C269.165 145.036 268.431 145.14 267.906 145.212V150.902H269.231V148.648H269.86C270.594 148.648 270.942 148.928 271.047 149.516C271.224 150.209 271.323 150.698 271.5 150.907H272.896C272.791 150.698 272.653 150.385 272.477 149.516C272.3 148.752 272.024 148.301 271.467 148.125H271.461ZM269.893 147.708H269.264V146.075C269.402 146.042 269.645 146.003 269.998 146.003C270.837 146.003 271.218 146.35 271.218 146.872C271.218 147.46 270.628 147.708 269.893 147.708Z" fill="#2E418E"/>
<path d="M103.678 207.98C101.029 208.095 89.1058 208.326 79.6449 199.887C74.92 195.676 71.7847 190.101 69.919 184.114C67.2088 175.433 63.4333 157.202 63.2456 154.739C63.2346 154.563 63.1904 153.926 62.7433 153.552C62.5005 153.348 62.1527 153.266 61.6394 153.277C58.3275 153.332 55.0212 153.326 51.7038 153.299C50.804 153.288 50.2907 153.524 50.1086 154.497C49.9154 155.525 49.5235 156.504 49.2199 157.51C45.6541 169.237 42.0994 180.958 38.5281 192.679C38.1693 193.861 37.7663 195.016 37.3855 196.187C36.8721 195.599 36.6845 195.071 36.5189 194.538C32.4729 181.162 28.4158 167.785 24.4195 154.398C24.1435 153.497 23.713 153.293 22.9016 153.293C19.54 153.31 16.1785 153.326 12.8169 153.282C11.8178 153.271 11.4149 153.596 11.2327 154.624C10.2005 160.396 9.069 166.147 7.99816 171.909C5.68537 184.334 3.38362 196.759 1.0874 209.189C0.71757 211.185 0.380865 213.197 0 215.363C0.73965 215.402 1.25299 215.446 1.76633 215.446C4.69181 215.457 7.62281 215.385 10.5483 215.479C11.862 215.517 12.3588 215.072 12.5961 213.785C14.3128 204.791 16.1012 195.813 17.8675 186.824C18.4692 183.757 19.0819 180.678 19.6835 177.61C20.1362 178.006 20.3073 178.424 20.4397 178.852C23.873 189.914 27.3174 200.981 30.7065 212.054C31.0432 213.148 31.5179 213.593 32.7047 213.554C35.6799 213.478 38.655 213.472 41.6302 213.549C42.8997 213.582 43.4903 213.175 43.8712 211.944C46.3827 203.741 48.977 195.56 51.5437 187.38C52.8519 183.196 54.1766 179.023 55.6007 174.504C55.8767 175.273 56.0423 175.708 56.1803 176.153C57.2236 179.518 58.1233 182.937 59.3321 186.253C62.5612 195.12 67.0929 202.894 74.7268 208.65C84.6955 216.166 95.3597 217.21 99.3229 217.359C113.332 217.892 123.251 211.515 126.359 209.327C127.181 204.851 128.009 200.371 128.832 195.896C127.121 197.798 118.206 207.331 103.667 207.969L103.678 207.98Z" fill="#2E418E"/>
<path d="M86.6057 196.891C91.3196 200.068 97.0436 201.927 103.149 201.927C107.217 201.927 111.125 201.102 114.668 199.607C119.984 197.363 124.493 193.636 127.678 188.935C130.869 184.24 132.735 178.539 132.735 172.459C132.735 168.407 131.907 164.514 130.405 160.985C128.153 155.69 124.411 151.199 119.691 148.026C114.977 144.849 109.253 142.99 103.149 142.99C99.0804 142.99 95.1724 143.815 91.6287 145.311C86.3132 147.554 81.8035 151.281 78.6186 155.982C75.4282 160.677 73.5625 166.378 73.5625 172.459C73.5625 176.51 74.3905 180.403 75.8918 183.932C78.1439 189.227 81.8863 193.718 86.6057 196.891ZM85.4907 165.031C86.9424 161.611 89.3767 158.687 92.4401 156.63C95.5036 154.574 99.1632 153.376 103.154 153.376C105.815 153.376 108.321 153.909 110.611 154.871C114.045 156.317 116.981 158.742 119.045 161.793C121.11 164.844 122.313 168.489 122.313 172.464C122.313 175.114 121.778 177.61 120.812 179.892C119.36 183.311 116.926 186.236 113.862 188.292C110.799 190.348 107.139 191.547 103.149 191.547C100.488 191.547 97.982 191.014 95.6913 190.051C92.258 188.606 89.3215 186.181 87.2571 183.13C85.1927 180.078 83.9894 176.433 83.9894 172.459C83.9894 169.809 84.5248 167.313 85.4907 165.031Z" fill="#2E418E"/>
<path d="M235.241 207.98C232.591 208.095 220.668 208.326 211.207 199.887C206.482 195.676 203.347 190.101 201.482 184.114C198.771 175.433 194.996 157.202 194.808 154.739C194.797 154.563 194.753 153.926 194.306 153.552C194.063 153.348 193.715 153.266 193.202 153.277C189.89 153.332 186.584 153.326 183.266 153.299C182.367 153.288 181.853 153.524 181.671 154.497C181.478 155.525 181.086 156.504 180.782 157.51C177.217 169.237 173.662 180.958 170.091 192.679C169.732 193.861 169.329 195.016 168.948 196.187C168.435 195.599 168.247 195.071 168.081 194.538C164.035 181.162 159.978 167.785 155.982 154.398C155.706 153.497 155.275 153.293 154.464 153.293C151.103 153.31 147.741 153.326 144.379 153.282C143.38 153.271 142.977 153.596 142.795 154.624C141.763 160.396 140.631 166.147 139.561 171.909C137.248 184.334 134.946 196.759 132.65 209.189C132.28 211.185 131.943 213.197 131.562 215.363C132.302 215.402 132.815 215.446 133.329 215.446C136.254 215.457 139.185 215.385 142.111 215.479C143.425 215.517 143.921 215.072 144.159 213.785C145.875 204.791 147.664 195.813 149.43 186.824C150.032 183.757 150.644 180.678 151.246 177.61C151.699 178.006 151.87 178.424 152.002 178.852C155.436 189.914 158.88 200.981 162.269 212.054C162.606 213.148 163.08 213.593 164.267 213.554C167.242 213.478 170.218 213.472 173.193 213.549C174.462 213.582 175.053 213.175 175.434 211.944C177.945 203.741 180.54 195.56 183.106 187.38C184.414 183.196 185.739 179.023 187.163 174.504C187.439 175.273 187.605 175.708 187.743 176.153C188.786 179.518 189.686 182.937 190.895 186.253C194.124 195.12 198.655 202.894 206.289 208.65C216.258 216.166 226.922 217.21 230.885 217.359C244.895 217.892 254.814 211.515 257.921 209.327C258.744 204.851 259.572 200.371 260.394 195.896C258.683 197.798 249.769 207.331 235.229 207.969L235.241 207.98Z" fill="#2E418E"/>
<path d="M251.254 148.026C246.54 144.849 240.816 142.99 234.711 142.99C230.643 142.99 226.735 143.815 223.191 145.311C217.876 147.554 213.366 151.281 210.181 155.982C206.991 160.677 205.125 166.378 205.125 172.459C205.125 176.51 205.953 180.403 207.454 183.932C209.706 189.227 213.449 193.718 218.168 196.891C222.882 200.068 228.606 201.927 234.711 201.927C238.779 201.927 242.687 201.102 246.225 199.607C251.541 197.363 256.05 193.636 259.235 188.935C262.426 184.24 264.292 178.539 264.292 172.459C264.292 168.407 263.464 164.514 261.962 160.985C259.71 155.69 255.968 151.199 251.248 148.026H251.254ZM252.369 179.886C250.917 183.306 248.483 186.23 245.419 188.287C242.356 190.343 238.696 191.541 234.706 191.541C232.045 191.541 229.539 191.008 227.248 190.046C223.815 188.6 220.878 186.176 218.814 183.124C216.744 180.073 215.546 176.428 215.546 172.453C215.546 169.803 216.082 167.307 217.048 165.026C218.499 161.606 220.934 158.681 223.997 156.625C227.061 154.569 230.72 153.37 234.711 153.37C237.372 153.37 239.878 153.904 242.168 154.866C245.602 156.312 248.538 158.736 250.602 161.787C252.672 164.839 253.87 168.484 253.87 172.459C253.87 175.109 253.335 177.604 252.369 179.886Z" fill="#2E418E"/>
<path d="M110.691 52.1299C112.33 52.1299 113.655 50.8105 113.655 49.1776C113.655 47.5448 112.33 46.2253 110.691 46.2253C109.051 46.2253 107.727 47.5448 107.727 49.1776C107.727 50.8105 109.051 52.1299 110.691 52.1299Z" fill="#EDEBDF"/>
<path d="M153.753 52.1299C155.393 52.1299 156.717 50.8105 156.717 49.1776C156.717 47.5448 155.393 46.2253 153.753 46.2253C152.114 46.2253 150.789 47.5448 150.789 49.1776C150.789 50.8105 152.114 52.1299 153.753 52.1299Z" fill="#EDEBDF"/>
<path d="M170.249 73.7362L170.288 66.5121H167.257C167.257 64.4944 167.268 55.7475 167.274 55.5221C167.307 54.351 167.307 50.9424 166.512 46.8191C166.209 45.2577 165.739 43.7458 165.121 42.3054C167.042 40.3097 170.249 36.0984 170.249 30.2048V12.3755C170.249 9.03284 168.361 6.08054 165.314 4.6786C162.256 3.27117 158.762 3.74398 156.19 5.9156C150.019 11.133 144.963 18.5385 141.154 27.9507H123.314C119.506 18.5385 114.45 11.1275 108.279 5.9156C105.706 3.74398 102.207 3.26568 99.1544 4.6786C96.113 6.08054 94.2197 9.03284 94.2197 12.3755V30.2048C94.2197 36.0929 97.4267 40.3042 99.3476 42.3054C98.7293 43.7513 98.2546 45.2632 97.9566 46.8246C97.0293 51.6076 97.1838 55.4176 97.2059 55.9069H97.1617V66.5231H94.2694V78.9041L94.2031 79.5583C94.2031 100.472 111.226 117.427 132.223 117.427C140.553 117.427 148.253 114.75 154.518 110.225H168.444C173.517 110.225 178.104 108.18 181.427 104.87C184.75 101.56 186.803 96.9918 186.803 91.9393C186.803 82.4557 179.555 74.6598 170.277 73.7417L170.249 73.7362ZM156.218 65.605C155.296 60.558 152.36 55.9509 147.955 52.6247C143.572 49.3206 137.98 47.5008 132.218 47.5008C126.455 47.5008 120.864 49.3206 116.481 52.6247C112.076 55.9454 109.14 60.558 108.218 65.605L108.058 66.5066H101.87V55.8904H101.859C101.842 55.4121 101.732 51.822 102.532 47.6932C103.543 42.4703 106.904 37.9127 111.75 35.1913L109.449 31.1229C106.352 32.8602 103.747 35.2078 101.765 37.9622C100.44 36.2798 98.8839 33.5914 98.8839 30.1883V12.359C98.8839 10.8306 99.7119 9.53864 101.097 8.9009C102.499 8.25216 104.039 8.46658 105.221 9.46167C111.11 14.4372 115.912 21.7162 119.5 31.1064L120.074 32.6073H144.345L144.919 31.1064C148.507 21.7217 153.314 14.4372 159.199 9.46167C160.38 8.46108 161.92 8.25216 163.322 8.9009C164.707 9.53864 165.535 10.8361 165.535 12.359V30.1883C165.535 33.5914 163.979 36.2798 162.654 37.9622C160.672 35.2078 158.067 32.8547 154.97 31.1229L152.669 35.1913C157.515 37.9127 160.871 42.4648 161.887 47.6932C162.527 51.0029 162.588 53.9662 162.571 55.2582C162.571 55.6375 162.56 64.4724 162.555 66.5011H156.361L156.201 65.5995L156.218 65.605ZM151.609 66.4406V66.5066H134.564V57.6222C136.755 56.9625 138.544 55.4066 139.521 53.3834C141.552 54.0871 143.451 55.0822 145.129 56.3412C148.595 58.9582 150.897 62.5427 151.609 66.4351M112.838 66.5011V66.4351C113.544 62.5427 115.846 58.9582 119.318 56.3412C120.996 55.0767 122.895 54.0816 124.926 53.3834C125.903 55.4066 127.692 56.9625 129.883 57.6222V66.5066H112.843L112.838 66.5011ZM108.759 102.891C102.549 96.7114 99.1102 88.5087 99.0495 79.7728L99.1157 79.124V71.3447H165.425L165.359 79.5363C165.359 88.3548 161.909 96.6509 155.649 102.885C149.384 109.125 141.061 112.556 132.207 112.556C123.353 112.556 115.024 109.12 108.764 102.885L108.759 102.891ZM168.417 105.904H159.486C161.285 104.056 162.897 102.028 164.288 99.8451H168.417C172.799 99.8451 176.371 96.2936 176.371 91.9228C176.371 88.0689 173.594 84.8582 169.934 84.149C170.117 82.6371 170.227 81.0977 170.227 79.5363V78.0629C177.121 78.9536 182.453 84.8252 182.453 91.9173C182.453 99.6252 176.161 105.893 168.422 105.893L168.417 105.904Z" fill="#EDEBDF"/>
<path d="M174.18 70.5145V62.6307H171.155V55.9894C171.188 55.1537 171.304 51.0908 170.332 46.0824C170.139 45.0818 169.88 44.0867 169.56 43.0916C171.723 40.3097 174.135 35.917 174.135 30.2048V12.3755C174.135 7.50446 171.381 3.2052 166.943 1.16003C165.276 0.390338 163.51 0 161.694 0C158.774 0 155.92 1.05008 153.657 2.9633C147.552 8.12022 142.48 15.2178 138.555 24.0803H125.876C121.957 15.2233 116.879 8.12571 110.774 2.9633C108.516 1.05557 105.663 0 102.743 0C100.932 0 99.1658 0.390338 97.4933 1.16003C93.0554 3.2052 90.301 7.50446 90.301 12.3755V30.2048C90.301 35.917 92.7187 40.3097 94.8769 43.0971C94.5568 44.0922 94.2974 45.0928 94.1042 46.0879C93.6736 48.32 93.4528 50.3706 93.348 52.0255H93.2376V62.6417H90.3397V78.7117L90.2734 79.3659V79.5583C90.2734 102.578 109.074 121.308 132.185 121.308C140.597 121.308 148.684 118.823 155.655 114.106H168.4C174.345 114.106 179.931 111.803 184.137 107.613C188.338 103.424 190.656 97.8604 190.656 91.9393C190.656 81.719 183.778 73.0545 174.169 70.52L174.18 70.5145Z" fill="#EDEBDF"/>
<path d="M110.691 52.1299C112.33 52.1299 113.655 50.8105 113.655 49.1776C113.655 47.5448 112.33 46.2253 110.691 46.2253C109.051 46.2253 107.727 47.5448 107.727 49.1776C107.727 50.8105 109.051 52.1299 110.691 52.1299Z" fill="#274292"/>
<path d="M153.753 52.1299C155.393 52.1299 156.717 50.8105 156.717 49.1776C156.717 47.5448 155.393 46.2253 153.753 46.2253C152.114 46.2253 150.789 47.5448 150.789 49.1776C150.789 50.8105 152.114 52.1299 153.753 52.1299Z" fill="#274292"/>
<path d="M170.249 73.7362L170.288 66.5121H167.257C167.257 64.4944 167.268 55.7475 167.274 55.5221C167.307 54.351 167.307 50.9424 166.512 46.8191C166.209 45.2577 165.739 43.7458 165.121 42.3054C167.042 40.3097 170.249 36.0984 170.249 30.2048V12.3755C170.249 9.03284 168.361 6.08054 165.314 4.6786C162.256 3.27117 158.762 3.74398 156.19 5.9156C150.019 11.133 144.963 18.5385 141.154 27.9507H123.314C119.506 18.5385 114.45 11.1275 108.279 5.9156C105.706 3.74398 102.207 3.26568 99.1544 4.6786C96.113 6.08054 94.2197 9.03284 94.2197 12.3755V30.2048C94.2197 36.0929 97.4267 40.3042 99.3476 42.3054C98.7293 43.7513 98.2546 45.2632 97.9566 46.8246C97.0293 51.6076 97.1838 55.4176 97.2059 55.9069H97.1617V66.5231H94.2694V78.9041L94.2031 79.5583C94.2031 100.472 111.226 117.427 132.223 117.427C140.553 117.427 148.253 114.75 154.518 110.225H168.444C173.517 110.225 178.104 108.18 181.427 104.87C184.75 101.56 186.803 96.9918 186.803 91.9393C186.803 82.4557 179.555 74.6598 170.277 73.7417L170.249 73.7362ZM156.218 65.605C155.296 60.558 152.36 55.9509 147.955 52.6247C143.572 49.3206 137.98 47.5008 132.218 47.5008C126.455 47.5008 120.864 49.3206 116.481 52.6247C112.076 55.9454 109.14 60.558 108.218 65.605L108.058 66.5066H101.87V55.8904H101.859C101.842 55.4121 101.732 51.822 102.532 47.6932C103.543 42.4703 106.904 37.9127 111.75 35.1913L109.449 31.1229C106.352 32.8602 103.747 35.2078 101.765 37.9622C100.44 36.2798 98.8839 33.5914 98.8839 30.1883V12.359C98.8839 10.8306 99.7119 9.53864 101.097 8.9009C102.499 8.25216 104.039 8.46658 105.221 9.46167C111.11 14.4372 115.912 21.7162 119.5 31.1064L120.074 32.6073H144.345L144.919 31.1064C148.507 21.7217 153.314 14.4372 159.199 9.46167C160.38 8.46108 161.92 8.25216 163.322 8.9009C164.707 9.53864 165.535 10.8361 165.535 12.359V30.1883C165.535 33.5914 163.979 36.2798 162.654 37.9622C160.672 35.2078 158.067 32.8547 154.97 31.1229L152.669 35.1913C157.515 37.9127 160.871 42.4648 161.887 47.6932C162.527 51.0029 162.588 53.9662 162.571 55.2582C162.571 55.6375 162.56 64.4724 162.555 66.5011H156.361L156.201 65.5995L156.218 65.605ZM151.609 66.4406V66.5066H134.564V57.6222C136.755 56.9625 138.544 55.4066 139.521 53.3834C141.552 54.0871 143.451 55.0822 145.129 56.3412C148.595 58.9582 150.897 62.5427 151.609 66.4351M112.838 66.5011V66.4351C113.544 62.5427 115.846 58.9582 119.318 56.3412C120.996 55.0767 122.895 54.0816 124.926 53.3834C125.903 55.4066 127.692 56.9625 129.883 57.6222V66.5066H112.843L112.838 66.5011ZM108.759 102.891C102.549 96.7114 99.1102 88.5087 99.0495 79.7728L99.1157 79.124V71.3447H165.425L165.359 79.5363C165.359 88.3548 161.909 96.6509 155.649 102.885C149.384 109.125 141.061 112.556 132.207 112.556C123.353 112.556 115.024 109.12 108.764 102.885L108.759 102.891ZM168.417 105.904H159.486C161.285 104.056 162.897 102.028 164.288 99.8451H168.417C172.799 99.8451 176.371 96.2936 176.371 91.9228C176.371 88.0689 173.594 84.8582 169.934 84.149C170.117 82.6371 170.227 81.0977 170.227 79.5363V78.0629C177.121 78.9536 182.453 84.8252 182.453 91.9173C182.453 99.6252 176.161 105.893 168.422 105.893L168.417 105.904Z" fill="#274292"/>
</svg>
