<svg width="61" height="44" viewBox="0 0 61 44" fill="none" xmlns="http://www.w3.org/2000/svg">
<path d="M56.6052 0.500488H4.39481C1.968 0.500488 0 2.53165 0 5.03635V38.9646C0 41.4693 1.968 43.5005 4.39481 43.5005H56.6052C59.032 43.5005 61 41.4693 61 38.9646V5.03635C61 2.53165 59.032 0.500488 56.6052 0.500488ZM4.48271 24.4499C3.17218 24.4499 2.10951 23.3531 2.10951 22.0005C2.10951 20.6479 3.17218 19.5511 4.48271 19.5511C5.79324 19.5511 6.85591 20.6479 6.85591 22.0005C6.85591 23.3531 5.79324 24.4499 4.48271 24.4499ZM56.6052 39.01H9.14121V4.99099H56.6052V39.01Z" fill="#EDEBDF"/>
<path d="M19.3097 5.9281H10.9024C10.417 5.9281 10.0234 6.33426 10.0234 6.83527V20.1707C10.0234 20.6717 10.417 21.0779 10.9024 21.0779H19.3097C19.7951 21.0779 20.1886 20.6717 20.1886 20.1707V6.83527C20.1886 6.33426 19.7951 5.9281 19.3097 5.9281Z" fill="#EDEBDF"/>
<path d="M31.1456 5.9281H22.7383C22.2529 5.9281 21.8594 6.33426 21.8594 6.83527V18.5378C21.8594 19.0388 22.2529 19.445 22.7383 19.445H31.1456C31.6311 19.445 32.0246 19.0388 32.0246 18.5378V6.83527C32.0246 6.33426 31.6311 5.9281 31.1456 5.9281Z" fill="#EDEBDF"/>
<path d="M42.9816 5.9281H34.5743C34.0888 5.9281 33.6953 6.33426 33.6953 6.83527V22.3479C33.6953 22.8489 34.0888 23.2551 34.5743 23.2551H42.9816C43.467 23.2551 43.8605 22.8489 43.8605 22.3479V6.83527C43.8605 6.33426 43.467 5.9281 42.9816 5.9281Z" fill="#EDEBDF"/>
<path d="M54.8175 5.9281H46.4102C45.9248 5.9281 45.5312 6.33426 45.5312 6.83527V18.9914C45.5312 19.4924 45.9248 19.8986 46.4102 19.8986H54.8175C55.3029 19.8986 55.6965 19.4924 55.6965 18.9914V6.83527C55.6965 6.33426 55.3029 5.9281 54.8175 5.9281Z" fill="#EDEBDF"/>
<path d="M19.3097 24.3438H10.9024C10.417 24.3438 10.0234 24.7499 10.0234 25.2509V37.1957C10.0234 37.6967 10.417 38.1028 10.9024 38.1028H19.3097C19.7951 38.1028 20.1886 37.6967 20.1886 37.1957V25.2509C20.1886 24.7499 19.7951 24.3438 19.3097 24.3438Z" fill="#EDEBDF"/>
<path d="M31.1456 24.3438H22.7383C22.2529 24.3438 21.8594 24.7499 21.8594 25.2509V37.1957C21.8594 37.6967 22.2529 38.1028 22.7383 38.1028H31.1456C31.6311 38.1028 32.0246 37.6967 32.0246 37.1957V25.2509C32.0246 24.7499 31.6311 24.3438 31.1456 24.3438Z" fill="#EDEBDF"/>
<path d="M42.9816 24.3438H34.5743C34.0888 24.3438 33.6953 24.7499 33.6953 25.2509V37.1957C33.6953 37.6967 34.0888 38.1028 34.5743 38.1028H42.9816C43.467 38.1028 43.8605 37.6967 43.8605 37.1957V25.2509C43.8605 24.7499 43.467 24.3438 42.9816 24.3438Z" fill="#EDEBDF"/>
<path d="M54.8175 24.3438H46.4102C45.9248 24.3438 45.5312 24.7499 45.5312 25.2509V37.1957C45.5312 37.6967 45.9248 38.1028 46.4102 38.1028H54.8175C55.3029 38.1028 55.6965 37.6967 55.6965 37.1957V25.2509C55.6965 24.7499 55.3029 24.3438 54.8175 24.3438Z" fill="#EDEBDF"/>
</svg>
