<svg width="28" height="16" viewBox="0 0 28 16" fill="none" xmlns="http://www.w3.org/2000/svg">
<path d="M3.25609 13.4604C2.79894 13.2741 2.37566 13.1556 1.74921 12.7323C1.66455 12.6815 1.44445 12.4953 1.37672 12.4276C1.02116 12.1228 0.648679 11.835 0.580954 11.344C0.479366 10.5651 0.39471 9.76937 0.293123 8.99054C0.25926 8.68577 0.225398 8.39794 0.191536 8.09318C0.123811 7.61911 0.276192 7.19583 0.614816 6.89107C0.936509 6.60323 1.309 6.3662 1.66455 6.12916C1.78307 6.06143 1.83386 5.99371 1.81693 5.85826C1.74921 5.41805 1.73228 4.99477 1.64762 4.55456C1.5291 3.89424 1.71534 3.36937 2.25714 3.01381C2.74815 2.67519 3.28995 2.37043 3.84868 2.16725C5.5418 1.52387 7.30265 1.20217 9.09735 1.04979C10.7058 0.914344 12.1619 0.880481 13.7704 0.761963C13.872 0.761963 13.8381 0.761963 13.9228 0.761963C15.8868 0.761963 17.8508 0.880483 19.7979 1.16831C21.254 1.37149 22.6931 1.65932 24.0815 2.18419C24.7079 2.42122 25.3005 2.70905 25.7915 3.20006C26.0455 3.47096 26.1979 3.77572 26.181 4.14821C26.181 4.70694 26.181 5.26567 26.181 5.8244C26.181 5.97678 26.2317 6.0445 26.3503 6.12916C26.6889 6.34927 27.0106 6.56937 27.3153 6.82334C27.6709 7.1281 27.8064 7.53445 27.8064 8.00853C27.8064 9.04133 27.8064 10.0911 27.8064 11.1239C27.8064 11.5302 27.6878 11.6149 27.4847 11.9196C27.0275 12.4614 27.2138 12.2921 26.8074 12.5969C26.2825 12.9863 26.0624 13.0879 25.7407 13.2572C25.2328 13.5281 25.0296 13.5958 24.0815 13.9006C20.4921 14.7979 17.6307 15.6445 9.89312 14.9673C9.50371 14.9334 8.43704 14.8149 8.06455 14.7133L4.62752 13.9175C4.4582 13.8837 3.40847 13.5112 3.25609 13.4434V13.4604ZM27.4 8.78736C26.7397 9.41382 26.0116 9.75244 25.2328 10.0403C23.8275 10.5482 22.3714 10.853 20.8815 11.0731C19.0529 11.344 17.2074 11.4964 15.3619 11.5471C13.4995 11.5979 11.654 11.5471 9.79154 11.3948C8.18307 11.2593 6.5746 11.0561 5 10.7006C3.86561 10.4466 2.74815 10.1419 1.71535 9.60006C1.37672 9.41382 1.05503 9.19371 0.716403 8.99054C0.716403 9.0244 0.716403 9.07519 0.716403 9.10905C0.801059 9.7863 0.902646 10.4466 0.95344 11.1239C0.987302 11.4794 1.13968 11.7165 1.37672 11.9196C1.90159 12.3937 2.54497 12.6815 3.18836 12.9524C5.05079 13.7143 6.98095 14.1546 8.96191 14.4255C10.181 14.5948 11.4 14.6964 12.619 14.7641C14.7016 14.8826 16.7841 14.7979 18.8497 14.5609C20.3566 14.3916 21.8635 14.1207 23.3365 13.6805C24.5556 13.3249 25.7577 12.9186 26.7735 12.1397C27.163 11.835 27.4169 11.4794 27.3831 10.9546C27.3492 10.2604 27.3831 9.5662 27.3831 8.80429L27.4 8.78736ZM18.6466 6.23075C18.5788 5.97678 18.4603 5.7736 18.4772 5.5535C18.4772 5.19794 18.6466 4.89318 18.9513 4.67307C19.5439 4.26673 20.2212 4.18207 20.8984 4.30059C21.6265 4.43604 22.3376 4.67307 23.0487 4.85932C23.1333 4.87625 23.2519 4.91011 23.3026 4.85932C23.472 4.7408 23.6413 4.60535 23.7767 4.43604C23.963 4.21593 23.963 3.94503 23.7767 3.72493C23.6074 3.53868 23.4212 3.36937 23.2011 3.23392C22.3714 2.72598 21.4233 2.47202 20.4921 2.26884C18.8836 1.93022 17.2751 1.74397 15.6328 1.67625C13.8889 1.60852 12.145 1.62546 10.4011 1.8117C9.09736 1.94715 7.81058 2.11646 6.55767 2.47202C5.77884 2.69212 5 2.92916 4.33968 3.42017C3.78095 3.84345 3.78095 4.30059 4.32275 4.7408C4.35662 4.77466 4.40741 4.79159 4.44127 4.82546C5.16931 5.33339 6.01587 5.57043 6.86244 5.79053C9.0127 6.3154 11.1968 6.50165 13.4148 6.51858C14.7016 6.51858 15.9714 6.45085 17.2582 6.38313C17.7492 6.3662 18.2402 6.28154 18.6804 6.23075H18.6466ZM2.13863 5.11329C2.22328 5.72281 2.32487 6.29847 2.35873 6.89107C2.39259 7.36514 2.64656 7.63604 3.00212 7.89001C3.67937 8.36408 4.44127 8.66884 5.22011 8.92281C7.59048 9.70165 10.0286 10.0741 12.5005 10.1927C14.9048 10.3112 17.2921 10.1927 19.6624 9.80323C20.3566 9.68472 21.0508 9.53233 21.7619 9.37995C21.7619 9.27837 21.7619 9.21064 21.745 9.14292C21.6095 8.44874 21.4571 7.73762 21.3556 7.04344C21.3217 6.78948 21.2032 6.77255 21 6.80641C19.8825 6.95879 18.7651 7.14503 17.6476 7.24662C15.8868 7.41593 14.1259 7.43286 12.3651 7.38207C10.4011 7.33128 8.43704 7.14503 6.50688 6.75561C4.96614 6.45085 3.45926 6.07837 2.13863 5.11329ZM26.181 6.51858C26.181 6.68789 26.181 6.82334 26.181 6.94186C26.2148 7.399 26.0286 7.77149 25.6899 8.05932C25.3852 8.29636 25.0804 8.53339 24.7587 8.71964C23.8106 9.26144 22.8116 9.60006 21.745 9.8371C19.7471 10.2942 17.7153 10.5821 15.6667 10.6498C13.6349 10.7175 11.6032 10.6498 9.57143 10.362C7.96297 10.1249 6.37143 9.80323 4.84762 9.2445C4.08572 8.9736 3.34074 8.66884 2.68042 8.19477C2.25714 7.89001 1.93545 7.50059 1.96931 6.94186C1.96931 6.80641 1.93545 6.67096 1.90159 6.51858C1.49524 6.75562 1.12275 6.97572 0.834922 7.33128C0.53016 7.70376 0.547091 8.12704 0.868784 8.49953C1.27513 8.9736 1.81693 9.2445 2.37566 9.48154C3.51005 9.97255 4.69524 10.2604 5.89736 10.4974C7.75979 10.853 9.62222 11.0561 11.5185 11.1408C13.2963 11.2255 15.0741 11.2424 16.8688 11.1069C18.2571 10.9884 19.6286 10.8699 21.0169 10.6837C22.6085 10.4805 24.1831 10.1249 25.673 9.48154C26.2317 9.2445 26.7735 8.95667 27.1799 8.49953C27.4847 8.16091 27.5185 7.75456 27.2646 7.399C27.0106 7.02651 26.6381 6.80641 26.2148 6.55244L26.181 6.51858ZM23.709 5.13022C23.9291 5.2318 24.1153 5.31646 24.3185 5.40112C24.3524 5.40112 24.4201 5.40112 24.4709 5.40112C24.7926 5.21487 25.1143 5.04556 25.4021 4.80852C25.9439 4.36831 25.927 3.79265 25.3513 3.36937C25.0296 3.13233 24.6741 2.91223 24.3016 2.74292C22.7947 2.09953 21.2032 1.76091 19.5947 1.57466C18.2402 1.42228 16.8857 1.30376 15.5312 1.23604C13.8889 1.15138 12.2635 1.18524 10.6212 1.32069C9.62222 1.40535 8.64021 1.52387 7.6582 1.65932C6.25291 1.84556 4.88148 2.15032 3.57778 2.72599C3.13757 2.92916 2.71429 3.20006 2.3418 3.50482C1.88466 3.91117 1.95238 4.40217 2.42646 4.79159C2.86667 5.16408 3.39154 5.41805 3.93333 5.62122C4.88148 5.97678 5.88042 6.21382 6.87937 6.41699C8.75873 6.77255 10.655 6.92493 12.5513 6.99265C14.4307 7.04345 16.3101 6.99265 18.1894 6.82334C18.6804 6.77255 19.1545 6.70482 19.6286 6.65403C19.6286 6.6371 19.6286 6.60323 19.6286 6.5863C19.4931 6.5863 19.3577 6.55244 19.2222 6.56937C17.9862 6.68789 16.7503 6.8572 15.5143 6.908C13.6349 6.99265 11.7725 6.95879 9.91005 6.73868C8.53863 6.5863 7.18413 6.3662 5.88042 5.94292C5.18624 5.72281 4.49206 5.46884 3.93333 4.94397C3.34074 4.38524 3.35767 3.74186 3.98413 3.21699C4.59365 2.69212 5.32169 2.43815 6.06667 2.21805C8.13228 1.59159 10.2656 1.38842 12.3989 1.30376C14.4646 1.21911 16.5132 1.30376 18.5619 1.55773C19.8995 1.74397 21.2201 1.98101 22.473 2.43815C23.0656 2.65826 23.6582 2.92916 24.0815 3.4371C24.454 3.86038 24.437 4.40218 24.0476 4.80852C23.946 4.91011 23.8444 5.0117 23.7259 5.13022H23.709ZM23.0317 6.92493C23.0317 6.41699 23.0317 5.92598 23.0317 5.41805C23.0317 5.36725 22.9471 5.31646 22.8963 5.29953C22.473 5.14715 22.0667 5.0117 21.6434 4.87625C20.9661 4.67307 20.272 4.62228 19.5778 4.84239C19.2561 4.94397 19.0021 5.11329 18.9175 5.45191C18.8328 5.75667 19.0529 5.99371 19.3577 5.97678C20.0011 5.94292 20.6614 5.90905 21.3048 5.90905C21.7788 5.90905 22.236 6.01064 22.5746 6.38313C22.727 6.55244 22.8624 6.73868 23.0148 6.92493H23.0317ZM24.2847 8.55032C24.2847 8.55032 24.2677 8.49953 24.2508 8.46567C23.946 8.38101 23.6413 8.29636 23.3365 8.2117C23.1841 8.17784 23.1164 8.09318 23.0487 7.95773C22.8963 7.63604 22.7608 7.29741 22.5577 6.99265C22.4053 6.75561 22.1852 6.51858 21.9312 6.41699C21.4741 6.23075 20.9661 6.28154 20.4751 6.33233C20.8646 6.34926 21.254 6.38313 21.6434 6.40006C21.8127 7.36514 21.982 8.31329 22.1683 9.34609C22.8963 9.07519 23.5735 8.80429 24.2677 8.53339L24.2847 8.55032ZM25.0127 8.05932C25.5376 7.73763 25.8762 7.34821 25.8085 6.72175C25.7746 6.40006 25.8085 6.06144 25.8085 5.73974C25.8085 5.51964 25.8085 5.2826 25.8085 5.04556C25.5376 5.23181 25.3175 5.41805 25.0635 5.53657C24.7926 5.67202 24.691 5.80747 24.7587 6.12916C24.8773 6.75561 24.945 7.399 25.0296 8.07625L25.0127 8.05932ZM24.6063 8.12704C24.5217 7.399 24.437 6.72175 24.3355 6.0445C24.3355 5.97678 24.2847 5.87519 24.2339 5.85826C23.9799 5.75667 23.7259 5.68895 23.4889 5.62122C23.4889 6.34927 23.4889 7.06038 23.4889 7.77149C23.4889 7.80535 23.5397 7.87307 23.5735 7.89001C23.8952 7.97466 24.2339 8.05932 24.5894 8.16091L24.6063 8.12704Z" fill="#EEECDF"/>
</svg>
