<svg width="188" height="70" viewBox="0 0 188 70" fill="none" xmlns="http://www.w3.org/2000/svg">
<path d="M184.036 0.499512C186.243 0.499512 188 2.24705 188 4.48025C188 6.71346 186.243 8.48557 184.012 8.48557C181.781 8.48557 180 6.71346 180 4.48025C180 2.24705 181.78 0.499512 184.012 0.499512H184.036ZM183.988 1.30029C182.303 1.30029 180.997 2.73272 180.997 4.48025C180.997 6.22779 182.302 7.66022 184.035 7.66022C185.72 7.68479 187.002 6.25236 187.002 4.50482C187.002 2.75729 185.72 1.30173 184.011 1.30173H183.987L183.988 1.30029ZM183.394 6.54289H182.492V2.56215C182.849 2.51301 183.346 2.44074 183.988 2.44074C184.723 2.44074 185.057 2.56215 185.317 2.75584C185.555 2.9264 185.722 3.21694 185.722 3.60576C185.722 4.09143 185.365 4.40654 184.914 4.55252V4.60167C185.295 4.72309 185.484 5.03819 185.603 5.573C185.721 6.18009 185.816 6.39835 185.888 6.54434H184.938C184.82 6.39835 184.749 6.05867 184.63 5.573C184.559 5.16105 184.322 4.96592 183.823 4.96592H183.396V6.54289H183.394ZM183.418 4.30969H183.845C184.345 4.30969 184.747 4.13913 184.747 3.72718C184.747 3.36293 184.486 3.12009 183.916 3.12009C183.679 3.12009 183.513 3.14467 183.417 3.16924V4.30969H183.418Z" fill="#EDEBDF"/>
<path d="M86.0759 47.4015C83.9582 48.9307 77.2035 53.3899 67.6597 53.0184C64.9581 52.9129 57.6959 52.1815 50.9045 46.9274C45.7049 42.9033 42.6188 37.4655 40.4163 31.266C39.5935 28.949 38.9799 26.5568 38.2703 24.2051C38.177 23.8914 38.061 23.5907 37.8744 23.0501C36.9046 26.2084 36.0041 29.1282 35.1121 32.0523C33.3619 37.7734 31.5962 43.4944 29.8856 49.23C29.6297 50.0914 29.2254 50.3762 28.3602 50.3531C26.3344 50.2981 24.3057 50.301 22.2799 50.3574C21.4684 50.382 21.1475 50.0712 20.9185 49.3066C18.6099 41.5619 16.266 33.8259 13.9264 26.0899C13.8373 25.7878 13.7171 25.4987 13.4104 25.2212C12.999 27.3677 12.5833 29.517 12.172 31.6635C10.9689 37.9483 9.75029 44.2273 8.58257 50.5164C8.41999 51.4126 8.08212 51.7262 7.18583 51.6988C5.1911 51.6308 3.19637 51.6829 1.20306 51.6756C0.853875 51.6756 0.504691 51.6438 0 51.6164C0.260121 50.1016 0.48914 48.6966 0.740779 47.3003C2.30433 38.6074 3.87212 29.9203 5.44698 21.2318C6.17645 17.2005 6.94833 13.1778 7.65094 9.14357C7.77535 8.42519 8.05102 8.1997 8.72959 8.20693C11.0184 8.23873 13.3086 8.22716 15.5973 8.21415C16.1487 8.21415 16.4427 8.35725 16.6293 8.98746C19.3535 18.3496 22.1159 27.7001 24.8712 37.055C24.9829 37.4279 25.1115 37.7965 25.4607 38.2099C25.7208 37.3932 25.9965 36.5838 26.2411 35.7585C28.6741 27.5628 31.0943 19.3657 33.5245 11.1657C33.7295 10.4633 33.9981 9.77667 34.1295 9.05974C34.2539 8.38183 34.6031 8.21415 35.2153 8.22283C37.4729 8.24306 39.7278 8.24595 41.9826 8.20693C42.3332 8.20115 42.5707 8.26041 42.7347 8.40062C43.0415 8.66224 43.0669 9.10599 43.0768 9.2303C43.2055 10.9518 45.7756 23.6977 47.6219 29.7686C48.8956 33.9545 51.0303 37.8515 54.2479 40.7973C60.6929 46.6961 68.8132 46.5371 70.6185 46.4547C80.5215 46.0066 86.5933 39.3431 87.7582 38.0105C87.197 41.1413 86.6358 44.2721 86.0745 47.4029L86.0759 47.4015Z" fill="#EDEBDF"/>
<path d="M86.8602 21.6165H83.3119C83.3119 23.4695 82.9471 25.2156 82.2869 26.8114C81.2987 29.2021 79.6391 31.2474 77.5539 32.6871C75.4658 34.1268 72.9735 34.9637 70.2578 34.9651C68.4454 34.9651 66.7376 34.5922 65.1769 33.9172C62.8387 32.9068 60.8383 31.2099 59.4302 29.0778C58.0222 26.9429 57.2037 24.3946 57.2022 21.6179C57.2022 19.7649 57.567 18.0188 58.2272 16.423C59.2153 14.0323 60.875 11.987 62.9602 10.5473C65.0483 9.10765 67.5406 8.27074 70.2563 8.26929C72.0687 8.26929 73.7765 8.64221 75.3372 9.31723C77.6754 10.3276 79.6758 12.0245 81.0839 14.1566C82.4919 16.2915 83.3104 18.8398 83.3119 21.6165H90.4086C90.4086 18.782 89.8446 16.0617 88.8239 13.5957C87.2914 9.89396 84.7411 6.75447 81.5264 4.53428C78.3144 2.31263 74.4183 1.01174 70.2563 1.01318C67.4841 1.01318 64.8235 1.58992 62.4117 2.63352C58.7912 4.20038 55.7207 6.80795 53.5492 10.0949C51.3764 13.3789 50.1041 17.3626 50.1055 21.6179C50.1055 24.4524 50.6695 27.1727 51.6902 29.6387C53.2227 33.3404 55.773 36.4799 58.9877 38.7001C62.1997 40.9218 66.0958 42.2227 70.2578 42.2212C73.03 42.2212 75.6906 41.6445 78.1024 40.6009C81.7229 39.034 84.7934 36.4265 86.9649 33.1395C89.1377 29.8555 90.41 25.8719 90.4086 21.6165H86.8602Z" fill="#EDEBDF"/>
<path d="M175.689 47.4015C173.571 48.9307 166.817 53.3899 157.273 53.0184C154.571 52.9129 147.309 52.1815 140.518 46.9274C135.318 42.9033 132.232 37.4655 130.03 31.266C129.207 28.949 128.593 26.5568 127.884 24.2051C127.79 23.8914 127.674 23.5907 127.488 23.0501C126.518 26.2084 125.617 29.1282 124.725 32.0523C122.975 37.7734 121.209 43.4944 119.499 49.23C119.243 50.0914 118.839 50.3762 117.974 50.3531C115.948 50.2981 113.919 50.301 111.893 50.3574C111.082 50.382 110.761 50.0712 110.532 49.3066C108.223 41.5619 105.879 33.8259 103.54 26.0899C103.451 25.7878 103.33 25.4987 103.024 25.2212C102.612 27.3677 102.197 29.517 101.785 31.6635C100.582 37.9483 99.3636 44.2273 98.1958 50.5164C98.0333 51.4126 97.6954 51.7262 96.7991 51.6988C94.8044 51.6308 92.8097 51.6829 90.8163 51.6756C90.4672 51.6756 90.118 51.6438 89.6133 51.6164C89.8734 50.1016 90.1024 48.6966 90.3541 47.3003C91.9176 38.6074 93.4854 29.9203 95.0603 21.2318C95.7897 17.2005 96.5616 13.1778 97.2642 9.14357C97.3886 8.42519 97.6643 8.1997 98.3429 8.20693C100.632 8.23873 102.922 8.22716 105.211 8.21415C105.762 8.21415 106.056 8.35725 106.243 8.98746C108.967 18.3496 111.729 27.7001 114.484 37.055C114.596 37.4279 114.725 37.7965 115.074 38.2099C115.334 37.3932 115.61 36.5838 115.854 35.7585C118.287 27.5628 120.708 19.3657 123.138 11.1657C123.343 10.4633 123.611 9.77667 123.743 9.05974C123.867 8.38183 124.216 8.21415 124.829 8.22283C127.086 8.24306 129.341 8.24595 131.596 8.20693C131.947 8.20115 132.184 8.26041 132.348 8.40062C132.655 8.66224 132.68 9.10599 132.69 9.2303C132.819 10.9518 135.389 23.6977 137.235 29.7686C138.509 33.9545 140.644 37.8515 143.861 40.7973C150.306 46.6961 158.427 46.5371 160.232 46.4547C170.135 46.0066 176.207 39.3431 177.372 38.0105C176.81 41.1413 176.249 44.2721 175.688 47.4029L175.689 47.4015Z" fill="#EDEBDF"/>
<path d="M176.481 21.6165H172.933C172.933 23.4695 172.568 25.2156 171.908 26.8114C170.92 29.2021 169.26 31.2474 167.175 32.6871C165.087 34.1268 162.595 34.9637 159.879 34.9651C158.066 34.9651 156.359 34.5922 154.798 33.9172C152.46 32.9068 150.459 31.2099 149.051 29.0778C147.643 26.9429 146.825 24.3946 146.823 21.6179C146.823 19.7649 147.188 18.0188 147.848 16.423C148.836 14.0323 150.496 11.987 152.581 10.5473C154.669 9.10765 157.162 8.27074 159.877 8.26929C161.69 8.26929 163.398 8.64221 164.958 9.31723C167.297 10.3276 169.297 12.0245 170.705 14.1566C172.113 16.2915 172.932 18.8398 172.933 21.6165H180.03C180.03 18.782 179.466 16.0617 178.445 13.5957C176.913 9.89396 174.362 6.75447 171.147 4.53428C167.936 2.31263 164.039 1.01174 159.877 1.01318C157.105 1.01318 154.445 1.58992 152.033 2.63352C148.412 4.20038 145.342 6.80795 143.17 10.0949C140.997 13.3789 139.725 17.3626 139.727 21.6179C139.727 24.4524 140.291 27.1727 141.311 29.6387C142.844 33.3404 145.394 36.4799 148.609 38.7001C151.821 40.9218 155.717 42.2227 159.879 42.2212C162.651 42.2212 165.312 41.6445 167.723 40.6009C171.344 39.034 174.415 36.4265 176.586 33.1395C178.759 29.8555 180.031 25.8719 180.03 21.6165H176.481Z" fill="#EDEBDF"/>
<path d="M63.541 69.491C63.0419 69.491 62.5754 69.4013 62.14 69.2207C61.7045 69.0414 61.3256 68.7914 61.0033 68.4705C60.6795 68.1496 60.4279 67.7752 60.2455 67.3474C60.0631 66.9195 59.9727 66.4555 59.9727 65.9583C59.9727 65.4611 60.0645 64.9985 60.2455 64.5707C60.4279 64.1428 60.6824 63.7656 61.0089 63.4418C61.3355 63.118 61.7144 62.8665 62.1456 62.6858C62.5768 62.5066 63.0433 62.4155 63.5424 62.4155C63.9128 62.4155 64.2719 62.4676 64.6169 62.5731C64.9618 62.6772 65.2842 62.8246 65.581 63.0139C65.8779 63.2033 66.1324 63.4331 66.3445 63.7005L65.4043 64.643C65.1682 64.3351 64.8897 64.1052 64.5688 63.9506C64.2493 63.7974 63.9072 63.7208 63.5424 63.7208C63.2413 63.7208 62.9599 63.7786 62.6984 63.8928C62.4354 64.007 62.2092 64.1645 62.017 64.364C61.8247 64.5635 61.6748 64.7976 61.566 65.065C61.4571 65.3339 61.4034 65.6302 61.4034 65.9583C61.4034 66.2864 61.4599 66.5654 61.5716 66.8371C61.6833 67.1089 61.8374 67.3445 62.0325 67.5439C62.2276 67.7434 62.458 67.8995 62.7238 68.0094C62.9896 68.1207 63.2823 68.1756 63.6018 68.1756C63.9538 68.1756 64.2832 68.1004 64.59 67.9501C64.8968 67.7998 65.1654 67.5844 65.3958 67.3026L66.2978 68.2248C66.0872 68.4864 65.8355 68.7119 65.5443 68.9012C65.2531 69.0906 64.935 69.2366 64.59 69.3377C64.245 69.4389 63.8958 69.4895 63.5438 69.4895L63.541 69.491Z" fill="#EDEBDF"/>
<path d="M74.5872 69.5006C74.0881 69.5006 73.623 69.4109 73.1904 69.2303C72.7592 69.051 72.3803 68.7981 72.058 68.4743C71.7342 68.1505 71.4826 67.7747 71.3002 67.3454C71.1178 66.9176 71.0273 66.4536 71.0273 65.9563C71.0273 65.4591 71.1192 64.9966 71.3002 64.5687C71.4826 64.1409 71.7356 63.7636 72.058 63.4398C72.3803 63.1161 72.7592 62.8646 73.1904 62.6839C73.623 62.5046 74.0881 62.4136 74.5872 62.4136C75.0863 62.4136 75.5415 62.5032 75.9741 62.6839C76.4053 62.8646 76.7828 63.1161 77.1065 63.4398C77.4289 63.7636 77.6805 64.1394 77.8601 64.5687C78.0396 64.9966 78.1287 65.4606 78.1287 65.9563C78.1287 66.4521 78.0396 66.9161 77.8601 67.3454C77.6805 67.7733 77.4303 68.1505 77.1065 68.4743C76.7828 68.7981 76.4053 69.0496 75.9741 69.2303C75.5415 69.4095 75.0792 69.5006 74.5872 69.5006ZM74.5872 68.1953C74.8883 68.1953 75.1668 68.1375 75.4227 68.0233C75.6786 67.9091 75.902 67.7516 76.0943 67.5521C76.2865 67.3526 76.4364 67.1156 76.5453 66.841C76.6541 66.5663 76.7078 66.2715 76.7078 65.9578C76.7078 65.6441 76.6541 65.3334 76.5453 65.0645C76.4364 64.7971 76.2865 64.5629 76.0943 64.3635C75.902 64.164 75.6786 64.0065 75.4227 63.8923C75.1668 63.7781 74.8912 63.7203 74.5971 63.7203C74.303 63.7203 74.0076 63.7781 73.7474 63.8923C73.4887 64.0065 73.2625 64.164 73.0702 64.3635C72.878 64.5629 72.7281 64.7971 72.6192 65.0645C72.5104 65.3334 72.4567 65.6239 72.4567 65.9376C72.4567 66.2512 72.5104 66.5649 72.6192 66.8395C72.7281 67.1141 72.878 67.3512 73.0702 67.5507C73.2625 67.7501 73.4873 67.9077 73.7474 68.0219C74.0061 68.1361 74.2861 68.1939 74.5872 68.1939V68.1953Z" fill="#EDEBDF"/>
<path d="M83.3945 69.3917V62.5229H88.576V63.7588H84.7857V65.3777H87.3092V66.5644H84.7857V69.3902H83.3945V69.3917Z" fill="#EDEBDF"/>
<path d="M93.8477 69.3917V62.5229H99.0291V63.7588H95.2388V65.3777H97.7624V66.5644H95.2388V69.3902H93.8477V69.3917Z" fill="#EDEBDF"/>
<path d="M104.289 69.3917V62.5229H109.452V63.7588H105.68V65.3285H108.166V66.5153H105.68V68.1544H109.49V69.3902H104.289V69.3917Z" fill="#EDEBDF"/>
<path d="M114.805 69.3917V62.5229H119.968V63.7588H116.196V65.3285H118.681V66.5153H116.196V68.1544H120.006V69.3902H114.805V69.3917Z" fill="#EDEBDF"/>
</svg>
