<svg width="80" height="80" viewBox="0 0 80 80" fill="none" xmlns="http://www.w3.org/2000/svg">
<path d="M79.8542 19.0972L74.14 1.95435C73.7512 0.786997 72.6589 -0.000334714 71.4286 1.06748e-07H8.57142C7.34112 -0.000334714 6.24877 0.786997 5.86004 1.95435L0.145647 19.0972C0.0575892 19.364 0.00837053 19.6421 0 19.9229C0 19.9515 0 19.9714 0 20V22.8572C0.0103795 27.3338 2.12729 31.5445 5.71423 34.2229C5.71423 34.2458 5.71423 34.2629 5.71423 34.2857V71.4286C5.71423 76.1624 9.55178 80 14.2856 80H65.7142C70.4481 80 74.2856 76.1624 74.2856 71.4286V34.2857C74.2856 34.2628 74.2856 34.2457 74.2856 34.2229C77.8725 31.5445 79.9896 27.3338 79.9998 22.8572V20C79.9998 19.9714 79.9998 19.9515 79.9998 19.9229C79.9915 19.642 79.9424 19.3639 79.8542 19.0972ZM60 5.71423H69.3686L73.18 17.1428H60V5.71423ZM42.8571 5.71423H54.2857V17.1428H42.8571V5.71423ZM25.7143 5.71423H37.1429V17.1428H25.7143V5.71423ZM10.6314 5.71423H20V17.1428H6.81997L10.6314 5.71423ZM45.7143 74.2856H34.2857V51.4285H45.7143V74.2856ZM68.5714 71.4286C68.5714 73.0066 67.2922 74.2858 65.7142 74.2858H51.4285V48.5715C51.4285 46.9935 50.1493 45.7143 48.5713 45.7143H31.4285C29.8505 45.7143 28.5713 46.9935 28.5713 48.5715V74.2858H14.2856C12.7076 74.2858 11.4285 73.0066 11.4285 71.4286V36.8571C15.4381 37.6803 19.6076 36.7234 22.8571 34.2343C27.9574 37.9803 34.8996 37.9803 39.9999 34.2343C45.1002 37.9803 52.0424 37.9803 57.1428 34.2343C60.3922 36.7235 64.5617 37.6803 68.5714 36.8571V71.4286ZM65.7142 31.4285C63.2434 31.427 60.8971 30.3432 59.2942 28.4628C58.2559 27.2747 56.4509 27.1532 55.2627 28.1914C55.1663 28.2757 55.0756 28.3664 54.9914 28.4628C51.8144 32.0086 46.3649 32.3074 42.8191 29.1306C42.5846 28.9203 42.3616 28.6975 42.1513 28.4628C41.0332 27.2747 39.1635 27.2178 37.9753 28.3361C37.9317 28.3771 37.8894 28.4193 37.8485 28.4628C34.6717 32.0086 29.222 32.3074 25.6763 29.1306C25.4416 28.9203 25.2187 28.6975 25.0085 28.4628C23.8903 27.2747 22.0205 27.2178 20.8324 28.3361C20.7889 28.3771 20.7465 28.4193 20.7057 28.4628C19.1027 30.3432 16.7566 31.427 14.2856 31.4285C9.55178 31.4285 5.71423 27.5909 5.71423 22.8571H74.2856C74.2856 27.5909 70.4481 31.4285 65.7142 31.4285Z" fill="#EDEBDF"/>
</svg>
