<svg width="80" height="81" viewBox="0 0 80 81" fill="none" xmlns="http://www.w3.org/2000/svg">
<path d="M56.3629 22.7534C57.3186 22.7521 58.2636 22.5507 59.1368 22.1623C60.0101 21.774 60.7924 21.2071 61.4335 20.4982C62.0746 19.7893 62.5602 18.9541 62.8591 18.0463C63.158 17.1385 63.2637 16.1782 63.1692 15.2271C62.9489 13.5056 62.1013 11.9259 60.7887 10.7904C59.4761 9.65495 57.7908 9.04355 56.0556 9.0733H12.1472C10.4119 9.04357 8.72658 9.65497 7.41402 10.7904C6.10146 11.9259 5.25387 13.5057 5.03354 15.2272C4.93907 16.1782 5.0447 17.1386 5.34362 18.0464C5.64255 18.9542 6.12816 19.7894 6.76923 20.4983C7.4103 21.2071 8.19263 21.774 9.06592 22.1624C9.9392 22.5508 10.8841 22.7521 11.8399 22.7534L11.8443 22.75V59.183C11.8443 60.1776 12.2394 61.1314 12.9426 61.8347C13.6459 62.5379 14.5997 62.933 15.5943 62.933H52.6078C53.6024 62.933 54.5562 62.5379 55.2595 61.8347C55.9627 61.1314 56.3578 60.1776 56.3578 59.183V22.7499" stroke="#EDEBDF" stroke-width="2.5" stroke-linecap="round" stroke-linejoin="round"/>
<path d="M63.0242 14.4021H68.1492L68.1617 14.3896C70.0358 14.4593 71.8064 15.2672 73.0872 16.637C74.3681 18.0069 75.0554 19.8276 74.9992 21.7021C75.055 23.5754 74.3672 25.3946 73.0861 26.7624C71.805 28.1302 70.0346 28.9354 68.1617 29.0021H68.1492V68.1771C68.1492 69.1717 67.7541 70.1255 67.0509 70.8288C66.3476 71.5321 65.3938 71.9271 64.3992 71.9271H27.3492C26.3646 71.9271 25.4203 71.536 24.7241 70.8398C24.0279 70.1436 23.6367 69.1993 23.6367 68.2146" stroke="#EDEBDF" stroke-width="2.5" stroke-linecap="round" stroke-linejoin="round"/>
<path d="M17.3125 14.542L19.8749 17.4537" stroke="#EDEBDF" stroke-width="2.5" stroke-linecap="round" stroke-linejoin="round"/>
<path d="M32.4531 18.3857L35.1902 21.1228" stroke="#EDEBDF" stroke-width="2.5" stroke-linecap="round" stroke-linejoin="round"/>
<path d="M47.2422 16.522L49.6881 14.0762" stroke="#EDEBDF" stroke-width="2.5" stroke-linecap="round" stroke-linejoin="round"/>
<path d="M69.274 23.0162L66.8281 20.5703" stroke="#EDEBDF" stroke-width="2.5" stroke-linecap="round" stroke-linejoin="round"/>
<path d="M43.3987 28.5186L41.5352 31.1974" stroke="#EDEBDF" stroke-width="2.5" stroke-linecap="round" stroke-linejoin="round"/>
<path d="M24.067 28.4023L21.6211 31.3141" stroke="#EDEBDF" stroke-width="2.5" stroke-linecap="round" stroke-linejoin="round"/>
<path d="M30.7031 38.3018L34.0993 40.8641" stroke="#EDEBDF" stroke-width="2.5" stroke-linecap="round" stroke-linejoin="round"/>
<path d="M21.7383 48.4346L24.3006 51.1134" stroke="#EDEBDF" stroke-width="2.5" stroke-linecap="round" stroke-linejoin="round"/>
<path d="M40.3711 53.793L42.4676 51.5801" stroke="#EDEBDF" stroke-width="2.5" stroke-linecap="round" stroke-linejoin="round"/>
<path d="M45.3789 41.9124L48.4654 39.583" stroke="#EDEBDF" stroke-width="2.5" stroke-linecap="round" stroke-linejoin="round"/>
<path d="M56.3633 24.333C57.9359 24.3339 59.4442 24.9577 60.5579 26.0681C61.6716 27.1784 62.3001 28.6848 62.3057 30.2574C62.3079 31.1536 62.1052 32.0384 61.7132 32.8443C61.3211 33.6502 60.75 34.3558 60.0436 34.9072" stroke="#EDEBDF" stroke-width="2.5" stroke-linecap="round" stroke-linejoin="round"/>
<path d="M60.1686 46.5586H60.1866C61.5336 46.2768 62.7409 45.5359 63.602 44.4625C64.4632 43.3891 64.9247 42.0499 64.9077 40.6738C64.8908 39.2978 64.3964 37.9704 63.509 36.9185C62.6217 35.8667 61.3965 35.1557 60.043 34.9072" stroke="#EDEBDF" stroke-width="2.5" stroke-linecap="round" stroke-linejoin="round"/>
<path d="M60.1692 46.5586H60.1872C61.3294 47.2031 62.2258 48.208 62.736 49.4162C63.2463 50.6243 63.3416 51.9676 63.0072 53.2357C62.6727 54.5038 61.9273 55.6253 60.8875 56.4247C59.8478 57.224 58.5724 57.6561 57.2609 57.6534C56.9601 57.657 56.6597 57.633 56.3633 57.5816" stroke="#EDEBDF" stroke-width="2.5" stroke-linecap="round" stroke-linejoin="round"/>
<path d="M51.8938 62.9316C51.7537 64.2399 51.1837 65.4647 50.2731 66.4144C49.3624 67.3641 48.1626 67.985 46.8614 68.18C45.5602 68.375 44.2311 68.133 43.0821 67.4919C41.9331 66.8508 41.0292 65.8469 40.5117 64.6372V64.6192" stroke="#EDEBDF" stroke-width="2.5" stroke-linecap="round" stroke-linejoin="round"/>
<path d="M17.1172 62.9316C17.2687 64.3916 17.9567 65.7434 19.0479 66.7252C20.1391 67.7069 21.5558 68.2488 23.0237 68.2457C23.2212 68.2457 23.4366 68.2277 23.6341 68.2098C24.5105 68.1186 25.3554 67.8327 26.1071 67.373C26.8588 66.9133 27.4982 66.2914 27.9787 65.5527" stroke="#EDEBDF" stroke-width="2.5" stroke-linecap="round" stroke-linejoin="round"/>
<path d="M27.9805 65.5527C28.5189 66.8312 29.4447 67.9087 30.6277 68.6334C31.8106 69.3581 33.191 69.6935 34.5746 69.5924C35.9582 69.4913 37.2752 68.9588 38.3403 68.0699C39.4053 67.1809 40.1647 65.9803 40.5116 64.6371V64.6191" stroke="#EDEBDF" stroke-width="2.5" stroke-linecap="round" stroke-linejoin="round"/>
<path d="M60.0039 66.8121L62.4498 64.3662" stroke="#EDEBDF" stroke-width="2.5" stroke-linecap="round" stroke-linejoin="round"/>
</svg>
