<svg width="48" height="48" viewBox="0 0 48 48" fill="none" xmlns="http://www.w3.org/2000/svg">
<rect width="48" height="48" transform="translate(-0.5)" fill="#2E418E"/>
<path d="M15.6031 40.7872C15.4 40.6687 15.1968 40.584 15.0105 40.4486C14.6211 40.1438 14.5195 39.7205 14.5195 39.2464C14.5195 37.6718 14.5195 36.0972 14.5195 34.5226C14.5195 29.7142 14.5365 24.9057 14.5195 20.0972C14.5195 18.9628 14.7396 18.0486 15.9418 17.6253C15.6201 17.2189 15.5862 16.7618 15.6031 16.3046C15.6031 15.9152 15.6031 15.5427 15.6031 15.1533C15.637 14.3914 16.1619 13.8327 16.9238 13.7988C17.4486 13.7819 17.9735 13.7988 18.5322 13.7988C18.6 13.3755 18.6677 12.9523 18.7185 12.529C18.9386 10.9374 19.1587 9.34591 19.3788 7.75437C19.4296 7.34802 19.6158 7.17871 20.0391 7.17871C20.31 7.17871 20.5809 7.17871 20.8518 7.17871C21.2243 7.17871 21.4105 7.34802 21.4783 7.72051C21.7153 9.44749 21.9693 11.1745 22.2063 12.9184C22.2402 13.2062 22.291 13.4771 22.3418 13.7819H23.7301C24.746 13.7819 25.2878 14.3237 25.2878 15.3396C25.2878 15.729 25.3216 16.1353 25.2878 16.5247C25.2539 16.8803 25.1523 17.2359 25.0846 17.5914C25.0507 17.5914 25.0169 17.5914 24.983 17.5914C25.1354 17.6761 25.3047 17.7607 25.4571 17.8623C25.9989 18.2009 26.3206 18.6919 26.3545 19.3353C26.3545 19.5046 26.3545 19.6909 26.3545 19.8602C26.3545 26.2433 26.3545 32.6263 26.3545 39.0094C26.3545 39.856 26.1005 40.4655 25.2709 40.7702H15.5523L15.6031 40.7872ZM25.3216 29.4094C25.3216 26.1586 25.3216 22.9078 25.3216 19.674C25.3216 19.1829 25.1523 18.8613 24.6952 18.6581C24.4243 18.5396 24.1703 18.3702 23.8994 18.2687C23.6624 18.184 23.4084 18.0993 23.1545 18.0993C21.6137 18.0993 20.073 18.1163 18.5322 18.0824C17.7026 18.0655 16.9746 18.2009 16.2634 18.6242C15.8063 18.8951 15.5693 19.1829 15.5693 19.7247C15.5693 26.2094 15.5693 32.6941 15.5693 39.1787C15.5693 39.6866 15.6201 39.7374 16.128 39.7374H24.7291C25.2539 39.7374 25.3047 39.6866 25.3047 39.1449V29.4094H25.3216ZM19.6328 13.7819C19.8359 13.7988 20.0052 13.7988 20.1576 13.8327C20.3947 13.8835 20.564 14.0697 20.547 14.2898C20.5301 14.4591 20.3947 14.6623 20.2592 14.7808C20.1576 14.8655 19.9714 14.8486 19.819 14.8486C18.9047 14.8486 18.0074 14.8486 17.0931 14.8486C16.7883 14.8486 16.6529 14.984 16.6529 15.2888C16.6529 15.729 16.6529 16.1692 16.6529 16.6094C16.6529 16.9142 16.7883 17.0496 17.0931 17.0496C19.328 17.0496 21.5798 17.0496 23.8148 17.0496C24.1195 17.0496 24.255 16.8972 24.255 16.6094C24.255 16.1861 24.255 15.7628 24.255 15.3226C24.255 14.9501 24.1534 14.8655 23.7809 14.8655C23.2052 14.8655 22.6465 14.8655 22.0709 14.8655C21.5798 14.8655 21.4105 14.747 21.3428 14.256C21.1227 12.766 20.9195 11.2761 20.7164 9.78612C20.6486 9.27818 20.564 8.78718 20.4963 8.27924H20.3947C20.1407 10.1078 19.8867 11.9364 19.6158 13.7819H19.6328Z" fill="#EEECDF"/>
<path d="M25.3214 29.4093V39.1448C25.3214 39.6696 25.2706 39.7373 24.7457 39.7373H16.1447C15.6367 39.7373 15.5859 39.6865 15.5859 39.1786C15.5859 32.694 15.5859 26.2093 15.5859 19.7246C15.5859 19.1828 15.806 18.8781 16.2801 18.6241C16.9912 18.2178 17.7362 18.0654 18.5489 18.0823C20.0896 18.1331 21.6304 18.0823 23.1711 18.0992C23.4251 18.0992 23.6791 18.1839 23.9161 18.2686C24.187 18.3701 24.441 18.5395 24.7119 18.658C25.1521 18.8612 25.3383 19.1828 25.3383 19.6738C25.3383 22.9246 25.3383 26.1754 25.3383 29.4093H25.3214ZM23.5944 26.0569V31.2379C23.5944 31.3564 23.5944 31.4749 23.6113 31.5934C23.6621 31.8474 23.8314 31.9998 24.0854 31.9998C24.3563 31.9998 24.5426 31.8813 24.6103 31.6104C24.6441 31.4918 24.6272 31.3733 24.6272 31.2548V20.9268C24.6272 20.8252 24.6272 20.7067 24.6272 20.6051C24.5595 20.3172 24.3902 20.1649 24.1023 20.1818C23.8314 20.1818 23.6621 20.3511 23.6113 20.622C23.5944 20.7236 23.6113 20.8421 23.6113 20.9437V26.0569H23.5944ZM24.6441 34.2008C24.6441 34.0146 24.6441 33.8283 24.6441 33.6421C24.6272 33.3543 24.4071 33.1511 24.1362 33.1342C23.8484 33.1342 23.6113 33.3373 23.6113 33.6421C23.6113 34.0146 23.6113 34.3871 23.6113 34.7596C23.6113 35.0474 23.8484 35.2506 24.1193 35.2675C24.3902 35.2675 24.6272 35.0643 24.6611 34.7596C24.6611 34.5733 24.6611 34.3871 24.6611 34.2008H24.6441Z" fill="#30428F"/>
<path d="M19.6309 13.7819C19.8849 11.9364 20.1558 10.1079 20.4098 8.2793H20.5114C20.5791 8.78723 20.6637 9.27824 20.7315 9.78618C20.9346 11.2761 21.1547 12.7661 21.3579 14.256C21.4256 14.7301 21.595 14.8655 22.086 14.8655H23.796C24.1685 14.8655 24.2701 14.9502 24.2701 15.3227C24.2701 15.746 24.2701 16.1692 24.2701 16.6095C24.2701 16.8973 24.1346 17.0497 23.8299 17.0497C21.595 17.0497 19.3431 17.0497 17.1082 17.0497C16.8034 17.0497 16.668 16.9142 16.668 16.6095C16.668 16.1692 16.668 15.729 16.668 15.2888C16.668 14.9841 16.8034 14.8486 17.1082 14.8486C18.0225 14.8486 18.9198 14.8486 19.8341 14.8486C19.9865 14.8486 20.1727 14.8486 20.2743 14.7809C20.4098 14.6624 20.5452 14.4592 20.5621 14.2899C20.5791 14.0698 20.4267 13.8835 20.1727 13.8327C20.0203 13.7989 19.851 13.7989 19.6479 13.7819H19.6309Z" fill="#30428F"/>
<path d="M23.611 26.0568V20.9435C23.611 20.842 23.611 20.7234 23.611 20.6219C23.6618 20.351 23.8311 20.1986 24.102 20.1816C24.3898 20.1816 24.5761 20.334 24.6269 20.6049C24.6438 20.7065 24.6269 20.825 24.6269 20.9266V31.2547C24.6269 31.3732 24.6269 31.4917 24.61 31.6102C24.5422 31.8811 24.356 32.0166 24.0851 31.9996C23.8142 31.9996 23.6618 31.8303 23.611 31.5933C23.5771 31.4748 23.5941 31.3562 23.5941 31.2377V26.0568H23.611Z" fill="#EEECDF"/>
<path d="M24.6601 34.2014C24.6601 34.3876 24.6601 34.5739 24.6601 34.7601C24.6432 35.0649 24.4061 35.285 24.1183 35.268C23.8474 35.268 23.6273 35.0479 23.6104 34.7601C23.5934 34.3876 23.5934 34.0151 23.6104 33.6426C23.6104 33.3379 23.8643 33.1178 24.1352 33.1347C24.4061 33.1347 24.6093 33.3548 24.6432 33.6426C24.6432 33.8289 24.6432 34.0151 24.6432 34.2014H24.6601Z" fill="#EEECDF"/>
<path d="M22.3388 40.7876C22.1525 40.6861 21.9494 40.6014 21.797 40.466C21.4414 40.1781 21.3398 39.7887 21.3398 39.3485C21.3398 37.8755 21.3398 36.4025 21.3398 34.9125C21.3398 30.3919 21.3568 25.8882 21.3398 21.3675C21.3398 20.3009 21.5599 19.4543 22.6774 19.048C22.3726 18.6585 22.3557 18.2353 22.3557 17.812C22.3557 17.4564 22.3557 17.1009 22.3557 16.7284C22.3896 16.0173 22.8806 15.4924 23.6086 15.4585C24.0996 15.4416 24.5906 15.4585 25.1155 15.4585C25.1832 15.0522 25.234 14.6628 25.3017 14.2734C25.5049 12.7834 25.725 11.2935 25.9282 9.80352C25.979 9.4141 26.1483 9.26172 26.5377 9.26172C26.7917 9.26172 27.0457 9.26172 27.2996 9.26172C27.6552 9.26172 27.8245 9.43103 27.8753 9.76966C28.1123 11.3951 28.3324 13.0204 28.5525 14.6458C28.5864 14.9167 28.6372 15.1707 28.6711 15.4585H29.9748C30.9398 15.4585 31.4309 15.9665 31.4478 16.9146C31.4478 17.2871 31.4816 17.6596 31.4478 18.0152C31.4139 18.3538 31.3293 18.6755 31.2615 19.0141C31.2277 19.0141 31.1938 19.0141 31.1769 19.0141C31.3293 19.0988 31.4816 19.1834 31.6171 19.2681C32.125 19.5898 32.4298 20.0469 32.4637 20.6564C32.4637 20.8257 32.4637 20.9781 32.4637 21.1474C32.4637 27.1411 32.4637 33.1347 32.4637 39.1115C32.4637 39.9242 32.2266 40.4829 31.4478 40.7707H22.3388V40.7876ZM31.4647 30.121C31.4647 27.0734 31.4647 24.0257 31.4647 20.9781C31.4647 20.521 31.2954 20.2162 30.8721 20.03C30.6182 19.9284 30.3811 19.7591 30.1271 19.6744C29.907 19.5898 29.67 19.5051 29.433 19.5051C27.9938 19.5051 26.5377 19.522 25.0986 19.4882C24.3197 19.4712 23.6425 19.6067 22.9652 19.9961C22.525 20.2331 22.3219 20.521 22.3219 21.0289C22.3219 27.1072 22.3219 33.2025 22.3219 39.2808C22.3219 39.7548 22.3726 39.8056 22.8467 39.8056H30.906C31.397 39.8056 31.4478 39.7548 31.4478 39.2638V30.121H31.4647ZM26.1314 15.4585C26.3176 15.4755 26.47 15.4755 26.6224 15.5093C26.8594 15.5601 27.0118 15.7294 26.9779 15.9326C26.961 16.1019 26.8425 16.2882 26.707 16.4067C26.6224 16.4913 26.4361 16.4744 26.3007 16.4744C25.4541 16.4744 24.5906 16.4744 23.7441 16.4744C23.4562 16.4744 23.3377 16.6099 23.3377 16.8808C23.3377 17.2871 23.3377 17.7104 23.3377 18.1167C23.3377 18.4046 23.4732 18.5231 23.7441 18.5231C25.8435 18.5231 27.943 18.5231 30.0594 18.5231C30.3472 18.5231 30.4658 18.3876 30.4658 18.1167C30.4658 17.7104 30.4658 17.321 30.4658 16.9146C30.4658 16.576 30.3811 16.4913 30.0256 16.4913C29.5007 16.4913 28.9589 16.4913 28.434 16.4913C27.9769 16.4913 27.8245 16.3728 27.7568 15.9157C27.5536 14.5104 27.3674 13.122 27.1642 11.7167C27.0965 11.2427 27.0287 10.7855 26.961 10.3115H26.8764C26.6393 12.0215 26.4023 13.7316 26.1483 15.4755L26.1314 15.4585Z" fill="#EEECDF"/>
<path d="M31.4658 30.1205V39.2634C31.4658 39.7713 31.415 39.8052 30.924 39.8052H22.8647C22.3906 39.8052 22.3398 39.7544 22.3398 39.2803C22.3398 33.202 22.3398 27.1068 22.3398 21.0285C22.3398 20.5205 22.5599 20.2327 22.9832 19.9957C23.6605 19.6062 24.3547 19.4708 25.1166 19.4877C26.5557 19.5216 28.0118 19.4877 29.451 19.5047C29.688 19.5047 29.925 19.5893 30.1451 19.674C30.3991 19.7756 30.6361 19.9279 30.8901 20.0295C31.3134 20.2158 31.4827 20.5205 31.4827 20.9777C31.4827 24.0253 31.4827 27.0729 31.4827 30.1205H31.4658ZM29.8573 26.9713V31.8306C29.8573 31.9491 29.8573 32.0507 29.8573 32.1692C29.9081 32.4062 30.0605 32.5417 30.3144 32.5586C30.5684 32.5586 30.7547 32.4401 30.8224 32.1861C30.8562 32.0845 30.8393 31.966 30.8393 31.8475V22.1629C30.8393 22.0613 30.8393 21.9597 30.8393 21.8581C30.7885 21.5872 30.6192 21.4517 30.3314 21.4517C30.0774 21.4517 29.925 21.6041 29.8742 21.8581C29.8573 21.9597 29.8742 22.0613 29.8742 22.1629V26.9544L29.8573 26.9713ZM30.8393 34.6073C30.8393 34.438 30.8393 34.2517 30.8393 34.0824C30.8224 33.8115 30.6192 33.6084 30.3652 33.6084C30.0943 33.6084 29.8742 33.7946 29.8573 34.0824C29.8573 34.438 29.8573 34.7766 29.8573 35.1322C29.8573 35.4031 30.0774 35.6062 30.3314 35.6062C30.5853 35.6062 30.8055 35.4031 30.8393 35.1322C30.8393 34.9629 30.8393 34.7766 30.8393 34.6073Z" fill="#30428F"/>
<path d="M26.1153 15.4414C26.3523 13.7144 26.6063 12.0043 26.8433 10.2773H26.928C26.9957 10.7514 27.0634 11.2086 27.1311 11.6826C27.3343 13.0879 27.5206 14.4763 27.7237 15.8816C27.7915 16.3387 27.9438 16.4403 28.401 16.4572H29.9925C30.3481 16.4572 30.4327 16.5419 30.4327 16.8805C30.4327 17.2869 30.4327 17.6763 30.4327 18.0826C30.4327 18.3535 30.3142 18.489 30.0264 18.489C27.9269 18.489 25.8274 18.489 23.711 18.489C23.4232 18.489 23.3047 18.3535 23.3047 18.0826C23.3047 17.6763 23.3047 17.253 23.3047 16.8467C23.3047 16.5588 23.4232 16.4403 23.711 16.4403C24.5576 16.4403 25.4211 16.4403 26.2677 16.4403C26.4031 16.4403 26.5893 16.4403 26.674 16.3726C26.8094 16.2541 26.928 16.0678 26.9449 15.8985C26.9618 15.6784 26.8094 15.5091 26.5893 15.4752C26.437 15.4414 26.2846 15.4414 26.0983 15.4244L26.1153 15.4414Z" fill="#30428F"/>
<path d="M29.8409 26.9714V22.1799C29.8409 22.0783 29.8409 21.9767 29.8409 21.8751C29.8917 21.6211 30.044 21.4688 30.298 21.4688C30.5689 21.4688 30.7382 21.6042 30.8059 21.8751C30.8229 21.9767 30.8059 22.0783 30.8059 22.1799V31.8645C30.8059 31.983 30.8059 32.1016 30.789 32.2031C30.7213 32.4571 30.552 32.5756 30.2811 32.5756C30.0271 32.5756 29.8747 32.4232 29.8239 32.1862C29.807 32.0846 29.8239 31.9661 29.8239 31.8476V26.9883L29.8409 26.9714Z" fill="#EEECDF"/>
<path d="M30.8414 34.6073C30.8414 34.7767 30.8414 34.9629 30.8414 35.1322C30.8245 35.42 30.6043 35.6232 30.3334 35.6063C30.0795 35.6063 29.8763 35.4031 29.8594 35.1322C29.8594 34.7767 29.8594 34.438 29.8594 34.0825C29.8594 33.7946 30.0964 33.5915 30.3673 33.6084C30.6213 33.6084 30.8245 33.8116 30.8414 34.0825C30.8414 34.2518 30.8414 34.438 30.8414 34.6073Z" fill="#EEECDF"/>
</svg>
