<svg width="80" height="81" viewBox="0 0 80 81" fill="none" xmlns="http://www.w3.org/2000/svg">
<path d="M27.1191 62.1265C26.8257 61.8131 26.4591 61.5665 26.2991 61.2265C26.0124 60.6198 25.8324 59.9665 25.6457 59.3198C25.5457 58.9731 25.3657 58.7731 25.0124 58.6731C24.3857 58.4931 23.7457 58.3265 23.1591 58.0398C22.8257 57.8798 22.5057 57.5531 22.3457 57.2265C22.0724 56.6665 21.8924 56.0465 21.7324 55.4398C21.6257 55.0331 21.3924 54.8665 21.0057 54.7331C18.0457 53.6931 18.8591 54.4998 17.8191 51.5598C17.6724 51.1465 17.4724 50.9531 17.0591 50.8065C14.1257 49.7731 14.9324 50.5865 13.8857 47.6198C13.7524 47.2331 13.5791 47.0065 13.1724 46.8998C12.5657 46.7331 11.9657 46.5198 11.3724 46.3065C10.4724 45.9865 10.2724 45.2198 10.9324 44.5465C12.1657 43.2931 13.4057 42.0531 14.6657 40.8265C14.8791 40.6198 15.1657 40.4731 15.4457 40.3598C16.6924 39.8465 17.9524 39.3731 19.1924 38.8465C19.5924 38.6731 19.9857 38.4265 20.2924 38.1198C31.7391 26.7265 43.1724 15.3065 54.6191 3.89312C55.5391 2.97312 55.8724 2.97312 56.7924 3.89312C60.7857 7.87312 64.7791 11.8598 68.7657 15.8398C69.6924 16.7665 69.6924 17.0998 68.7857 18.0065C57.3324 29.4331 45.8724 40.8598 34.4324 52.2998C34.1391 52.5931 33.8591 52.9665 33.7457 53.3531C32.8457 56.3865 31.2124 58.9265 28.7391 60.9131C28.4724 61.1265 28.2591 61.4198 27.9924 61.6398C27.7791 61.8131 27.5124 61.9198 27.1257 62.1331L27.1191 62.1265ZM30.8324 55.2665C31.1991 54.3465 31.5124 53.4398 31.9257 52.5865C32.2124 51.9931 32.5657 51.3931 33.0191 50.9331C39.5657 44.3665 46.1391 37.8198 52.7124 31.2798C52.8857 31.1065 53.1191 30.9998 53.3191 30.8598C53.2724 30.7998 53.2191 30.7331 53.1724 30.6731C51.5457 31.1131 49.9191 31.5398 48.2991 32.0065C47.9657 32.0998 47.6191 32.2931 47.3724 32.5331C44.6391 35.2331 41.9258 37.9465 39.2057 40.6598C39.0524 40.8131 38.8924 40.9531 38.7724 41.0665C38.2724 40.6131 37.8257 40.1998 37.3057 39.7198C39.8791 37.1598 42.4191 34.6265 44.9858 32.0731C43.6591 30.4131 42.3458 28.7865 40.9924 27.0931C38.9058 29.1931 36.8791 31.2331 34.8391 33.2798C34.3524 32.7998 33.9124 32.3598 33.3991 31.8531C35.5191 29.7398 37.6257 27.6465 39.7457 25.5331C39.1457 24.7865 38.5658 24.0665 37.8924 23.2265C37.6057 23.5665 37.3857 23.8665 37.1257 24.1198C31.9057 29.3331 26.6924 34.5465 21.4591 39.7398C21.1124 40.0865 20.6524 40.3598 20.1991 40.5665C19.2391 40.9998 18.2524 41.3665 17.2857 41.7598C21.8124 46.2731 26.2924 50.7465 30.8324 55.2731V55.2665ZM39.9191 21.4398C39.9858 21.4798 40.0324 21.5131 40.0924 21.5331C45.4191 23.4931 50.7391 25.4531 56.0724 27.3865C56.2657 27.4531 56.6257 27.3398 56.7857 27.1798C58.4791 25.5265 60.1524 23.8465 61.8257 22.1665C61.9324 22.0598 62.0257 21.9265 62.0124 21.9465C58.2057 18.1465 54.4391 14.3931 50.7124 10.6731C47.1724 14.2065 43.5591 17.8131 39.9257 21.4398H39.9191ZM52.3791 9.03979C56.1324 12.7865 59.8991 16.5465 63.5991 20.2398C64.6791 19.1665 65.8191 18.0331 66.9057 16.9531C63.1724 13.2331 59.4058 9.47312 55.6724 5.75312C54.5791 6.83979 53.4457 7.97312 52.3724 9.03979H52.3791ZM29.5724 57.1265C24.8591 52.4198 20.1124 47.6731 15.4857 43.0531C14.8657 43.6731 14.2057 44.3398 13.5257 45.0131C14.9257 45.0665 15.6191 45.9665 15.8324 47.3131C15.9791 48.2331 16.4991 48.7398 17.4124 48.8731C18.7591 49.0731 19.5724 49.8198 19.7591 51.1931C19.8857 52.1331 20.4191 52.6665 21.3591 52.7998C22.6924 52.9865 23.4791 53.7331 23.6724 55.0731C23.8124 56.0331 24.3324 56.5731 25.3057 56.7265C26.5524 56.9198 27.3924 57.5731 27.5724 58.8931C27.5791 58.9665 27.6257 59.0331 27.6457 59.0798C28.3191 58.4065 28.9724 57.7398 29.5791 57.1331L29.5724 57.1265ZM53.4657 28.5398C49.2524 26.9931 45.2191 25.5131 41.1857 24.0265C42.7657 26.1598 44.3924 28.1998 46.0457 30.2131C46.1657 30.3531 46.5124 30.4131 46.7124 30.3665C48.1324 30.0065 49.5457 29.6065 50.9591 29.2198C51.7391 29.0065 52.5124 28.7931 53.4657 28.5331V28.5398Z" fill="#EDEBDF"/>
<path d="M33.9447 39.9596C33.5981 40.333 33.2847 40.7596 32.8847 41.053C32.6047 41.253 32.1447 41.4196 31.8514 41.3263C31.5647 41.233 31.2381 40.8196 31.1847 40.4996C30.8181 38.273 30.5181 36.033 30.1914 33.7396C30.8314 33.6396 31.4447 33.5463 32.1247 33.4463C32.3647 35.0596 32.5914 36.6396 32.8247 38.2196L33.0181 38.3396C33.4181 37.8863 33.8181 37.4263 34.2247 36.9796C34.5647 36.6063 34.9581 36.3863 35.4714 36.613C35.9514 36.8263 36.0714 37.2263 36.0714 37.713C36.0647 40.0996 36.0714 42.4796 36.0714 44.8663C36.0714 45.0063 36.0714 45.1396 36.0714 45.3063H34.1247V40.033C34.0647 40.0063 34.0047 39.9863 33.9514 39.9596H33.9447Z" fill="#EDEBDF"/>
<path d="M27.3977 37.666C27.9777 38.2727 28.3977 38.7127 28.8643 39.206C28.1843 39.5793 28.471 40.106 28.6577 40.646C29.3043 42.546 29.931 44.4593 30.5843 46.426C30.891 46.146 31.1577 45.906 31.451 45.646C31.8843 46.1194 32.291 46.566 32.6977 47.006C32.0643 47.666 31.4377 48.4127 30.711 49.0527C30.171 49.526 29.451 49.2127 29.191 48.446C28.7243 47.0793 28.2777 45.706 27.8177 44.3394C27.3443 42.9327 26.8977 41.5193 26.391 40.1193C26.151 39.4527 26.2577 38.9527 26.791 38.486C27.031 38.2727 27.1777 37.966 27.391 37.6727L27.3977 37.666Z" fill="#EDEBDF"/>
<path d="M41.5124 32.3264C40.2724 33.5664 38.9924 34.8397 37.6924 36.1397C37.3124 35.7331 36.8924 35.2931 36.5391 34.9131C37.7924 33.6664 39.0791 32.3797 40.3924 31.0664C40.7124 31.4264 41.1191 31.8797 41.5191 32.3264H41.5124Z" fill="#EDEBDF"/>
<path d="M48.8711 15H50.7644V16.88H48.8711V15Z" fill="#EDEBDF"/>
<path d="M48.7807 21.8129H46.9141V19.9062H48.7807V21.8129Z" fill="#EDEBDF"/>
<path d="M56.6992 22.7661V20.8994H58.6059V22.7661H56.6992Z" fill="#EDEBDF"/>
<path d="M56.7266 10.1064H58.6199V11.9864H56.7266V10.1064Z" fill="#EDEBDF"/>
<path d="M41.2578 40.3264C41.3178 40.3598 41.3645 40.3931 41.4178 40.4131C46.3178 42.2198 51.2245 44.0264 56.1311 45.8064C56.3045 45.8731 56.6378 45.7598 56.7845 45.6198C58.3445 44.0931 59.8845 42.5464 61.4245 41.0064C61.5245 40.9064 61.6111 40.7864 61.5978 40.7998C58.0911 37.2998 54.6245 33.8398 51.1911 30.4131C47.9311 33.6664 44.6045 36.9864 41.2578 40.3264ZM56.7111 39.8331H58.4645V41.5531H56.7111V39.8331ZM49.4178 40.6798H47.6978V38.9264H49.4178V40.6798ZM51.2445 36.1398H49.5045V34.4064H51.2445V36.1398Z" fill="#2E418E"/>
<path d="M16.9453 62.0401C18.2386 62.0867 18.872 62.9201 19.072 64.1601C19.2053 65.0067 19.6853 65.4734 20.5253 65.5934C21.7653 65.7734 22.512 66.4667 22.6853 67.7267C22.7986 68.5934 23.2986 69.0801 24.1586 69.2067C25.3853 69.3801 26.112 70.0667 26.2853 71.3001C26.412 72.1867 26.8986 72.6801 27.792 72.8201C28.9386 73.0001 29.712 73.6001 29.8786 74.8134C29.8853 74.8801 29.9253 74.9401 29.9453 74.9867C30.5653 74.3667 31.172 73.7534 31.7253 73.1934C27.3853 68.8534 23.012 64.4934 18.752 60.2334C18.1853 60.8001 17.572 61.4134 16.9453 62.0401Z" fill="#2E418E"/>
<path d="M48.9718 50.0535C48.6651 50.1401 48.3451 50.3201 48.1184 50.5401C45.6051 53.0268 43.1051 55.5268 40.5984 58.0268C40.4584 58.1668 40.3118 58.3001 40.1984 58.4001C39.7384 57.9801 39.3251 57.6001 38.8451 57.1601C41.2118 54.8001 43.5518 52.4668 45.9184 50.1135C44.6918 48.5868 43.4918 47.0868 42.2384 45.5268C40.3184 47.4601 38.4518 49.3335 36.5718 51.2268C36.1251 50.7801 35.7184 50.3801 35.2451 49.9135C37.1984 47.9668 39.1384 46.0401 41.0851 44.0935C40.5318 43.4068 39.9984 42.7401 39.3784 41.9668C39.1118 42.2801 38.9118 42.5535 38.6718 42.7935C33.8651 47.5935 29.0651 52.3935 24.2384 57.1735C23.9184 57.4935 23.4984 57.7401 23.0784 57.9335C22.1984 58.3335 21.2851 58.6735 20.3984 59.0335C24.5651 63.1935 28.6918 67.3068 32.8718 71.4735C33.2118 70.6268 33.4984 69.7935 33.8784 69.0001C34.1451 68.4535 34.4651 67.9068 34.8851 67.4801C40.9184 61.4335 46.9718 55.4068 53.0184 49.3801C53.1784 49.2201 53.3918 49.1201 53.5784 48.9935C53.5318 48.9335 53.4851 48.8801 53.4451 48.8201C51.9451 49.2268 50.4451 49.6135 48.9584 50.0468L48.9718 50.0535ZM32.7851 65.7535C32.2851 66.1935 31.6251 65.9001 31.3851 65.2001C30.9518 63.9401 30.5451 62.6801 30.1184 61.4201C29.6851 60.1268 29.2718 58.8201 28.8051 57.5335C28.5784 56.9201 28.6851 56.4601 29.1718 56.0268C29.3918 55.8335 29.5318 55.5468 29.7251 55.2735C30.2584 55.8335 30.6451 56.2401 31.0784 56.6935C30.4518 57.0401 30.7184 57.5201 30.8918 58.0201C31.4918 59.7735 32.0651 61.5268 32.6718 63.3401C32.9584 63.0801 33.2051 62.8601 33.4718 62.6201C33.8718 63.0535 34.2451 63.4668 34.6184 63.8735C34.0384 64.4801 33.4584 65.1668 32.7918 65.7601L32.7851 65.7535ZM37.7051 61.9001V62.3068H35.9118V57.4468C35.8584 57.4268 35.8051 57.4001 35.7518 57.3801C35.4318 57.7201 35.1451 58.1135 34.7718 58.3868C34.5184 58.5735 34.0918 58.7268 33.8251 58.6401C33.5584 58.5535 33.2584 58.1735 33.2118 57.8801C32.8718 55.8268 32.5984 53.7668 32.2984 51.6535C32.8851 51.5668 33.4518 51.4801 34.0784 51.3868C34.2984 52.8735 34.5118 54.3268 34.7251 55.7801C34.7851 55.8135 34.8451 55.8535 34.9051 55.8868C35.2718 55.4668 35.6384 55.0468 36.0118 54.6335C36.3251 54.2935 36.6851 54.0868 37.1651 54.3001C37.6051 54.4935 37.7184 54.8668 37.7184 55.3135C37.7118 57.5068 37.7184 59.7068 37.7184 61.9001H37.7051ZM41.6851 49.1935C41.9784 49.5268 42.3518 49.9401 42.7184 50.3535C41.5784 51.4935 40.3984 52.6735 39.1984 53.8668C38.8451 53.4935 38.4651 53.0868 38.1318 52.7335C39.2851 51.5801 40.4718 50.4001 41.6784 49.1935H41.6851Z" fill="#2E418E"/>
<path d="M46.8991 48.4129C47.0058 48.5462 47.3258 48.5996 47.5124 48.5529C48.8191 48.2196 50.1258 47.8529 51.4258 47.4996C52.1391 47.3062 52.8591 47.1062 53.7324 46.8662C49.8524 45.4396 46.1391 44.0796 42.4258 42.7129C43.8791 44.6729 45.3791 46.5529 46.8991 48.4129Z" fill="#2E418E"/>
<path d="M52.7332 28.9065C56.1932 32.3599 59.6599 35.8199 63.0666 39.2199C64.0599 38.2332 65.1066 37.1865 66.1066 36.1932C62.6732 32.7666 59.1999 29.3065 55.7666 25.8799C54.7599 26.8799 53.7132 27.9265 52.7266 28.9065H52.7332ZM56.7399 29.8866H58.4799V31.6199H56.7399V29.8866Z" fill="#2E418E"/>
<path d="M56.7923 24.1667C55.9457 23.32 55.6457 23.3267 54.7923 24.1667C44.259 34.68 33.7257 45.1867 23.179 55.6934C22.899 55.9734 22.5323 56.2067 22.1657 56.36C21.0257 56.8467 19.8657 57.28 18.7123 57.7533C18.459 57.86 18.1923 57.9933 17.9923 58.18C16.8323 59.3067 15.6857 60.4534 14.5523 61.6067C13.9457 62.2267 14.1323 62.9267 14.959 63.2267C15.5057 63.42 16.059 63.62 16.619 63.7734C16.9923 63.8734 17.1523 64.0867 17.279 64.4333C18.2457 67.16 17.499 66.4134 20.2057 67.3667C20.5857 67.5 20.7723 67.68 20.9057 68.06C21.859 70.7667 21.119 70.0267 23.839 70.98C24.1923 71.1067 24.4057 71.26 24.5057 71.6333C24.659 72.1933 24.819 72.76 25.0723 73.28C25.219 73.5867 25.519 73.8867 25.819 74.0334C26.359 74.2934 26.9457 74.4534 27.5257 74.6133C27.8523 74.7067 28.019 74.8867 28.1123 75.2067C28.2857 75.8 28.4523 76.4067 28.7123 76.96C28.859 77.2734 29.199 77.5 29.4723 77.7867C29.8257 77.5867 30.0723 77.4867 30.2657 77.3334C30.5123 77.1334 30.7057 76.8667 30.9523 76.6667C33.2323 74.8334 34.739 72.5 35.5657 69.7C35.6723 69.3467 35.9323 69 36.199 68.7333C46.739 58.2 57.2923 47.68 67.839 37.1533C68.679 36.3133 68.679 36.0067 67.8257 35.1533C64.1523 31.4867 60.4723 27.82 56.799 24.1533L56.7923 24.1667ZM29.9457 74.9867C29.9257 74.9467 29.8923 74.88 29.879 74.8134C29.7123 73.5933 28.939 73 27.7923 72.82C26.899 72.68 26.4123 72.18 26.2857 71.3C26.1123 70.0667 25.3857 69.38 24.159 69.2067C23.2923 69.0867 22.799 68.5933 22.6857 67.7267C22.5123 66.46 21.7657 65.7733 20.5257 65.5933C19.6857 65.4667 19.2057 65.0067 19.0723 64.16C18.8723 62.92 18.239 62.0867 16.9457 62.04C17.5723 61.4133 18.1857 60.8 18.7523 60.2333C23.0123 64.4933 27.3857 68.86 31.7257 73.1934C31.1657 73.7533 30.559 74.3667 29.9457 74.9867ZM53.039 49.3867C46.9857 55.4134 40.9323 61.44 34.9057 67.4867C34.4857 67.9134 34.159 68.46 33.899 69.0067C33.519 69.7934 33.2323 70.6334 32.8923 71.48C28.7123 67.3134 24.5857 63.1933 20.419 59.04C21.3123 58.68 22.219 58.34 23.099 57.94C23.5123 57.7534 23.9323 57.5 24.259 57.18C29.079 52.3933 33.8857 47.5933 38.6923 42.8C38.9323 42.56 39.1323 42.2867 39.399 41.9733C40.019 42.7467 40.5523 43.4134 41.1057 44.1C39.1523 46.04 37.219 47.9733 35.2657 49.92C35.739 50.3867 36.1457 50.7933 36.5923 51.2333C38.4657 49.3467 40.3323 47.4667 42.259 45.5334C43.5123 47.0934 44.7123 48.5933 45.939 50.12C43.579 52.4734 41.239 54.8 38.8657 57.1667C39.3457 57.6067 39.759 57.9867 40.219 58.4067C40.3257 58.3067 40.479 58.1734 40.619 58.0334C43.1257 55.5334 45.6257 53.0333 48.139 50.5467C48.3657 50.32 48.6857 50.1467 48.9923 50.06C50.4857 49.6333 51.9857 49.24 53.479 48.8333C53.5257 48.8933 53.5723 48.9467 53.6123 49.0067C53.4257 49.1334 53.2123 49.2333 53.0523 49.3933L53.039 49.3867ZM51.4257 47.5C50.119 47.8533 48.819 48.22 47.5123 48.5534C47.3257 48.6 47.0057 48.5467 46.899 48.4134C45.379 46.5534 43.879 44.68 42.4257 42.7133C46.139 44.08 49.8523 45.44 53.7323 46.8667C52.859 47.1067 52.139 47.3 51.4257 47.5ZM61.4257 41.0067C59.8857 42.5467 58.3457 44.0933 56.7857 45.62C56.639 45.7667 56.3057 45.8733 56.1323 45.8067C51.219 44.0267 46.319 42.22 41.419 40.4133C41.3657 40.3933 41.319 40.36 41.259 40.3267C44.6057 36.9867 47.9323 33.6667 51.1923 30.4133C54.6257 33.84 58.0923 37.3 61.599 40.8C61.6123 40.7867 61.5257 40.9067 61.4257 41.0067ZM63.0657 39.22C59.6523 35.82 56.1857 32.3533 52.7323 28.9067C53.719 27.9267 54.7657 26.88 55.7723 25.88C59.2123 29.3067 62.679 32.7667 66.1123 36.1933C65.1123 37.1867 64.059 38.2333 63.0723 39.22H63.0657Z" fill="#EDEBDF"/>
<path d="M37.1596 54.3C36.6863 54.0867 36.3196 54.3 36.0063 54.6334C35.633 55.0467 35.2663 55.4667 34.8996 55.8867C34.8396 55.8534 34.7796 55.8134 34.7196 55.78C34.5063 54.3267 34.293 52.8734 34.073 51.3867C33.4463 51.4801 32.8796 51.5667 32.293 51.6534C32.593 53.7667 32.873 55.8267 33.2063 57.8801C33.253 58.1734 33.553 58.5534 33.8196 58.6401C34.0863 58.7267 34.513 58.5734 34.7663 58.3867C35.1396 58.1134 35.4196 57.7201 35.7463 57.3801C35.7996 57.4001 35.853 57.4267 35.9063 57.4467V62.3067H37.6996V61.9001C37.6996 59.7067 37.6996 57.5067 37.6996 55.3134C37.6996 54.8667 37.5863 54.4934 37.1463 54.3H37.1596Z" fill="#EDEBDF"/>
<path d="M32.6719 63.3401C32.0719 61.5268 31.4919 59.7734 30.8919 58.0201C30.7186 57.5201 30.4586 57.0334 31.0786 56.6934C30.6452 56.2401 30.2586 55.8334 29.7252 55.2734C29.5319 55.5468 29.3919 55.8268 29.1719 56.0268C28.6852 56.4601 28.5786 56.9201 28.8052 57.5334C29.2719 58.8201 29.6852 60.1201 30.1186 61.4201C30.5386 62.6801 30.9519 63.9468 31.3852 65.2001C31.6252 65.9001 32.2852 66.1934 32.7852 65.7534C33.4519 65.1668 34.0319 64.4801 34.6119 63.8668C34.2386 63.4601 33.8586 63.0468 33.4652 62.6134C33.1986 62.8534 32.9519 63.0734 32.6652 63.3334L32.6719 63.3401Z" fill="#EDEBDF"/>
<path d="M42.7245 50.3534C42.3579 49.94 41.9845 49.5267 41.6912 49.1934C40.4845 50.4 39.2979 51.5867 38.1445 52.7334C38.4712 53.0867 38.8579 53.4934 39.2112 53.8667C40.4112 52.6734 41.5912 51.4934 42.7312 50.3534H42.7245Z" fill="#EDEBDF"/>
<path d="M49.5039 36.1337H51.2439V34.4004H49.5039V36.1337Z" fill="#EDEBDF"/>
<path d="M47.6992 40.6733H49.4192V38.9199H47.6992V40.6733Z" fill="#EDEBDF"/>
<path d="M58.4643 39.8271H56.7109V41.5471H58.4643V39.8271Z" fill="#EDEBDF"/>
<path d="M58.4783 29.8867H56.7383V31.6201H58.4783V29.8867Z" fill="#EDEBDF"/>
</svg>
