<svg width="15" height="14" viewBox="0 0 15 14" fill="none" xmlns="http://www.w3.org/2000/svg">
<path d="M11.8422 1.81583C11.8422 1.81583 11.8083 1.76503 11.7914 1.7481C11.7237 1.66344 11.639 1.59572 11.5374 1.59572L4.98507 0.698365C4.84962 0.681434 4.69723 0.732228 4.61258 0.850746L0.566019 6.08249C0.498294 6.16715 0.481363 6.26874 0.498294 6.37032C0.498294 6.40419 0.498294 6.42112 0.498294 6.45498L3.00411 12.5841C3.05491 12.7195 3.17342 12.8211 3.32581 12.8211L9.87819 13.7185C9.87819 13.7185 9.89512 13.7185 9.91205 13.7185C9.96284 13.7185 9.99671 13.7185 10.0475 13.7015C10.0475 13.7015 10.0814 13.7015 10.0983 13.7015C10.0983 13.7015 10.1322 13.6846 10.1322 13.6677C10.1829 13.6507 10.2168 13.6169 10.2337 13.583H10.2507L14.2972 8.35128C14.3819 8.23276 14.4158 8.08038 14.348 7.94493L11.8422 1.83276H11.8253L11.8422 1.81583ZM5.10359 1.52799L10.7417 2.2899L7.25385 6.7936L1.61575 6.0317L5.10359 1.52799ZM1.51417 6.82747L7.15226 7.58937L9.30253 12.838L3.66443 12.0761L1.5311 6.8444L1.51417 6.82747ZM10.0306 12.5333L7.8803 7.28461L11.3681 2.79784L13.5184 8.04651L10.0306 12.5333Z" fill="#EEECDF"/>
</svg>
