<svg width="35" height="32" viewBox="0 0 35 32" fill="none" xmlns="http://www.w3.org/2000/svg">
<g clip-path="url(#clip0_2348_39276)">
<path d="M23.9315 1.34278L23.9312 1.34272C23.5553 1.25347 23.1819 1.16421 22.784 1.06789C22.5968 2.33609 22.0201 3.37076 21.0501 4.19846L21.05 4.19852C20.0352 5.0629 18.8313 5.46777 17.4825 5.48011L17.4825 5.48011C16.3813 5.48939 15.3695 5.18903 14.4756 4.58499L14.4756 4.58494C13.1984 3.72005 12.4422 2.53274 12.2051 1.05118C12.1785 1.05542 12.1534 1.05923 12.1294 1.06289C12.0551 1.07418 11.9911 1.08391 11.9247 1.09968L11.9016 1.00238M23.9315 1.34278L28.3025 11.0854C28.133 10.8789 27.941 10.7178 27.653 10.8181L27.6203 10.7236C27.6203 10.7236 27.6203 10.7236 27.6202 10.7236C27.4511 10.7822 27.3661 10.8939 27.3286 11.0235C27.2986 11.1271 27.2994 11.2441 27.3001 11.3406C27.3002 11.3542 27.3003 11.3674 27.3003 11.3801V11.4149V11.4497V11.4845V11.5193V11.554V11.5888V11.6236V11.6584V11.6932V11.728V11.7627V11.7975V11.8323V11.8671V11.9019V11.9366V11.9714V12.0062V12.041V12.0758V12.1106V12.1453V12.1801V12.2149V12.2497V12.2845V12.3193V12.354V12.3888V12.4236V12.4584V12.4932V12.528V12.5627V12.5975V12.6323V12.6671V12.7019V12.7366V12.7714V12.8062V12.841V12.8758V12.9106V12.9453V12.9801V13.0149V13.0497V13.0845V13.1193V13.154V13.1888V13.2236V13.2584V13.2932V13.3279V13.3627V13.3975V13.4323V13.4671V13.5019V13.5366V13.5714V13.6062V13.641V13.6758V13.7106V13.7453V13.7801V13.8149V13.8497V13.8845V13.9193V13.954V13.9888V14.0236V14.0584V14.0932V14.1279V14.1627V14.1975V14.2323V14.2671V14.3019V14.3366V14.3714V14.4062V14.441V14.4758V14.5106V14.5453V14.5801V14.6149V14.6497V14.6845V14.7192V14.754V14.7888V14.8236V14.8584V14.8932V14.9279V14.9627V14.9975V15.0323V15.0671V15.1019V15.1366V15.1714V15.2062V15.241V15.2758V15.3106V15.3453V15.3801V15.4149V15.4497V15.4845V15.5192V15.554V15.5888V15.6236V15.6584V15.6932V15.7279V15.7627V15.7975V15.8323V15.8671V15.9019V15.9366V15.9714V16.0062V16.041V16.0758V16.1106V16.1453V16.1801V16.2149V16.2497V16.2845V16.3192V16.354V16.3888V16.4236V16.4584V16.4932V16.5279V16.5627V16.5975V16.6323V16.6671V16.7019V16.7366V16.7714V16.8062V16.841V16.8758V16.9105V16.9453V16.9801V17.0149V17.0497V17.0845V17.1192V17.154V17.1888V17.2236V17.2584V17.2932V17.3279V17.3627V17.3975V17.4323V17.4671V17.5019V17.5366V17.5714V17.6062V17.641V17.6758V17.7105V17.7453V17.7801V17.8149V17.8497V17.8845V17.9192V17.954V17.9888V18.0236V18.0584V18.0932V18.1279V18.1627V18.1975V18.2323V18.2671V18.3018V18.3366V18.3714V18.4062V18.441V18.4758V18.5105V18.5453V18.5801V18.6149V18.6497V18.6845V18.7192V18.754V18.7888V18.8236V18.8584V18.8932V18.9279V18.9627V18.9975V19.0323V19.0671V19.1018V19.1366V19.1714V19.2062V19.241V19.2758V19.3105V19.3453V19.3801V19.4149V19.4497V19.4845V19.5192V19.554V19.5888V19.6236V19.6584V19.6931V19.7279V19.7627V19.7975V19.8323V19.8671V19.9018V19.9366V19.9714V20.0062V20.041V20.0758V20.1105V20.1453V20.1801V20.2149V20.2497V20.2845V20.3192V20.354V20.3888V20.4236V20.4584V20.4931V20.5279V20.5627V20.5975V20.6323V20.6671V20.7018V20.7366V20.7714V20.8062V20.841V20.8758V20.9105V20.9453V20.9801V21.0149V21.0497V21.0845V21.1192V21.154V21.1888V21.2236V21.2584V21.2931V21.3279V21.3627V21.3975V21.4323V21.4671V21.5018V21.5366V21.5714V21.6062V21.641V21.6758V21.7105V21.7453V21.7801V21.8149V21.8497V21.8844V21.9192V21.954V21.9888V22.0236V22.0584V22.0931V22.1279V22.1627V22.1975V22.2323V22.2671V22.3018V22.3366V22.3714V22.4062V22.441V22.4758V22.5105V22.5453V22.5801V22.6149V22.6497V22.6844V22.7192V22.754V22.7888V22.8236V22.8584V22.8931V22.9279V22.9627V22.9975V23.0323V23.0671V23.1018V23.1366V23.1714V23.2062V23.241V23.2757V23.3105V23.3453V23.3801V23.4149V23.4497V23.4844V23.5192V23.554V23.5888V23.6236V23.6584V23.6931V23.7279V23.7627V23.7975V23.8323V23.8671V23.9018V23.9366V23.9714V24.0062V24.041V24.0757V24.1105V24.1453V24.1801V24.2149V24.2497V24.2844V24.3192V24.354V24.3888V24.4236V24.4584V24.4931V24.5279V24.5627V24.5975V24.6323V24.6671V24.7018V24.7366V24.7714V24.8062V24.841V24.8757V24.9105V24.9453V24.9801V25.0149V25.0497V25.0844V25.1192V25.154V25.1888V25.2236V25.2584V25.2931V25.3279V25.3627V25.3975V25.4323V25.467V25.5018V25.5366V25.5714V25.6062V25.641V25.6757V25.7105V25.7453V25.7801V25.8149V25.8497V25.8844V25.9192V25.954V25.9888V26.0236V26.0584V26.0931V26.1279V26.1627V26.1975V26.2323V26.267V26.3018V26.3366V26.3714V26.4062V26.441V26.4757V26.5105V26.5453V26.5801V26.6149V26.6497V26.6844V26.7192V26.754V26.7888V26.8236V26.8583V26.8931V26.9279V26.9627V26.9975V27.0323V27.067V27.1018V27.1366V27.1714V27.2062V27.241V27.2757V27.3105V27.3453V27.3801V27.4149V27.4497V27.4844V27.5192V27.554V27.5888V27.6236V27.6583V27.6931V27.7279V27.7627V27.7975V27.8323V27.867V27.9018V27.9366V27.9714V28.0062V28.041V28.0757V28.1105V28.1453V28.1801V28.2149V28.2496V28.2844V28.3192V28.354V28.3888V28.4236V28.4583V28.4931V28.5279V28.5627V28.5975V28.6323V28.667V28.7018V28.7366V28.7714V28.8062V28.841V28.8757V28.9105V28.9453V28.9801V29.0149V29.0496V29.0844V29.1192V29.154V29.1888C27.3003 29.3367 27.297 29.4822 27.2759 29.623C27.2375 29.868 27.1311 30.0624 26.9733 30.2003C26.8152 30.3385 26.5997 30.4253 26.3349 30.4439C26.2569 30.4482 26.1781 30.4477 26.0966 30.4471C26.0687 30.4469 26.0404 30.4468 26.0117 30.4468H25.9783H25.945H25.9117H25.8783H25.845H25.8117H25.7783H25.745H25.7117H25.6783H25.645H25.6117H25.5783H25.545H25.5117H25.4783H25.445H25.4117H25.3783H25.345H25.3117H25.2783H25.245H25.2117H25.1783H25.145H25.1117H25.0783H25.045H25.0117H24.9783H24.945H24.9117H24.8783H24.845H24.8117H24.7783H24.745H24.7117H24.6783H24.645H24.6117H24.5783H24.545H24.5117H24.4783H24.445H24.4117H24.3783H24.345H24.3117H24.2784H24.245H24.2117H24.1784H24.145H24.1117H24.0784H24.045H24.0117H23.9784H23.945H23.9117H23.8784H23.845H23.8117H23.7784H23.745H23.7117H23.6784H23.645H23.6117H23.5784H23.545H23.5117H23.4784H23.445H23.4117H23.3784H23.345H23.3117H23.2784H23.245H23.2117H23.1784H23.145H23.1117H23.0784H23.045H23.0117H22.9784H22.945H22.9117H22.8784H22.845H22.8117H22.7784H22.745H22.7117H22.6784H22.645H22.6117H22.5784H22.545H22.5117H22.4784H22.445H22.4117H22.3784H22.345H22.3117H22.2784H22.245H22.2117H22.1784H22.145H22.1117H22.0784H22.045H22.0117H21.9784H21.945H21.9117H21.8784H21.845H21.8117H21.7784H21.745H21.7117H21.6784H21.6451H21.6117H21.5784H21.5451H21.5117H21.4784H21.4451H21.4117H21.3784H21.3451H21.3117H21.2784H21.2451H21.2117H21.1784H21.1451H21.1117H21.0784H21.0451H21.0117H20.9784H20.9451H20.9117H20.8784H20.8451H20.8117H20.7784H20.7451H20.7117H20.6784H20.6451H20.6117H20.5784H20.5451H20.5117H20.4784H20.4451H20.4117H20.3784H20.3451H20.3117H20.2784H20.2451H20.2117H20.1784H20.1451H20.1117H20.0784H20.0451H20.0117H19.9784H19.9451H19.9117H19.8784H19.8451H19.8117H19.7784H19.7451H19.7117H19.6784H19.6451H19.6117H19.5784H19.5451H19.5117H19.4784H19.4451H19.4117H19.3784H19.3451H19.3117H19.2784H19.2451H19.2117H19.1784H19.1451H19.1117H19.0784H19.0451H19.0117H18.9784H18.9451H18.9117H18.8784H18.8451H18.8118H18.7784H18.7451H18.7118H18.6784H18.6451H18.6118H18.5784H18.5451H18.5118H18.4784H18.4451H18.4118H18.3784H18.3451H18.3118H18.2784H18.2451H18.2118H18.1784H18.1451H18.1118H18.0784H18.0451H18.0118H17.9784H17.9451H17.9118H17.8784H17.8451H17.8118H17.7784H17.7451H17.7118H17.6784H17.6451H17.6118H17.5784H17.5451H17.5118H17.4784H17.4451H17.4118H17.3784H17.3451H17.3118H17.2784H17.2451H17.2118H17.1784H17.1451H17.1118H17.0784H17.0451H17.0118H16.9784H16.9451H16.9118H16.8784H16.8451H16.8118H16.7784H16.7451H16.7118H16.6784H16.6451H16.6118H16.5784H16.5451H16.5118H16.4784H16.4451H16.4118H16.3784H16.3451H16.3118H16.2784H16.2451H16.2118H16.1784H16.1451H16.1118H16.0785H16.0451H16.0118H15.9785H15.9451H15.9118H15.8785H15.8451H15.8118H15.7785H15.7451H15.7118H15.6785H15.6451H15.6118H15.5785H15.5451H15.5118H15.4785H15.4451H15.4118H15.3785H15.3451H15.3118H15.2785H15.2451H15.2118H15.1785H15.1451H15.1118H15.0785H15.0451H15.0118H14.9785H14.9451H14.9118H14.8785H14.8451H14.8118H14.7785H14.7451H14.7118H14.6785H14.6451H14.6118H14.5785H14.5451H14.5118H14.4785H14.4451H14.4118H14.3785H14.3451H14.3118H14.2785H14.2451H14.2118H14.1785H14.1451H14.1118H14.0785H14.0451H14.0118H13.9785H13.9451H13.9118H13.8785H13.8451H13.8118H13.7785H13.7451H13.7118H13.6785H13.6451H13.6118H13.5785H13.5451H13.5118H13.4785H13.4451H13.4118H13.3785H13.3451H13.3118H13.2785H13.2452H13.2118H13.1785H13.1452H13.1118H13.0785H13.0452H13.0118H12.9785H12.9452H12.9118H12.8785H12.8452H12.8118H12.7785H12.7452H12.7118H12.6785H12.6452H12.6118H12.5785H12.5452H12.5118H12.4785H12.4452H12.4118H12.3785H12.3452H12.3118H12.2785H12.2452H12.2118H12.1785H12.1452H12.1118H12.0785H12.0452H12.0118H11.9785H11.9452H11.9118H11.8785H11.8452H11.8118H11.7785H11.7452H11.7118H11.6785H11.6452H11.6118H11.5785H11.5452H11.5118H11.4785H11.4452H11.4118H11.3785H11.3452H11.3118H11.2785H11.2452H11.2118H11.1785H11.1452H11.1118H11.0785H11.0452H11.0118H10.9785H10.9452H10.9118H10.8785H10.8452H10.8118H10.7785H10.7452H10.7118H10.6785H10.6452H10.6118H10.5785H10.5452H10.5119H10.4785H10.4452H10.4119H10.3785H10.3452H10.3119H10.2785H10.2452H10.2119H10.1785H10.1452H10.1119H10.0785H10.0452H10.0119H9.97852H9.94519H9.91186H9.87852H9.84519H9.81186H9.77853H9.74519H9.71186H9.67853H9.64519H9.61186H9.57853H9.5452H9.51186H9.47853H9.4452H9.41186H9.37853H9.3452H9.31186H9.27853H9.2452H9.21187H9.17853H9.1452H9.11187H9.07853H9.0452H9.01187H8.97854H8.9452C8.47072 30.4468 8.16539 30.3565 7.97667 30.177C7.78921 29.9986 7.69499 29.7112 7.69499 29.2617V29.2268V29.192V29.1571V29.1223V29.0874V29.0526V29.0177V28.9829V28.948V28.9132V28.8783V28.8434V28.8086V28.7737V28.7389V28.704V28.6692V28.6343V28.5995V28.5646V28.5298V28.4949V28.4601V28.4252V28.3903V28.3555V28.3206V28.2858V28.2509V28.2161V28.1812V28.1464V28.1115V28.0767V28.0418V28.007V27.9721V27.9372V27.9024V27.8675V27.8327V27.7978V27.763V27.7281V27.6933V27.6584V27.6236V27.5887V27.5539V27.519V27.4841V27.4493V27.4144V27.3796V27.3447V27.3099V27.275V27.2402V27.2053V27.1705V27.1356V27.1008V27.0659V27.031V26.9962V26.9613V26.9265V26.8916V26.8568V26.8219V26.7871V26.7522V26.7174V26.6825V26.6477V26.6128V26.578V26.5431V26.5082V26.4734V26.4385V26.4037V26.3688V26.334V26.2991V26.2643V26.2294V26.1946V26.1597V26.1249V26.09V26.0551V26.0203V25.9854V25.9506V25.9157V25.8809V25.846V25.8112V25.7763V25.7415V25.7066V25.6718V25.6369V25.602V25.5672V25.5323V25.4975V25.4626V25.4278V25.3929V25.3581V25.3232V25.2884V25.2535V25.2187V25.1838V25.1489V25.1141V25.0792V25.0444V25.0095V24.9747V24.9398V24.905V24.8701V24.8353V24.8004V24.7656V24.7307V24.6959V24.661V24.6261V24.5913V24.5564V24.5216V24.4867V24.4519V24.417V24.3822V24.3473V24.3125V24.2776V24.2428V24.2079V24.173V24.1382V24.1033V24.0685V24.0336V23.9988V23.9639V23.9291V23.8942V23.8594V23.8245V23.7897V23.7548V23.7199V23.6851V23.6502V23.6154V23.5805V23.5457V23.5108V23.476V23.4411V23.4063V23.3714V23.3366V23.3017V23.2668V23.232V23.1971V23.1623V23.1274V23.0926V23.0577V23.0229V22.988V22.9532V22.9183V22.8835V22.8486V22.8137V22.7789V22.744V22.7092V22.6743V22.6395V22.6046V22.5698V22.5349V22.5001V22.4652V22.4304V22.3955V22.3607V22.3258V22.2909V22.2561V22.2212V22.1864V22.1515V22.1167V22.0818V22.047V22.0121V21.9773V21.9424V21.9076V21.8727V21.8378V21.803V21.7681V21.7333V21.6984V21.6636V21.6287V21.5939V21.559V21.5242V21.4893V21.4545V21.4196V21.3847V21.3499V21.315V21.2802V21.2453V21.2105V21.1756V21.1408V21.1059V21.0711V21.0362V21.0014V20.9665V20.9317V20.8968V20.8619V20.8271V20.7922V20.7574V20.7225V20.6877V20.6528V20.618V20.5831V20.5483V20.5134V20.4786V20.4437V20.4088V20.374V20.3391V20.3043V20.2694V20.2346V20.1997V20.1649V20.13V20.0952V20.0603V20.0255V19.9906V19.9557V19.9209V19.886V19.8512V19.8163V19.7815V19.7466V19.7118V19.6769V19.6421V19.6072V19.5724V19.5375V19.5026V19.4678V19.4329V19.3981V19.3632V19.3284V19.2935V19.2587V19.2238V19.189V19.1541V19.1193V19.0844V19.0495V19.0147V18.9798V18.945V18.9101V18.8753V18.8404V18.8056V18.7707V18.7359V18.701V18.6662V18.6313V18.5965V18.5616V18.5267V18.4919V18.457V18.4222V18.3873V18.3525V18.3176V18.2828V18.2479V18.2131V18.1782V18.1434V18.1085V18.0736V18.0388V18.0039V17.9691V17.9342V17.8994V17.8645V17.8297V17.7948V17.76V17.7251V17.6903V17.6554V17.6205V17.5857V17.5508V17.516V17.4811V17.4463V17.4114V17.3766V17.3417V17.3069V17.272V17.2372V17.2023V17.1674V17.1326V17.0977V17.0629V17.028V16.9932V16.9583V16.9235V16.8886V16.8538V16.8189V16.7841V16.7492V16.7143V16.6795V16.6446V16.6098V16.5749V16.5401V16.5052V16.4704V16.4355V16.4007V16.3658V16.331V16.2961V16.2613V16.2264V16.1915V16.1567V16.1218V16.087V16.0521V16.0173V15.9824V15.9476V15.9127V15.8779V15.843V15.8082V15.7733V15.7384V15.7036V15.6687V15.6339V15.599V15.5642V15.5293V15.4945V15.4596V15.4248V15.3899V15.3551V15.3202V15.2853V15.2505V15.2156V15.1808V15.1459V15.1111V15.0762V15.0414V15.0065V14.9717V14.9368V14.902V14.8671V14.8322V14.7974V14.7625V14.7277V14.6928V14.658V14.6231V14.5883V14.5534V14.5186V14.4837V14.4489V14.414V14.3792V14.3443V14.3094V14.2746V14.2397V14.2049V14.17V14.1352V14.1003V14.0655V14.0306V13.9958V13.9609V13.9261V13.8912V13.8563V13.8215V13.7866V13.7518V13.7169V13.6821V13.6472V13.6124V13.5775V13.5427V13.5078V13.473V13.4381V13.4032V13.3684V13.3335V13.2987V13.2638V13.229V13.1941V13.1593V13.1244V13.0896V13.0547V13.0199V12.985V12.9501V12.9153V12.8804V12.8456V12.8107V12.7759V12.741V12.7062V12.6713V12.6365V12.6016V12.5668V12.5319V12.497V12.4622V12.4273V12.3925V12.3576V12.3228V12.2879V12.2531V12.2182V12.1834V12.1485V12.1137V12.0788V12.044V12.0091V11.9742V11.9394V11.9045V11.8697V11.8348V11.8V11.7651V11.7303V11.6954V11.6606V11.6257V11.5909V11.556V11.5211V11.4863V11.4514V11.4166C7.69499 11.4022 7.6951 11.3873 7.69522 11.372C7.69602 11.2704 7.69696 11.1498 7.66515 11.0441C7.64586 10.98 7.61391 10.9175 7.5613 10.8636C7.50874 10.8097 7.43994 10.7687 7.3535 10.7411L7.3532 10.741C7.17688 10.6852 7.03009 10.711 6.9047 10.7841C6.78595 10.8534 6.69024 10.9632 6.60628 11.064L6.60622 11.064C6.31881 11.4097 6.02619 11.7494 5.73292 12.0899C5.58593 12.2606 5.43878 12.4314 5.29204 12.6033L5.29184 12.6035C5.02722 12.9154 4.78674 13.0723 4.53801 13.1069C4.28865 13.1416 4.00706 13.0569 3.65264 12.8301C2.94539 12.3773 2.23816 11.9276 1.53108 11.478L1.53101 11.478C1.22539 11.284 1.0565 11.07 1.00454 10.845C0.952839 10.6211 1.01158 10.3632 1.21138 10.0692L1.21147 10.0691C1.51955 9.6143 1.83954 9.16702 2.16003 8.71903C2.32487 8.48862 2.48984 8.25802 2.6534 8.02611C3.21458 7.23152 3.77346 6.43561 4.33206 5.64009C4.68114 5.14295 5.03012 4.64598 5.37948 4.14957C6.22942 2.94202 7.37264 2.14896 8.88269 1.82934C9.56174 1.68583 10.2352 1.51781 10.9071 1.3502C11.2466 1.2655 11.5857 1.18091 11.9249 1.09963L11.9016 1.00238M23.9315 1.34278C24.7346 1.53112 25.5343 1.71945 26.3372 1.9108C27.7036 2.23662 28.7588 2.97264 29.5464 4.07234V4.08126L29.5647 4.10721C30.2607 5.09159 30.959 6.07596 31.6573 7.06026L31.6582 7.06156C32.3562 8.04544 33.0542 9.02925 33.7497 10.013C33.988 10.3502 34.066 10.6167 34.019 10.843C33.972 11.07 33.7929 11.2877 33.4417 11.5115L33.4416 11.5116C33.1818 11.6775 32.9221 11.8438 32.6623 12.0102C32.2275 12.2887 31.7923 12.5674 31.3557 12.8451C31.0194 13.0585 30.7373 13.1372 30.4852 13.1013C30.2335 13.0653 29.9905 12.9121 29.7386 12.6156L29.7384 12.6154C29.6102 12.4654 29.4818 12.3158 29.3536 12.1662C29.0269 11.7853 28.7008 11.4051 28.3795 11.0216L23.9315 1.34278ZM11.9016 1.00238C11.5605 1.08413 11.2204 1.16896 10.8805 1.25377C10.2097 1.42112 9.53938 1.58835 8.86201 1.7315L12.1901 0.952239C12.1663 0.956023 12.1432 0.959561 12.1207 0.96301C12.0421 0.975041 11.9707 0.985977 11.9016 1.00238ZM24.7568 9.72468H24.7606H24.7568ZM24.7568 9.72468H24.753M24.7568 9.72468H24.753M24.753 9.72468H24.7492M24.753 9.72468H24.7492M24.7492 9.72468H24.7453M24.7492 9.72468H24.7453M24.7453 9.72468H24.7415M24.7453 9.72468H24.7415M24.7415 9.72468H24.7377M24.7415 9.72468H24.7377M24.7377 9.72468H24.7339M24.7377 9.72468H24.7339M24.7339 9.72468H24.73M24.7339 9.72468H24.73M24.73 9.72468H24.7262M24.73 9.72468H24.7262M24.7262 9.72468H24.7224M24.7262 9.72468H24.7224M24.7224 9.72468H24.7186M24.7224 9.72468H24.7186M24.7186 9.72468H24.7147M24.7186 9.72468H24.7147M24.7147 9.72468H24.7109M24.7147 9.72468H24.7109M24.7109 9.72468H24.7071M24.7109 9.72468H24.7071M24.7071 9.72468H24.7033M24.7071 9.72468H24.7033M24.7033 9.72468H24.6994M24.7033 9.72468H24.6994M24.6994 9.72468H24.6956M24.6994 9.72468H24.6956M24.6956 9.72468H24.6918M24.6956 9.72468H24.6918M24.6918 9.72468H24.688M24.6918 9.72468H24.688M24.688 9.72468H24.6841M24.688 9.72468H24.6841M24.6841 9.72468H24.6803M24.6841 9.72468H24.6803M24.6803 9.72468H24.6765M24.6803 9.72468H24.6765M24.6765 9.72468H24.6727M24.6765 9.72468H24.6727M24.6727 9.72468H24.6688M24.6727 9.72468H24.6688M24.6688 9.72468H24.665M24.6688 9.72468H24.665M24.665 9.72468H24.6612M24.665 9.72468H24.6612M24.6612 9.72468H24.6573M24.6612 9.72468H24.6573M24.6573 9.72468H24.6535M24.6573 9.72468H24.6535M24.6535 9.72468H24.6497M24.6535 9.72468H24.6497M24.6497 9.72468H24.6459M24.6497 9.72468H24.6459M24.6459 9.72468H24.642M24.6459 9.72468H24.642M24.642 9.72468H24.6382M24.642 9.72468H24.6382M24.6382 9.72468H24.6344M24.6382 9.72468H24.6344M24.6344 9.72468H24.6306M24.6344 9.72468H24.6306M24.6306 9.72468H24.6267M24.6306 9.72468H24.6267M24.6267 9.72468H24.6229M24.6267 9.72468H24.6229M24.6229 9.72468H24.6191M24.6229 9.72468H24.6191M24.6191 9.72468H24.6153M24.6191 9.72468H24.6153M24.6153 9.72468H24.6114M24.6153 9.72468H24.6114M24.6114 9.72468H24.6076M24.6114 9.72468H24.6076M24.6076 9.72468H24.6038M24.6076 9.72468H24.6038M24.6038 9.72468H24.5999M24.6038 9.72468H24.5999M24.5999 9.72468H24.5961M24.5999 9.72468H24.5961M24.5961 9.72468H24.5923M24.5961 9.72468H24.5923M24.5923 9.72468H24.5885M24.5923 9.72468H24.5885M24.5885 9.72468H24.5846M24.5885 9.72468H24.5846M24.5846 9.72468H24.5808M24.5846 9.72468H24.5808M24.5808 9.72468H24.577M24.5808 9.72468H24.577M24.577 9.72468H24.5732M24.577 9.72468H24.5732M24.5732 9.72468H24.5693M24.5732 9.72468H24.5693M24.5693 9.72468H24.5655M24.5693 9.72468H24.5655M24.5655 9.72468H24.5617M24.5655 9.72468H24.5617M24.5617 9.72468H24.5578M24.5617 9.72468H24.5578M24.5578 9.72468H24.554M24.5578 9.72468H24.554M24.554 9.72468H24.5502M24.554 9.72468H24.5502M24.5502 9.72468H24.5464M24.5502 9.72468H24.5464M24.5464 9.72468H24.5425M24.5464 9.72468H24.5425M24.5425 9.72468H24.5387M24.5425 9.72468H24.5387M24.5387 9.72468H24.5349M24.5387 9.72468H24.5349M24.5349 9.72468H24.531M24.5349 9.72468H24.531M24.531 9.72468H24.5272M24.531 9.72468H24.5272M24.5272 9.72468H24.5234M24.5272 9.72468H24.5234M24.5234 9.72468H24.5196M24.5234 9.72468H24.5196M24.5196 9.72468H24.5157M24.5196 9.72468H24.5157M24.5157 9.72468H24.5119M24.5157 9.72468H24.5119M24.5119 9.72468H24.5081M24.5119 9.72468H24.5081M24.5081 9.72468H24.5042M24.5081 9.72468H24.5042M24.5042 9.72468H24.5004M24.5042 9.72468H24.5004M24.5004 9.72468H24.4966M24.5004 9.72468H24.4966M24.4966 9.72468H24.4928M24.4966 9.72468H24.4928M24.4928 9.72468H24.4889M24.4928 9.72468H24.4889M24.4889 9.72468H24.4851M24.4889 9.72468H24.4851M24.4851 9.72468H24.4813M24.4851 9.72468H24.4813M24.4813 9.72468H24.4774M24.4813 9.72468H24.4774M24.4774 9.72468H24.4736M24.4774 9.72468H24.4736M24.4736 9.72468H24.4698M24.4736 9.72468H24.4698M24.4698 9.72468H24.466M24.4698 9.72468H24.466M24.466 9.72468H24.4621M24.466 9.72468H24.4621M24.4621 9.72468H24.4583M24.4621 9.72468H24.4583M24.4583 9.72468H24.4545M24.4583 9.72468H24.4545M24.4545 9.72468H24.4506M24.4545 9.72468H24.4506M24.4506 9.72468H24.4468M24.4506 9.72468H24.4468M24.4468 9.72468H24.443M24.4468 9.72468H24.443M24.443 9.72468H24.4391M24.443 9.72468H24.4391M24.4391 9.72468H24.4353M24.4391 9.72468H24.4353M24.4353 9.72468H24.4315M24.4353 9.72468H24.4315M24.4315 9.72468H24.4277M24.4315 9.72468H24.4277M24.4277 9.72468H24.4238M24.4277 9.72468H24.4238M24.4238 9.72468H24.42M24.4238 9.72468H24.42M24.42 9.72468H24.4162M24.42 9.72468H24.4162M24.4162 9.72468H24.4123M24.4162 9.72468H24.4123M24.4123 9.72468H24.4085M24.4123 9.72468H24.4085M24.4085 9.72468H24.4047M24.4085 9.72468H24.4047M24.4047 9.72468H24.4008M24.4047 9.72468H24.4008M24.4008 9.72468H24.397M24.4008 9.72468H24.397M24.397 9.72468H24.3932M24.397 9.72468H24.3932M24.3932 9.72468H24.3894M24.3932 9.72468H24.3894M24.3894 9.72468H24.3855M24.3894 9.72468H24.3855M24.3855 9.72468H24.3817M24.3855 9.72468H24.3817M24.3817 9.72468H24.3779M24.3817 9.72468H24.3779M24.3779 9.72468H24.374M24.3779 9.72468H24.374M24.374 9.72468H24.3702M24.374 9.72468H24.3702M24.3702 9.72468H24.3664M24.3702 9.72468H24.3664M24.3664 9.72468H24.3625M24.3664 9.72468H24.3625M24.3625 9.72468H24.3587M24.3625 9.72468H24.3587M24.3587 9.72468H24.3549M24.3587 9.72468H24.3549M24.3549 9.72468H24.3511M24.3549 9.72468H24.3511M24.3511 9.72468H24.3472M24.3511 9.72468H24.3472M24.3472 9.72468H24.3434M24.3472 9.72468H24.3434M24.3434 9.72468H24.3396M24.3434 9.72468H24.3396M24.3396 9.72468H24.3357M24.3396 9.72468H24.3357M24.3357 9.72468H24.3319M24.3357 9.72468H24.3319M24.3319 9.72468H24.3281M24.3319 9.72468H24.3281M24.3281 9.72468H24.3242M24.3281 9.72468H24.3242M24.3242 9.72468H24.3204M24.3242 9.72468H24.3204M24.3204 9.72468H24.3166M24.3204 9.72468H24.3166M24.3166 9.72468H24.3127M24.3166 9.72468H24.3127M24.3127 9.72468H24.3089M24.3127 9.72468H24.3089M24.3089 9.72468H24.3051M24.3089 9.72468H24.3051M24.3051 9.72468H24.3013M24.3051 9.72468H24.3013M24.3013 9.72468H24.2974M24.3013 9.72468H24.2974M24.2974 9.72468H24.2936M24.2974 9.72468H24.2936M24.2936 9.72468H24.2898M24.2936 9.72468H24.2898M24.2898 9.72468H24.2859M24.2898 9.72468H24.2859M24.2859 9.72468H24.2821M24.2859 9.72468H24.2821M24.2821 9.72468H24.2783M24.2821 9.72468H24.2783M24.2783 9.72468H24.2744M24.2783 9.72468H24.2744M24.2744 9.72468H24.2706M24.2744 9.72468H24.2706M24.2706 9.72468H24.2668M24.2706 9.72468H24.2668M24.2668 9.72468H24.2629M24.2668 9.72468H24.2629M24.2629 9.72468H24.2591M24.2629 9.72468H24.2591M24.2591 9.72468H24.2553M24.2591 9.72468H24.2553M24.2553 9.72468H24.2514M24.2553 9.72468H24.2514M24.2514 9.72468H24.2476M24.2514 9.72468H24.2476M24.2476 9.72468H24.2438M24.2476 9.72468H24.2438M24.2438 9.72468H24.2399M24.2438 9.72468H24.2399M24.2399 9.72468H24.2361M24.2399 9.72468H24.2361M24.2361 9.72468H24.2323M24.2361 9.72468H24.2323M24.2323 9.72468H24.2285M24.2323 9.72468H24.2285M24.2285 9.72468H24.2246M24.2285 9.72468H24.2246M24.2246 9.72468H24.2208M24.2246 9.72468H24.2208M24.2208 9.72468H24.217M24.2208 9.72468H24.217M24.217 9.72468H24.2131M24.217 9.72468H24.2131M24.2131 9.72468H24.2093M24.2131 9.72468H24.2093M24.2093 9.72468H24.2055M24.2093 9.72468H24.2055M24.2055 9.72468H24.2016M24.2055 9.72468H24.2016M24.2016 9.72468H24.1978M24.2016 9.72468H24.1978M24.1978 9.72468H24.194M24.1978 9.72468H24.194M24.194 9.72468H24.1901M24.194 9.72468H24.1901M24.1901 9.72468H24.1863M24.1901 9.72468H24.1863M24.1863 9.72468H24.1825M24.1863 9.72468H24.1825M24.1825 9.72468H24.1786M24.1825 9.72468H24.1786M24.1786 9.72468H24.1748M24.1786 9.72468H24.1748M24.1748 9.72468H24.171M24.1748 9.72468H24.171M24.171 9.72468H24.1671M24.171 9.72468H24.1671M24.1671 9.72468H24.1633M24.1671 9.72468H24.1633M24.1633 9.72468H24.1595M24.1633 9.72468H24.1595M24.1595 9.72468H24.1556M24.1595 9.72468H24.1556M24.1556 9.72468H24.1518M24.1556 9.72468H24.1518M24.1518 9.72468H24.148M24.1518 9.72468H24.148M24.148 9.72468H24.1441M24.148 9.72468H24.1441M24.1441 9.72468H24.1403M24.1441 9.72468H24.1403M24.1403 9.72468H24.1365M24.1403 9.72468H24.1365M24.1365 9.72468H24.1326M24.1365 9.72468H24.1326M24.1326 9.72468H24.1288M24.1326 9.72468H24.1288M24.1288 9.72468H24.125M24.1288 9.72468H24.125M24.125 9.72468H24.1211M24.125 9.72468H24.1211M24.1211 9.72468H24.1173M24.1211 9.72468H24.1173M24.1173 9.72468H24.1135M24.1173 9.72468H24.1135M24.1135 9.72468H24.1096M24.1135 9.72468H24.1096M24.1096 9.72468H24.1058M24.1096 9.72468H24.1058M24.1058 9.72468H24.102M24.1058 9.72468H24.102M24.102 9.72468H24.0982M24.102 9.72468H24.0982M24.0982 9.72468H24.0943M24.0982 9.72468H24.0943M24.0943 9.72468H24.0905M24.0943 9.72468H24.0905M24.0905 9.72468H24.0867M24.0905 9.72468H24.0867M24.0867 9.72468H24.0828M24.0867 9.72468H24.0828M24.0828 9.72468H24.079M24.0828 9.72468H24.079M24.079 9.72468H24.0752M24.079 9.72468H24.0752M24.0752 9.72468H24.0713M24.0752 9.72468H24.0713M24.0713 9.72468H24.0675M24.0713 9.72468H24.0675M24.0675 9.72468H24.0637M24.0675 9.72468H24.0637M24.0637 9.72468H24.0598M24.0637 9.72468H24.0598M24.0598 9.72468H24.056M24.0598 9.72468H24.056M24.056 9.72468H24.0522M24.056 9.72468H24.0522M24.0522 9.72468H24.0483M24.0522 9.72468H24.0483M24.0483 9.72468H24.0445M24.0483 9.72468H24.0445M24.0445 9.72468H24.0407M24.0445 9.72468H24.0407M24.0407 9.72468H24.0368M24.0407 9.72468H24.0368M24.0368 9.72468H24.033M24.0368 9.72468H24.033M24.033 9.72468H24.0292M24.033 9.72468H24.0292M24.0292 9.72468H24.0253M24.0292 9.72468H24.0253M24.0253 9.72468H24.0215M24.0253 9.72468H24.0215M24.0215 9.72468H24.0177M24.0215 9.72468H24.0177M24.0177 9.72468H24.0138M24.0177 9.72468H24.0138M24.0138 9.72468H24.01M24.0138 9.72468H24.01M24.01 9.72468H24.0062M24.01 9.72468H24.0062M24.0062 9.72468H24.0023M24.0062 9.72468H24.0023M24.0023 9.72468H23.9985M24.0023 9.72468H23.9985M23.9985 9.72468H23.9947M23.9985 9.72468H23.9947M23.9947 9.72468H23.9908M23.9947 9.72468H23.9908M23.9908 9.72468H23.987H23.9908ZM20.8379 9.71861C20.6927 9.71861 20.5412 9.73857 20.4217 9.81259C20.2945 9.89146 20.2177 10.0227 20.2101 10.2095L20.2101 10.2098C20.2064 10.3064 20.2213 10.3908 20.2559 10.4624C20.2908 10.5348 20.3432 10.5886 20.4054 10.6271C20.5255 10.7014 20.6807 10.7176 20.822 10.7176C20.8219 10.7176 20.8218 10.7176 20.8217 10.7176L20.8379 9.71861ZM24.7737 10.7176L24.7735 10.6176L24.7734 10.7176C24.7735 10.7176 24.7736 10.7176 24.7737 10.7176ZM24.7737 10.7176C24.9135 10.7159 25.0678 10.6993 25.1876 10.6268L24.7737 10.7176Z" fill="#2E418E" stroke="#EDEBDF" stroke-width="0.2"/>
<path d="M17.4646 4.57179C19.8675 4.59609 21.6848 2.80064 21.8384 0.859375H13.1836C13.2956 2.61229 15.0169 4.54748 17.4646 4.57179Z" fill="#2E418E"/>
<path d="M6.73078 12.3776V12.8849C6.73078 13.0229 6.73078 13.1608 6.73079 13.2988C6.79848 13.2201 6.86758 13.1395 6.93898 13.0562C6.95739 13.0347 6.97594 13.0131 6.99466 12.9913M6.73078 12.3776L6.99466 12.6045M6.73078 12.3776H6.13078V12.8849C6.13078 12.9485 6.13078 13.0122 6.13078 13.0758C6.18488 13.0133 6.23954 12.9499 6.29536 12.8849C6.35569 12.8147 6.41737 12.7428 6.48116 12.6684C6.56061 12.5757 6.64333 12.4792 6.73078 12.3776ZM6.99466 12.6045V12.6253V12.6601V12.695V12.7298V12.7647V12.7996V12.8344V12.8693V12.8849V12.9041V12.939V12.9738V12.9913M6.99466 12.6045V12.5904V12.5556V12.5207V12.4859V12.451V12.4162V12.3813V12.3776V12.3465V12.3116V12.2768V12.2419V12.207V12.1722V12.1373V12.1025V12.0676V12.0328V11.9979V11.9631V11.9282V11.8934V11.8585V11.8237V11.7888V11.7539V11.7191V11.6842V11.6792M6.99466 12.6045L7.18567 12.7688C7.15182 12.8082 7.11859 12.8468 7.08592 12.8849C7.05503 12.9209 7.02463 12.9563 6.99466 12.9913M6.99466 12.9913V13.0087V13.0435V13.0784V13.1132V13.1481V13.1829V13.2178V13.2527V13.2875V13.3224V13.3572V13.3921V13.4269V13.4618V13.4966V13.5315V13.5663V13.6012V13.636V13.6709V13.7058V13.7406V13.7755V13.8103V13.8452V13.88V13.9149V13.9497V13.9846V14.0194V14.0543V14.0891V14.124V14.1589V14.1937V14.2286V14.2634V14.2983V14.3331V14.368V14.4028V14.4377V14.4725V14.5074V14.5422V14.5771V14.6119V14.6468V14.6817V14.7165V14.7514V14.7862V14.8211V14.8559V14.8908V14.9256V14.9605V14.9953V15.0302V15.065V15.0999V15.1348V15.1696V15.2045V15.2393V15.2742V15.309V15.3439V15.3787V15.4136V15.4484V15.4833V15.5181V15.553V15.5879V15.6227V15.6576V15.6924V15.7273V15.7621V15.797V15.8318V15.8667V15.9015V15.9364V15.9712V16.0061V16.041V16.0758V16.1107V16.1455V16.1804V11.6792M6.99466 11.6792V11.6494V11.6145V11.5797V11.5448V11.51V11.4751V11.4403V11.4054V11.6792ZM29.8171 2.86752C30.0308 3.09954 30.2296 3.34801 30.415 3.60995C30.4152 3.61028 30.4155 3.61062 30.4157 3.61096L30.4128 3.61298M29.8171 2.86752L30.0836 3.60995C30.0844 3.61096 30.0851 3.61197 30.0858 3.61298M29.8171 2.86752V3.60995V3.61298H30.0858M29.8171 2.86752L30.0858 3.61298M30.4128 3.61298H30.0858M30.4128 3.61298H30.4171L30.1954 3.76692M30.4128 3.61298L30.1954 3.76692M30.1954 3.76692L29.9275 3.95666C29.9279 3.95724 29.9283 3.95781 29.9287 3.95839C30.2926 4.47242 30.6552 4.98648 31.0171 5.50062M30.1954 3.76692L31.0171 5.50062M31.0171 5.50062V5.50067L29.9272 3.95941C29.9069 3.93067 29.8864 3.90213 29.8658 3.87381M31.0171 5.50062L27.2192 1.85595C28.3228 2.21828 29.1799 2.93194 29.8656 3.87356M31.0171 5.50062V4.45897C31.649 5.35461 32.2783 6.25113 32.9075 7.14743C33.4741 7.95455 34.0405 8.76149 34.6086 9.56743M31.0171 5.50062L34.4036 9.71131L34.6086 9.56743M31.0171 5.50062C31.4838 6.16366 31.9494 6.82683 32.4151 7.49024C32.9535 8.25722 33.4921 9.02451 34.033 9.7923L31.0171 5.50062ZM29.8658 3.87381L30.136 3.68281L30.1356 3.68225L29.8656 3.87356M29.8658 3.87381L29.646 4.02919L29.8656 3.87356M29.8658 3.87381C29.8658 3.87372 29.8657 3.87364 29.8656 3.87356M34.6086 9.56743L34.4039 9.71169L34.0902 12.2074C35.0821 11.5603 35.2741 10.5153 34.6086 9.56743ZM0.814794 12.1224L0.814803 12.1224L0.814794 12.1224Z" fill="#EDEBDF" stroke="#EDEBDF" stroke-width="1.2"/>
<path d="M24.7636 9.82444C24.1077 9.82444 23.4549 9.82444 22.8022 9.82444V9.81836C22.1495 9.81836 21.4936 9.81836 20.8409 9.81836C20.5625 9.81836 20.3258 9.89735 20.313 10.2133C20.3002 10.5475 20.5497 10.6143 20.8249 10.6173C22.1431 10.6204 23.4613 10.6204 24.7764 10.6173C25.0515 10.6173 25.3043 10.5536 25.2915 10.2163C25.2787 9.90342 25.0547 9.8214 24.7668 9.82444H24.7636Z" fill="#EDEBDF"/>
</g>
<defs>
<clipPath id="clip0_2348_39276">
<rect width="35" height="31.3793" fill="white"/>
</clipPath>
</defs>
</svg>
