<svg width="48" height="48" viewBox="0 0 48 48" fill="none" xmlns="http://www.w3.org/2000/svg">
<rect width="48" height="48" transform="translate(-0.5)" fill="#2E418E"/>
<path d="M32.3485 10.8186C33.1781 10.4461 33.5845 10.4969 33.8723 10.971C34.1601 11.462 34.0077 11.7837 33.4151 12.2408C33.6691 12.5964 34.0247 12.9181 34.1093 13.3075C34.2278 13.8831 33.6691 14.2726 33.0935 14.1202C33.0765 14.1202 33.0596 14.1202 33.0427 14.1032C31.5696 13.189 30.3167 13.7477 29.1146 14.7974C29.7749 15.1699 30.4522 15.5763 31.1464 15.9488C31.248 15.9995 31.4511 15.9488 31.6035 15.898C32.0437 15.7625 32.467 15.5763 32.9072 15.4408C33.4829 15.2546 33.94 15.4239 34.1093 15.898C34.2786 16.3551 34.0755 16.7445 33.5675 17.0154C33.4829 17.0662 33.3982 17.1001 33.2966 17.1509C34.0247 17.7265 34.177 18.1329 33.8723 18.59C33.5845 19.0302 33.1442 19.081 32.3823 18.7085C32.3823 18.8948 32.4331 19.0641 32.4331 19.2334C32.3993 19.6905 32.1792 19.9953 31.722 20.063C31.2649 20.1308 30.9432 19.9445 30.7908 19.4874C30.74 19.3519 30.7062 19.2165 30.7062 19.081C30.7739 17.371 29.4532 16.9308 28.2003 16.2704C28.2003 17.0831 28.2003 17.8112 28.2003 18.5562C28.2003 18.7085 28.3189 18.8948 28.4543 18.9964C28.7929 19.3181 29.1485 19.6059 29.504 19.9107C29.9612 20.317 30.0628 20.8588 29.7411 21.2313C29.4363 21.5868 28.9622 21.6038 28.4543 21.2313C28.3866 21.1805 28.3188 21.1466 28.2511 21.1128C28.1326 22.0101 27.8956 22.3149 27.3199 22.298C26.7612 22.298 26.5411 21.9763 26.4733 21.0958C26.321 21.1805 26.2024 21.2652 26.0839 21.3498C25.6437 21.6038 25.2204 21.5868 24.8987 21.1636C24.594 20.7403 24.6786 20.3339 25.0511 19.9784C25.4236 19.6398 25.83 19.3519 26.1855 18.9964C26.3379 18.844 26.4564 18.607 26.4733 18.3868C26.5072 17.7096 26.4733 17.0154 26.4733 16.2197C25.7622 16.626 25.1188 16.9985 24.34 17.4387C24.34 16.8122 24.1876 16.2197 24.3908 15.7625C24.5771 15.3223 25.1019 15.0345 25.5083 14.645C24.0183 14.3741 24.3231 13.2228 24.3739 12.0715C25.085 12.4779 25.7453 12.8334 26.4733 13.2567C26.4733 12.4271 26.4733 11.6652 26.4733 10.9202C26.4733 10.7678 26.321 10.5985 26.2024 10.4969C25.8638 10.1752 25.4913 9.90431 25.1527 9.59955C24.6617 9.17627 24.5771 8.70219 24.9157 8.29584C25.2374 7.92335 25.6945 7.90642 26.2024 8.26198C26.2702 8.31277 26.3379 8.34664 26.3548 8.36357C26.5072 8.02494 26.6088 7.66939 26.795 7.38156C26.8797 7.26304 27.1506 7.19531 27.3368 7.19531C27.8617 7.19531 28.0987 7.53394 28.2173 8.3805C28.3019 8.31277 28.3866 8.26198 28.4543 8.21119C28.9284 7.88949 29.4024 7.92335 29.7072 8.27891C30.0289 8.6514 29.9612 9.15933 29.5379 9.54875C29.1146 9.93817 28.6575 10.3276 28.2342 10.7001C28.2003 10.7339 28.1834 10.8186 28.1834 10.8694V13.2567C28.9114 12.8334 29.5718 12.4779 30.2151 12.0715C30.3506 11.9868 30.4183 11.7329 30.4691 11.5636C30.5707 11.1234 30.6384 10.6493 30.74 10.2091C30.8585 9.63341 31.2141 9.36251 31.7051 9.44716C32.23 9.53182 32.4839 9.90431 32.4162 10.5138C32.4162 10.6154 32.3993 10.7001 32.3823 10.8186H32.3485Z" fill="#EEECDF"/>
<path d="M23.2031 29.5445V11.208C23.2031 8.99002 21.4083 7.19531 19.1904 7.19531C16.9724 7.19531 15.1777 8.99002 15.1777 11.208V29.5445C13.7554 30.7128 12.8242 32.4567 12.8242 34.4376C12.8242 37.9424 15.6687 40.7868 19.1734 40.7868C22.6782 40.7868 25.5226 37.9424 25.5226 34.4376C25.5226 32.4567 24.5914 30.7128 23.1692 29.5445H23.2031Z" fill="#EEECDF"/>
<path d="M22.153 30.1714V11.1915C22.153 9.54915 20.8324 8.22852 19.19 8.22852C17.5477 8.22852 16.2271 9.54915 16.2271 11.1915V30.1714C14.9403 31.1026 14.0938 32.5925 14.0938 34.3026C14.0938 37.1132 16.3795 39.3989 19.19 39.3989C22.0006 39.3989 24.2863 37.1132 24.2863 34.3026C24.2863 32.5925 23.4398 31.1026 22.153 30.1714Z" fill="#30428F"/>
</svg>
