<svg width="28" height="29" viewBox="0 0 28 29" fill="none" xmlns="http://www.w3.org/2000/svg">
<rect x="0.5" y="1" width="27" height="27" rx="4.5" stroke="#FF6010"/>
<path d="M19.7325 11.766L19.8153 11.7671C20.1229 11.7926 20.3587 12.048 20.375 12.3554L20.3671 12.5268L20.105 15.7361L19.8301 18.8681C19.7719 19.4934 19.7198 20.0207 19.6749 20.4359C19.5187 21.8826 18.5796 22.7773 17.1638 22.8038C14.9578 22.8445 12.8373 22.8441 10.7781 22.7996C9.40331 22.7707 8.47805 21.8664 8.32462 20.4417L8.21858 19.3921L8.03328 17.3562L7.84347 15.122L7.62643 12.4402C7.59946 12.0961 7.84959 11.7948 8.18512 11.7671C8.49269 11.7418 8.76525 11.9552 8.82932 12.256L8.85426 12.5018L9.05805 15.0159L9.28057 17.6219C9.38038 18.75 9.46695 19.663 9.53622 20.3043C9.62365 21.1162 10.0511 21.534 10.8034 21.5498C12.8465 21.594 14.9512 21.5944 17.1417 21.5539C17.9398 21.539 18.374 21.1253 18.4633 20.2981L18.5689 19.2541C18.5998 18.9324 18.6328 18.5772 18.6678 18.1914L18.8905 15.6285L19.1588 12.3399C19.1836 12.0245 19.4327 11.7827 19.7325 11.766ZM7.10949 10.3246C6.77288 10.3246 6.5 10.0448 6.5 9.69962C6.5 9.3832 6.72929 9.12169 7.02679 9.0803L7.10949 9.0746H9.76476C10.0803 9.0746 10.3565 8.86639 10.4553 8.5664L10.4795 8.47377L10.6859 7.42143C10.8676 6.72446 11.4577 6.22824 12.1492 6.17227L12.2799 6.16699H15.7199C16.4229 6.16699 17.0436 6.62222 17.2826 7.32565L17.3228 7.4604L17.5203 8.47352C17.5822 8.79093 17.8354 9.02799 18.1417 9.06847L18.2351 9.0746H20.8905C21.2271 9.0746 21.5 9.35443 21.5 9.69962C21.5 10.016 21.2707 10.2776 20.9732 10.3189L20.8905 10.3246H7.10949ZM15.7199 7.41704H12.2799C12.1089 7.41704 11.9569 7.51968 11.8938 7.64868L11.8724 7.70536L11.6748 8.71898C11.6507 8.84269 11.6157 8.96183 11.5709 9.07542L16.429 9.07558C16.4011 9.00471 16.377 8.93168 16.3569 8.85673L16.325 8.71873L16.1364 7.74432C16.0923 7.57525 15.9561 7.45148 15.7918 7.42318L15.7199 7.41704Z" fill="#FF6010"/>
</svg>
