<svg width="50" height="50" viewBox="0 0 50 50" fill="none" xmlns="http://www.w3.org/2000/svg">
<path d="M43.9167 17.8755V32.1254C43.9167 34.4588 42.6667 36.6255 40.6458 37.813L28.2708 44.9589C26.25 46.1255 23.75 46.1255 21.7083 44.9589L9.33333 37.813C7.3125 36.6464 6.0625 34.4796 6.0625 32.1254V17.8755C6.0625 15.5422 7.3125 13.3754 9.33333 12.1879L21.7083 5.04211C23.7292 3.87545 26.2292 3.87545 28.2708 5.04211L40.6458 12.1879C42.6667 13.3754 43.9167 15.5214 43.9167 17.8755Z" stroke="#EDEBDF" stroke-width="3" stroke-linecap="round" stroke-linejoin="round"/>
<path d="M24.9948 22.9171C27.6757 22.9171 29.849 20.7438 29.849 18.0629C29.849 15.3821 27.6757 13.2089 24.9948 13.2089C22.3139 13.2089 20.1406 15.3821 20.1406 18.0629C20.1406 20.7438 22.3139 22.9171 24.9948 22.9171Z" stroke="#EDEBDF" stroke-width="3" stroke-linecap="round" stroke-linejoin="round"/>
<path d="M33.3307 34.7088C33.3307 30.9588 29.6016 27.9172 24.9974 27.9172C20.3932 27.9172 16.6641 30.9588 16.6641 34.7088" stroke="#EDEBDF" stroke-width="3" stroke-linecap="round" stroke-linejoin="round"/>
</svg>
