<svg width="46" height="45" viewBox="0 0 46 45" fill="none" xmlns="http://www.w3.org/2000/svg">
<path d="M29.2474 2.16711H16.7474C6.33073 2.16711 2.16406 6.33378 2.16406 16.7504V29.2504C2.16406 37.1254 4.53906 41.4379 10.2057 43.0421C10.6641 37.6254 16.2266 33.3546 22.9974 33.3546C29.7682 33.3546 35.3307 37.6254 35.7891 43.0421C41.4557 41.4379 43.8307 37.1254 43.8307 29.2504V16.7504C43.8307 6.33378 39.6641 2.16711 29.2474 2.16711ZM22.9974 27.5212C18.8724 27.5212 15.5391 24.1671 15.5391 20.0421C15.5391 15.9171 18.8724 12.5838 22.9974 12.5838C27.1224 12.5838 30.4557 15.9171 30.4557 20.0421C30.4557 24.1671 27.1224 27.5212 22.9974 27.5212Z" stroke="#EDEBDF" stroke-width="3" stroke-linecap="round" stroke-linejoin="round"/>
</svg>
