<?xml version="1.0" encoding="utf-8"?>
<!-- Generator: Adobe Illustrator 23.0.4, SVG Export Plug-In . SVG Version: 6.00 Build 0)  -->
<svg version="1.1" id="Layer_1" xmlns="http://www.w3.org/2000/svg" xmlns:xlink="http://www.w3.org/1999/xlink" x="0px" y="0px"
	 viewBox="0 0 30.6 32.7" style="enable-background:new 0 0 30.6 32.7;" xml:space="preserve">
<style type="text/css">
	.st0{fill:none;stroke:#FFFFFF;stroke-width:2;stroke-linecap:round;stroke-linejoin:round;stroke-miterlimit:10;}
</style>
<path class="st0" d="M2.5,5.2h2.2C6,5.2,7.1,6.4,7,7.7l-1,12.4c-0.2,2,1.4,3.8,3.5,3.8h13.3c1.8,0,3.4-1.5,3.5-3.3l0.7-9.4
	c0.2-2.1-1.4-3.8-3.5-3.8H7.3"/>
<path class="st0" d="M20.3,30.2c0.9,0,1.6-0.7,1.6-1.6s-0.7-1.6-1.6-1.6s-1.6,0.7-1.6,1.6S19.4,30.2,20.3,30.2z"/>
<path class="st0" d="M10.3,30.2c0.9,0,1.6-0.7,1.6-1.6s-0.7-1.6-1.6-1.6c-0.9,0-1.6,0.7-1.6,1.6S9.4,30.2,10.3,30.2z"/>
<path class="st0" d="M11.2,12.7h15"/>
</svg>
