<svg width="172" height="163" viewBox="0 0 172 163" fill="none" xmlns="http://www.w3.org/2000/svg">
<ellipse cx="84.589" cy="93.1602" rx="66.589" ry="67" fill="#D5EAFB"/>
<circle cx="165.5" cy="32.6602" r="6.5" fill="#D5EAFB"/>
<circle cx="10.5" cy="10.5" r="10.5" fill="#D5EAFB"/>
<circle cx="5" cy="138" r="5" fill="#D5EAFB"/>
<circle cx="153.5" cy="160.5" r="2.5" fill="#D5EAFB"/>
<path d="M79.8745 111.463C78.4667 111.463 77.059 110.856 76.2546 109.642L64.9927 95.075C63.3839 93.0518 63.7861 90.2193 65.7972 88.6008C67.8082 86.9822 70.6237 87.3869 72.2325 89.4101L79.8745 99.3237L96.7675 77.2709C98.3763 75.2477 101.192 74.843 103.203 76.4616C105.214 78.0802 105.616 80.9127 104.007 82.9358L83.4944 109.642C82.4889 110.654 81.2823 111.463 79.8745 111.463Z" fill="#2E418E"/>
<circle cx="113.5" cy="104.123" r="2.5" fill="#2E418E"/>
<circle cx="48" cy="76.4453" r="4" fill="#2E418E"/>
<circle cx="106.5" cy="54.8281" r="1.5" fill="#2E418E"/>
<circle cx="65" cy="125.76" r="2" fill="#2E418E"/>
<circle cx="87" cy="77.4688" r="1" fill="#2E418E"/>
</svg>
