<svg width="231" height="226" viewBox="0 0 231 226" fill="none" xmlns="http://www.w3.org/2000/svg">
<ellipse cx="125.555" cy="113.099" rx="104.444" ry="99.7643" fill="#F4E4D6"/>
<path d="M198.521 120.531C198.521 157.115 168.497 186.823 131.397 186.823C94.2974 186.823 64.2734 157.115 64.2734 120.531C64.2734 83.9481 94.2974 54.2402 131.397 54.2402C168.497 54.2402 198.521 83.9481 198.521 120.531Z" fill="#2E418E" stroke="#302318" stroke-width="5"/>
<path d="M195.596 114.954C197.856 154.927 168.945 184.21 130.493 184.21C101.106 181.421 92.0642 170.266 89.3516 168.406L195.596 114.954Z" fill="#3853C2"/>
<path d="M143.769 46.1626C145.426 46.1626 146.769 44.8194 146.769 43.1626V31.5C146.769 29.8431 145.426 28.5 143.769 28.5H116.765C115.108 28.5 113.765 29.8431 113.765 31.5V43.1626C113.765 44.8194 115.108 46.1626 116.765 46.1626H130.041H138.405H143.769Z" fill="#382621"/>
<path d="M173.443 60.5715L183.307 66.5812C184.633 67.3892 186.357 67.0514 187.28 65.8026L192.426 58.8419C193.423 57.4936 193.121 55.5901 191.756 54.6163L174.577 42.3613C173.209 41.3859 171.308 41.723 170.359 43.1091L165.122 50.7604C164.214 52.0874 164.513 53.8946 165.801 54.8576L173.443 60.5715Z" fill="#382621"/>
<path d="M170.73 64.7548L173.443 60.5715M173.443 60.5715L183.307 66.5812C184.633 67.3892 186.357 67.0514 187.28 65.8026L192.426 58.8419C193.423 57.4936 193.121 55.5901 191.756 54.6163L174.577 42.3613C173.209 41.3859 171.308 41.723 170.359 43.1091L165.122 50.7604C164.214 52.0874 164.513 53.8946 165.801 54.8576L173.443 60.5715ZM130.041 53.1347V46.1626M130.041 46.1626H116.765C115.108 46.1626 113.765 44.8194 113.765 43.1626V31.5C113.765 29.8431 115.108 28.5 116.765 28.5H143.769C145.426 28.5 146.769 29.8431 146.769 31.5V43.1626C146.769 44.8194 145.426 46.1626 143.769 46.1626H138.405H130.041ZM61.7734 87.0654H34.1951M53.1835 103.798H21.9883M50.923 121.461H3M53.1835 140.983H24.701" stroke="#302318" stroke-width="5" stroke-linecap="round"/>
<path d="M65.1836 153.721C71.2208 162.314 73.6357 168.452 88.1251 178.887M94.1623 184.412C115.293 197.302 172.888 204.3 200.418 148.81" stroke="#302318" stroke-width="3" stroke-linecap="round"/>
<mask id="path-7-inside-1_1573_35643" fill="white">
<path d="M179.321 120.996C179.321 147.437 157.865 168.871 131.398 168.871C104.93 168.871 83.4746 147.437 83.4746 120.996C83.4746 94.5556 104.93 73.1213 131.398 73.1213C157.865 73.1213 179.321 94.5556 179.321 120.996Z"/>
</mask>
<path d="M179.321 120.996C179.321 147.437 157.865 168.871 131.398 168.871C104.93 168.871 83.4746 147.437 83.4746 120.996C83.4746 94.5556 104.93 73.1213 131.398 73.1213C157.865 73.1213 179.321 94.5556 179.321 120.996Z" fill="#FEFEFE"/>
<path d="M127.541 87.5302C127.541 88.9109 128.661 90.0302 130.041 90.0302C131.422 90.0302 132.541 88.9109 132.541 87.5302H127.541ZM155.558 93.9836C154.502 94.8724 154.366 96.4494 155.254 97.506C156.143 98.5626 157.72 98.6987 158.777 97.8099L155.558 93.9836ZM164.853 120.82C163.473 120.82 162.353 121.94 162.353 123.32C162.353 124.701 163.473 125.82 164.853 125.82V120.82ZM156.026 145.081C154.952 144.213 153.378 144.38 152.51 145.454C151.642 146.528 151.81 148.102 152.884 148.97L156.026 145.081ZM132.541 152.138C132.541 150.757 131.422 149.638 130.041 149.638C128.661 149.638 127.541 150.757 127.541 152.138H132.541ZM106.516 150.628C107.478 149.638 107.456 148.055 106.467 147.092C105.477 146.13 103.894 146.152 102.931 147.141L106.516 150.628ZM98.394 125.82C99.7747 125.82 100.894 124.701 100.894 123.32C100.894 121.94 99.7747 120.82 98.394 120.82V125.82ZM101.989 97.9824C103.141 98.7437 104.692 98.427 105.453 97.2752C106.214 96.1233 105.897 94.5724 104.746 93.8111L101.989 97.9824ZM132.541 108.911C132.541 107.531 131.422 106.411 130.041 106.411C128.661 106.411 127.541 107.531 127.541 108.911H132.541ZM130.041 123.32V125.82C131.422 125.82 132.541 124.701 132.541 123.32H130.041ZM118.739 120.82C117.358 120.82 116.239 121.94 116.239 123.32C116.239 124.701 117.358 125.82 118.739 125.82V120.82ZM127.541 76.3749V87.5302H132.541V76.3749H127.541ZM160.531 89.8003L155.558 93.9836L158.777 97.8099L163.75 93.6266L160.531 89.8003ZM175.252 120.82H164.853V125.82H175.252V120.82ZM162.355 150.193L156.026 145.081L152.884 148.97L159.213 154.083L162.355 150.193ZM132.541 164.688V152.138H127.541V164.688H132.541ZM103.351 153.881L106.516 150.628L102.931 147.141L99.7667 150.395L103.351 153.881ZM87.5435 125.82H98.394V120.82H87.5435V125.82ZM95.6593 93.7991L101.989 97.9824L104.746 93.8111L98.4162 89.6278L95.6593 93.7991ZM127.541 108.911V123.32H132.541V108.911H127.541ZM130.041 120.82H118.739V125.82H130.041V120.82ZM174.321 120.996C174.321 144.671 155.108 163.871 131.398 163.871V173.871C160.621 173.871 184.321 150.203 184.321 120.996H174.321ZM131.398 163.871C107.687 163.871 88.4746 144.671 88.4746 120.996H78.4746C78.4746 150.203 102.174 173.871 131.398 173.871V163.871ZM88.4746 120.996C88.4746 97.3218 107.687 78.1213 131.398 78.1213V68.1213C102.174 68.1213 78.4746 91.7895 78.4746 120.996H88.4746ZM131.398 78.1213C155.108 78.1213 174.321 97.3218 174.321 120.996H184.321C184.321 91.7895 160.621 68.1213 131.398 68.1213V78.1213Z" fill="#302318" mask="url(#path-7-inside-1_1573_35643)"/>
<path d="M83.3994 40.7558C83.3994 42.7191 81.7474 44.3397 79.6733 44.3397C77.5992 44.3397 75.9473 42.7191 75.9473 40.7558C75.9473 38.7924 77.5992 37.1719 79.6733 37.1719C81.7474 37.1719 83.3994 38.7924 83.3994 40.7558Z" stroke="#302318"/>
<path d="M207.767 32.5879C207.767 34.5513 206.115 36.1719 204.041 36.1719C201.966 36.1719 200.314 34.5513 200.314 32.5879C200.314 30.6246 201.966 29.004 204.041 29.004C206.115 29.004 207.767 30.6246 207.767 32.5879Z" stroke="#302318"/>
<path d="M190.862 191.277C190.862 193.241 189.21 194.861 187.136 194.861C185.062 194.861 183.41 193.241 183.41 191.277C183.41 189.314 185.062 187.693 187.136 187.693C189.21 187.693 190.862 189.314 190.862 191.277Z" stroke="#302318"/>
<path d="M55.6271 172.608C55.6271 173.927 54.5157 175.025 53.1085 175.025C51.7012 175.025 50.5898 173.927 50.5898 172.608C50.5898 171.289 51.7012 170.191 53.1085 170.191C54.5157 170.191 55.6271 171.289 55.6271 172.608Z" stroke="#302318"/>
<path d="M216.719 110.182L219.034 109.064C220.451 108.379 222.156 108.905 222.94 110.27L223.115 110.573C223.924 111.98 225.705 112.489 227.135 111.721L230.001 110.182" stroke="#302318"/>
<path d="M87.9744 223.381L88.8248 221.125C89.3828 219.644 91.0483 218.852 92.6049 219.327L92.8435 219.4C94.4492 219.89 96.1598 219.031 96.6662 217.481L97.621 214.559" stroke="#302318"/>
<path d="M125.404 11.0176L126.254 8.76125C126.812 7.28058 128.478 6.48849 130.035 6.96342L130.273 7.03621C131.879 7.52612 133.589 6.66749 134.096 5.11729L135.051 2.19492" stroke="#302318"/>
<path d="M23.3249 51.0938L25.6373 51.9335C27.1698 52.4901 27.9785 54.1148 27.4704 55.6164L27.3974 55.8322C26.8733 57.3811 27.7509 59.0504 29.3559 59.5576L32.3557 60.5055" stroke="#302318"/>
</svg>
