<svg width="40" height="40" viewBox="0 0 40 40" fill="none" xmlns="http://www.w3.org/2000/svg">
<path d="M23.4801 11.1021C25.1864 9.65548 25.0884 6.73553 23.2612 4.58016C21.4339 2.42478 18.5694 1.85019 16.863 3.29676C15.1567 4.74334 15.2547 7.66329 17.082 9.81866C18.9092 11.974 21.7738 12.5486 23.4801 11.1021Z" stroke="#EDEBDF" stroke-linecap="round" stroke-linejoin="round"/>
<path d="M16.1602 4.13477L16.5223 4.89486C16.8507 5.58488 17.3669 6.16841 18.0117 6.57853C18.6565 6.98865 19.4039 7.20878 20.168 7.21367C20.9111 7.21843 21.6386 7.42672 22.2717 7.81589C22.9047 8.20507 23.4189 8.76027 23.7586 9.42117L24.1897 10.2594" stroke="#EDEBDF" stroke-linecap="round" stroke-linejoin="round"/>
<path d="M13.5113 36.7017C15.2177 35.2551 15.1197 32.3351 13.2924 30.1798C11.4652 28.0244 8.60062 27.4498 6.89428 28.8964C5.18795 30.3429 5.28597 33.2629 7.11322 35.4183C8.94047 37.5736 11.805 38.1482 13.5113 36.7017Z" stroke="#EDEBDF" stroke-linecap="round" stroke-linejoin="round"/>
<path d="M6.19141 29.7344L6.55356 30.4945C6.88196 31.1845 7.39815 31.768 8.04296 32.1781C8.68777 32.5882 9.43509 32.8084 10.1993 32.8133C10.9423 32.818 11.6699 33.0263 12.3029 33.4155C12.9359 33.8047 13.4502 34.3599 13.7898 35.0208L14.2209 35.859" stroke="#EDEBDF" stroke-linecap="round" stroke-linejoin="round"/>
<path d="M21.8354 25.1777C23.6626 23.0223 23.7606 20.1023 22.0543 18.6558C20.348 17.2092 17.4834 17.7838 15.6562 19.9391C13.8289 22.0945 13.7309 25.0145 15.4373 26.461C17.1436 27.9076 20.0081 27.333 21.8354 25.1777Z" stroke="#EDEBDF" stroke-linecap="round" stroke-linejoin="round"/>
<path d="M22.76 19.4941L22.3978 20.2542C22.0694 20.9442 21.5532 21.5278 20.9084 21.9379C20.2636 22.348 19.5163 22.5681 18.7521 22.573C18.0091 22.5778 17.2815 22.7861 16.6485 23.1752C16.0155 23.5644 15.5012 24.1196 15.1615 24.7805L14.7305 25.6187" stroke="#EDEBDF" stroke-linecap="round" stroke-linejoin="round"/>
<path d="M10.5932 17.58C12.4204 15.4246 12.5185 12.5047 10.8121 11.0581C9.10579 9.61152 6.24125 10.1861 4.414 12.3415C2.58675 14.4969 2.48873 17.4168 4.19506 18.8634C5.9014 20.31 8.76594 19.7354 10.5932 17.58Z" stroke="#EDEBDF" stroke-linecap="round" stroke-linejoin="round"/>
<path d="M11.5139 11.8945L11.1517 12.6546C10.8233 13.3446 10.3071 13.9282 9.66232 14.3383C9.01751 14.7484 8.27019 14.9685 7.50603 14.9734C6.76297 14.9781 6.03541 15.1864 5.4024 15.5756C4.76939 15.9648 4.25511 16.52 3.91544 17.1809L3.48438 18.0191" stroke="#EDEBDF" stroke-linecap="round" stroke-linejoin="round"/>
<path d="M35.5854 19.2148C37.4126 17.0594 37.5107 14.1394 35.8043 12.6929C34.098 11.2463 31.2334 11.8209 29.4062 13.9763C27.5789 16.1316 27.4809 19.0516 29.1873 20.4982C30.8936 21.9447 33.7581 21.3701 35.5854 19.2148Z" stroke="#EDEBDF" stroke-linecap="round" stroke-linejoin="round"/>
<path d="M36.5061 13.5312L36.1439 14.2913C35.8155 14.9814 35.2993 15.5649 34.6545 15.975C34.0097 16.3851 33.2624 16.6052 32.4982 16.6101C31.7552 16.6149 31.0276 16.8232 30.3946 17.2124C29.7616 17.6015 29.2473 18.1567 28.9076 18.8176L28.4766 19.6558" stroke="#EDEBDF" stroke-linecap="round" stroke-linejoin="round"/>
<path d="M31.5698 35.3612C33.397 33.2059 33.495 30.2859 31.7887 28.8393C30.0824 27.3928 27.2178 27.9674 25.3906 30.1227C23.5633 32.2781 23.4653 35.1981 25.1716 36.6446C26.878 38.0912 29.7425 37.5166 31.5698 35.3612Z" stroke="#EDEBDF" stroke-linecap="round" stroke-linejoin="round"/>
<path d="M32.4904 29.6758L32.1283 30.4359C31.7999 31.1259 31.2837 31.7094 30.6389 32.1195C29.9941 32.5296 29.2468 32.7498 28.4826 32.7547C27.7395 32.7594 27.012 32.9677 26.379 33.3569C25.7459 33.7461 25.2317 34.3013 24.892 34.9622L24.4609 35.8004" stroke="#EDEBDF" stroke-linecap="round" stroke-linejoin="round"/>
</svg>
