<svg width="50" height="50" viewBox="0 0 50 50" fill="none" xmlns="http://www.w3.org/2000/svg">
<path d="M8.15625 16.5493H32.8617C33.0689 16.5493 33.2676 16.6316 33.4141 16.7781C33.5607 16.9247 33.643 17.1234 33.643 17.3306V42.9687C33.643 44.0047 33.2314 44.9983 32.4989 45.7308C31.7663 46.4634 30.7727 46.8749 29.7367 46.8749H11.2812C10.2452 46.8749 9.25168 46.4634 8.51911 45.7308C7.78655 44.9983 7.375 44.0047 7.375 42.9687V17.3306C7.375 17.228 7.39521 17.1264 7.43447 17.0316C7.47373 16.9368 7.53128 16.8507 7.60382 16.7781C7.67637 16.7056 7.76249 16.648 7.85728 16.6088C7.95206 16.5695 8.05365 16.5493 8.15625 16.5493Z" stroke="#EDEBDF" stroke-width="2" stroke-linecap="round" stroke-linejoin="round"/>
<path d="M38.912 40.9004H33.6406V37.2708H36.2086C37.7431 37.2708 38.9871 36.953 38.9871 35.4185V28.0058C38.9871 26.4713 37.7431 26.1535 36.2086 26.1535H33.6406V22.5239H38.912C39.8945 22.5239 40.8368 22.9142 41.5316 23.609C42.2263 24.3038 42.6166 25.2461 42.6166 26.2286V37.1957C42.6166 37.6822 42.5208 38.1639 42.3346 38.6134C42.1485 39.0629 41.8756 39.4713 41.5316 39.8153C41.1876 40.1593 40.7792 40.4322 40.3297 40.6184C39.8802 40.8045 39.3985 40.9004 38.912 40.9004Z" stroke="#EDEBDF" stroke-width="2" stroke-linecap="round" stroke-linejoin="round"/>
<path d="M25.0909 35.5938C27.7986 32.3998 27.9439 28.0728 25.4153 25.9292C22.8867 23.7855 18.6418 24.637 15.9341 27.831C13.2263 31.025 13.0811 35.352 15.6096 37.4957C18.1382 39.6393 22.3831 38.7878 25.0909 35.5938Z" stroke="#EDEBDF" stroke-width="2" stroke-linecap="round" stroke-linejoin="round"/>
<path d="M26.4534 27.1704L25.9167 28.2968C25.4301 29.3193 24.6651 30.184 23.7096 30.7917C22.7541 31.3995 21.6467 31.7257 20.5143 31.7329C19.4132 31.74 18.335 32.0486 17.397 32.6253C16.4589 33.202 15.6968 34.0248 15.1935 35.0041L14.5547 36.2462" stroke="#EDEBDF" stroke-width="2" stroke-linecap="round" stroke-linejoin="round"/>
<path d="M21.957 3.125L21.2215 3.96554C20.7733 4.45336 20.4556 5.04649 20.2978 5.6899C20.14 6.33331 20.1472 7.00616 20.3189 7.64601C20.3685 7.81005 20.4283 7.97082 20.498 8.12737C20.5677 8.28392 20.6276 8.44469 20.6772 8.60873C20.8488 9.24858 20.8561 9.92142 20.6983 10.5648C20.5405 11.2082 20.2228 11.8014 19.7745 12.2892L19.0391 13.1297" stroke="#EDEBDF" stroke-width="2" stroke-linecap="round" stroke-linejoin="round"/>
<path d="M17.3378 4.29346L16.7639 4.94936C16.4744 5.26003 16.2545 5.62893 16.119 6.0314C15.9835 6.43387 15.9354 6.86063 15.9781 7.28315C16.0187 7.57442 16.1 7.85855 16.2197 8.1272C16.3393 8.39585 16.4206 8.67997 16.4613 8.97125C16.5039 9.39376 16.4559 9.82053 16.3204 10.223C16.1849 10.6255 15.965 10.9944 15.6755 11.305L15.1016 11.9609" stroke="#EDEBDF" stroke-width="2" stroke-linecap="round" stroke-linejoin="round"/>
<path d="M25.9159 4.29346L25.342 4.94936C25.0525 5.26003 24.8326 5.62893 24.6971 6.0314C24.5616 6.43387 24.5136 6.86063 24.5562 7.28315C24.5968 7.57442 24.6782 7.85855 24.7978 8.1272C24.9175 8.39585 24.9988 8.67997 25.0394 8.97125C25.0821 9.39376 25.034 9.82053 24.8985 10.223C24.763 10.6255 24.5431 10.9944 24.2536 11.305L23.6797 11.9609" stroke="#EDEBDF" stroke-width="2" stroke-linecap="round" stroke-linejoin="round"/>
</svg>
