<svg width="30" height="31" viewBox="0 0 30 31" fill="none" xmlns="http://www.w3.org/2000/svg">
<path d="M8.40578 14.7383H8.39828C7.24328 14.7383 6.30078 15.707 6.30078 16.8979C6.30078 18.094 7.23578 19.0705 8.39078 19.0731C9.55328 19.0731 10.4983 18.1044 10.4983 16.9134C10.4983 15.7174 9.56078 14.7409 8.40578 14.7383ZM8.39328 18.6055C7.48328 18.6055 6.75328 17.8434 6.75578 16.9005C6.75578 15.9602 7.49328 15.2059 8.40578 15.2084C9.31328 15.211 10.0483 15.9757 10.0458 16.9134C10.0458 17.8486 9.30328 18.6081 8.39328 18.6055Z" fill="#EDEBDF"/>
<path d="M9.49895 9.12695H9.47645C8.32895 9.12695 7.38645 10.0905 7.37895 11.2763C7.37145 12.4724 8.30145 13.4566 9.45145 13.467C10.619 13.467 11.564 12.506 11.574 11.3254C11.584 10.1267 10.654 9.14245 9.49645 9.12954L9.49895 9.12695ZM9.45645 12.9968C8.54645 12.989 7.82645 12.227 7.83395 11.2789C7.84145 10.3437 8.58895 9.58679 9.49395 9.59712C10.3965 9.60745 11.1315 10.385 11.1215 11.3176C11.114 12.2528 10.369 13.0045 9.45645 12.9968Z" fill="#EDEBDF"/>
<path d="M13.8748 5.68813H13.8698C13.3123 5.68813 12.7873 5.91546 12.3898 6.32621C11.9948 6.73696 11.7773 7.28205 11.7773 7.86071C11.7773 9.05421 12.7148 10.0255 13.8673 10.0255C15.0298 10.023 15.9723 9.05163 15.9748 7.86071C15.9748 7.2898 15.7573 6.7473 15.3598 6.33396C14.9598 5.91805 14.4298 5.68813 13.8723 5.68555L13.8748 5.68813ZM13.8748 9.55796C12.9623 9.56055 12.2323 8.80621 12.2323 7.8633C12.2323 6.92296 12.9698 6.1583 13.8723 6.1583C14.7723 6.1583 15.5248 6.93588 15.5223 7.8633C15.5198 8.80105 14.7848 9.55796 13.8723 9.56055L13.8748 9.55796Z" fill="#EDEBDF"/>
<path d="M19.3316 6.83984H19.3241C18.1691 6.83984 17.2291 7.80859 17.2266 8.99951C17.2266 10.1956 18.1616 11.1721 19.3141 11.1773C20.4766 11.1773 21.4191 10.2085 21.4241 9.01501C21.4241 8.43634 21.2091 7.89126 20.8141 7.48051C20.4191 7.06976 19.8916 6.83984 19.3316 6.83984ZM19.3166 10.7071C18.4091 10.7045 17.6791 9.94243 17.6816 8.99951C17.6816 8.05918 18.4166 7.30484 19.3316 7.30743C20.2391 7.31001 20.9766 8.07468 20.9716 9.01243C20.9691 9.94759 20.2241 10.7097 19.3191 10.7071H19.3166Z" fill="#EDEBDF"/>
<path d="M24.7252 7.54332C22.7477 5.15632 20.2127 3.73549 17.2127 3.23949C13.8327 2.68149 10.7052 3.34799 7.88772 5.41207C3.35022 8.73682 1.59273 15.1745 3.89023 20.4135C5.87523 24.9395 9.33523 27.4247 14.1227 27.9103C14.7277 27.9723 15.3427 27.9878 15.9402 27.7837C17.9852 27.0862 18.6952 24.6011 17.3402 22.8522C17.1552 22.6145 17.0402 22.3768 17.1802 22.0797C17.3177 21.7852 17.5677 21.7155 17.8627 21.7207C18.2677 21.731 18.6727 21.7207 19.2202 21.7207C20.1002 21.7491 21.1077 21.6664 22.0852 21.3254C25.0727 20.2843 26.9677 17.5279 27.1052 14.6707C27.2327 11.9867 26.4152 9.58157 24.7252 7.54074V7.54332ZM26.1027 14.6837C25.9752 17.3367 24.1777 19.716 21.6252 20.6072C20.9452 20.8449 20.1752 20.9637 19.3352 20.9637C19.2402 20.9637 19.1452 20.9637 19.0502 20.9586H18.2127C18.0527 20.9586 17.9002 20.9586 17.7477 20.9586H17.7027C17.0777 20.9586 16.7877 21.2944 16.6552 21.5786C16.3627 22.196 16.7402 22.6842 16.8652 22.8418C17.3852 23.5135 17.5552 24.3479 17.3277 25.1332C17.1027 25.9134 16.5277 26.5153 15.7477 26.7814C15.4802 26.8718 15.1802 26.9183 14.8327 26.9183C14.6502 26.9183 14.4527 26.908 14.2077 26.8822C9.77523 26.4327 6.61273 24.1154 4.80773 19.9976C2.71523 15.2262 4.29023 9.31807 8.47523 6.25424C10.4402 4.81532 12.6277 4.08682 14.9827 4.08682C15.6502 4.08682 16.3452 4.14624 17.0452 4.25991C19.8302 4.71974 22.1527 6.04757 23.9452 8.20982C25.4952 10.0802 26.2227 12.2579 26.1077 14.6837H26.1027Z" fill="#EDEBDF"/>
</svg>
