<svg width="29" height="27" viewBox="0 0 29 27" fill="none" xmlns="http://www.w3.org/2000/svg">
<path d="M20.2333 7.04795L14.5279 9.04632C14.3033 9.12504 14.0965 9.2451 13.9209 9.39874C13.7453 9.55238 13.6049 9.7362 13.5086 9.93832L8.15832 21.1754C8.06737 21.3663 8.01772 21.5696 8.01225 21.7737C8.00678 21.9777 8.04559 22.1784 8.12643 22.3642C8.20728 22.5499 8.32856 22.717 8.48327 22.8557C8.63797 22.9945 8.82303 23.1022 9.02774 23.1726L17.5583 26.1086C17.7619 26.1788 17.981 26.2106 18.2031 26.2024C18.4251 26.1941 18.6457 26.1459 18.8523 26.0605C19.0588 25.9751 19.2472 25.8542 19.4067 25.7047C19.5662 25.5552 19.6937 25.38 19.7818 25.1892L24.9762 13.9435C25.0725 13.7359 25.1201 13.5144 25.1157 13.2939C25.1114 13.0734 25.0551 12.859 24.9508 12.6653L22.2823 7.73937C22.105 7.41122 21.7994 7.16017 21.4225 7.03297C21.0455 6.90577 20.6229 6.9111 20.2333 7.04795ZM20.8241 9.46578C21.0165 9.63587 21.1459 9.8573 21.1962 10.1021C21.2465 10.3468 21.2153 10.604 21.1066 10.8409C20.9979 11.0779 20.8165 11.284 20.5854 11.4332C20.3544 11.5825 20.084 11.6682 19.8084 11.6794C19.5329 11.6907 19.2646 11.627 19.0375 11.4964C18.8104 11.3659 18.6347 11.1743 18.5325 10.946C18.4304 10.7176 18.4064 10.4628 18.4637 10.2136C18.521 9.96446 18.6569 9.73219 18.8542 9.5462C19.1186 9.29733 19.4743 9.14903 19.8431 9.13381C20.212 9.11859 20.564 9.23771 20.8219 9.46502L20.8241 9.46578Z" fill="#EDEBDF"/>
<g opacity="0.4">
<path d="M20.296 7.01613L14.6091 9.05763C14.3852 9.13805 14.1786 9.25972 14.0027 9.41479C13.8268 9.56987 13.6854 9.7549 13.5878 9.95793L8.16405 21.246C8.07185 21.4378 8.02056 21.6417 8.01314 21.846C8.00573 22.0503 8.04233 22.251 8.12084 22.4363C8.19935 22.6217 8.31821 22.7881 8.47054 22.9259C8.62287 23.0637 8.80565 23.1702 9.00833 23.2393L17.4538 26.1175C17.6554 26.1862 17.8728 26.2166 18.0934 26.2067C18.3141 26.1968 18.5337 26.147 18.7397 26.06C18.9457 25.973 19.134 25.8506 19.2939 25.6998C19.4538 25.549 19.5821 25.3727 19.6715 25.1811L24.9405 13.8854C25.0382 13.677 25.0877 13.4548 25.0854 13.2341C25.0832 13.0134 25.0294 12.7992 24.9277 12.606L22.3247 7.69365C22.1517 7.3664 21.8506 7.11725 21.4774 6.99261C21.1042 6.86797 20.6843 6.87633 20.296 7.01613ZM20.8594 9.43245C21.0488 9.60136 21.1753 9.82211 21.2229 10.0668C21.2705 10.3115 21.237 10.5691 21.1267 10.8071C21.0164 11.0451 20.8342 11.2528 20.6032 11.4038C20.3723 11.5549 20.1028 11.6426 19.829 11.6559C19.5552 11.6691 19.2893 11.6073 19.065 11.4782C18.8406 11.3491 18.6679 11.1586 18.5687 10.9307C18.4694 10.7029 18.4481 10.4479 18.5074 10.198C18.5667 9.94819 18.704 9.71469 18.9018 9.52708C19.1669 9.27603 19.5216 9.12501 19.8882 9.10713C20.2548 9.08926 20.6033 9.20598 20.8573 9.43171L20.8594 9.43245Z" fill="black"/>
</g>
<path d="M20.4957 6.46441L14.7896 8.46432C14.565 8.5431 14.3583 8.66317 14.1827 8.81681C14.0071 8.97044 13.8666 9.15422 13.7703 9.35631L8.42004 20.5933C8.32901 20.7842 8.2793 20.9876 8.27379 21.1917C8.26827 21.3958 8.30707 21.5965 8.38792 21.7822C8.46877 21.968 8.59009 22.135 8.74483 22.2738C8.89958 22.4126 9.08469 22.5202 9.28946 22.5906L17.8197 25.5271C18.0238 25.5973 18.2435 25.6291 18.466 25.6206C18.6886 25.6122 18.9096 25.5636 19.1164 25.4777C19.3233 25.3917 19.5119 25.2702 19.6713 25.12C19.8308 24.9699 19.958 24.794 20.0457 24.6026L25.2398 13.3574C25.3361 13.1498 25.3836 12.9283 25.3792 12.7078C25.3748 12.4873 25.3186 12.2729 25.2144 12.0792L22.5457 7.15378C22.3681 6.82573 22.0622 6.57492 21.685 6.44809C21.3079 6.32126 20.8852 6.32706 20.4957 6.46441ZM21.0868 8.88173C21.2791 9.05181 21.4086 9.27324 21.4589 9.51801C21.5091 9.76278 21.4779 10.0199 21.3692 10.2568C21.2605 10.4938 21.0791 10.6999 20.8481 10.8492C20.617 10.9984 20.3466 11.0841 20.0711 11.0953C19.7956 11.1066 19.5273 11.0429 19.3002 10.9124C19.0731 10.7818 18.8973 10.5903 18.7952 10.3619C18.693 10.1336 18.6691 9.87872 18.7263 9.62956C18.7836 9.3804 18.9195 9.14814 19.1169 8.96214C19.3813 8.71328 19.7369 8.56497 20.1058 8.54975C20.4747 8.53453 20.8267 8.65365 21.0846 8.88097L21.0868 8.88173Z" fill="#EDEBDF"/>
<path d="M13.9365 19.8298C12.9006 19.461 12.5257 18.6352 12.9275 17.7983C13.3293 16.9614 14.2579 16.6096 15.302 16.9813C16.3461 17.3529 16.7162 18.1686 16.3151 19.0052C15.9141 19.8418 14.9721 20.1991 13.9365 19.8298ZM14.9088 17.8025C14.249 17.5676 13.8202 17.6931 13.6472 18.0546C13.4777 18.4072 13.6841 18.7694 14.3339 19.001C14.9837 19.2325 15.426 19.1015 15.5955 18.7489C15.7685 18.3873 15.5668 18.0369 14.9088 17.8025ZM14.6403 14.401L15.1089 13.4241L19.3688 19.5359L18.9002 20.5128L14.6403 14.401ZM18.7089 16.9557C17.6733 16.5864 17.2981 15.7611 17.6958 14.9317C18.0976 14.0949 19.0391 13.7386 20.0744 14.1071C21.1097 14.4757 21.4825 15.3008 21.0799 16.138C20.6847 16.9646 19.742 17.3235 18.7089 16.9557ZM19.6768 14.9365C19.0275 14.7051 18.5888 14.8272 18.4157 15.1888C18.2463 15.5414 18.4441 15.9 19.1027 16.1346C19.7614 16.3692 20.1946 16.2356 20.3641 15.883C20.5349 15.5207 20.3238 15.1671 19.6738 14.936L19.6768 14.9365Z" fill="#2E418E"/>
<path d="M22.7704 7.91366C22.8131 7.88061 22.8601 7.85265 22.9102 7.8305C23.0037 7.78054 23.1428 7.70855 23.3241 7.6193C23.5053 7.53005 23.7281 7.42213 23.9905 7.30509C24.2529 7.18806 24.5554 7.05965 24.8997 6.93793C25.2744 6.80279 25.6591 6.69619 26.0498 6.61928L26.2097 6.58933L26.3732 6.56544C26.4855 6.54806 26.5984 6.53619 26.7113 6.52986C26.9528 6.51238 27.193 6.53719 27.419 6.60297C27.5386 6.64051 27.6488 6.69738 27.7447 6.77098C27.8436 6.84739 27.9232 6.9424 27.9785 7.05016C28.0899 7.27043 28.1196 7.52136 28.0636 7.76684C28.0043 8.01499 27.8866 8.25135 27.719 8.45918C27.552 8.66842 27.36 8.86062 27.1469 9.03192C26.7267 9.36812 26.2515 9.64049 25.7413 9.83762C25.501 9.93263 25.2554 10.0143 25.0058 10.0823C24.7633 10.1489 24.5246 10.2097 24.2898 10.2646C23.3528 10.481 22.4919 10.6035 21.7669 10.6169C21.586 10.6204 21.4147 10.6182 21.2521 10.6112C21.1711 10.6071 21.0922 10.6027 21.0155 10.5948C20.9404 10.5892 20.8662 10.5782 20.7937 10.5618C20.6544 10.5345 20.5355 10.4578 20.4624 10.348C20.4058 10.2557 20.3821 10.1483 20.3945 10.0398C20.3991 9.99484 20.4082 9.95013 20.4217 9.90622C20.4347 9.86803 20.4511 9.8307 20.4707 9.79462C20.5007 9.73782 20.5407 9.68545 20.5889 9.63968C20.6188 9.61208 20.653 9.58864 20.6902 9.57021C20.7155 9.55857 20.7286 9.55407 20.7301 9.55638C20.7315 9.5587 20.7204 9.56745 20.6985 9.58269C20.6665 9.60476 20.6375 9.63025 20.6122 9.65856C20.571 9.70469 20.5375 9.7559 20.5128 9.8104C20.497 9.84515 20.4838 9.88072 20.4733 9.91687C20.4633 9.95787 20.4572 9.99938 20.4551 10.0409C20.4488 10.1369 20.4737 10.2309 20.5268 10.3108C20.5932 10.4026 20.698 10.4647 20.8186 10.4839C20.8877 10.4979 20.9582 10.5066 21.0295 10.5101C21.1038 10.516 21.1812 10.5181 21.2611 10.5206C21.4217 10.5237 21.5912 10.5223 21.7697 10.5163C22.4823 10.4909 23.3346 10.3605 24.261 10.1381C24.4928 10.0822 24.729 10.0203 24.9694 9.95255C25.213 9.88489 25.4527 9.80394 25.6871 9.71015C26.1807 9.51801 26.6405 9.25408 27.0478 8.92913C27.2519 8.76475 27.4361 8.58055 27.5965 8.38015C27.751 8.18979 27.86 7.9733 27.9159 7.74577C27.9661 7.52962 27.9415 7.30842 27.8454 7.11342C27.7497 6.93033 27.5784 6.7919 27.3668 6.7267C27.1572 6.66557 26.9344 6.64229 26.7104 6.65812C26.6017 6.66313 26.493 6.67345 26.3848 6.689L26.2268 6.70939L26.0689 6.73643C25.684 6.8075 25.3044 6.90698 24.9339 7.03386C24.5926 7.14764 24.2895 7.26798 24.0238 7.37967C23.7581 7.49137 23.5334 7.58961 23.349 7.67178L22.9255 7.85683C22.8762 7.88143 22.8241 7.90052 22.7704 7.91366Z" fill="#263238"/>
<path d="M11.5432 9.95122C11.5398 9.95874 10.3672 9.72018 8.92154 9.41784C7.47591 9.11549 6.30617 8.86359 6.30875 8.85513C6.31132 8.84668 7.48479 9.08617 8.93042 9.38851C10.3761 9.69086 11.5458 9.94276 11.5432 9.95122Z" fill="#263238"/>
<path d="M7.43017 3.64921C7.43554 3.65214 7.44045 3.6557 7.44478 3.65981L7.48572 3.69367L7.64131 3.82565L8.20983 4.31522C8.69044 4.72763 9.35681 5.29538 10.104 5.91211C10.8512 6.52884 11.5365 7.07686 12.0354 7.4711C12.2836 7.66721 12.4853 7.82625 12.6271 7.9375C12.695 7.99178 12.7488 8.03441 12.7873 8.06499C12.8043 8.07887 12.8173 8.09014 12.8283 8.09885C12.8332 8.10237 12.8377 8.10639 12.8416 8.11084C12.8358 8.10837 12.8305 8.10508 12.8259 8.10109L12.7826 8.06948C12.7434 8.04048 12.6855 7.99826 12.6182 7.94667C12.4759 7.83951 12.2713 7.68252 12.0201 7.48721C11.5176 7.0966 10.8271 6.54985 10.0821 5.9339C9.33719 5.31795 8.66987 4.74803 8.19339 4.33094C7.95421 4.12513 7.76361 3.95216 7.63241 3.83358L7.48152 3.69711C7.46557 3.68236 7.45306 3.67004 7.44293 3.661L7.43017 3.64921Z" fill="#263238"/>
<path d="M13.1499 2.22768C13.1581 2.22515 13.4308 3.17578 13.7559 4.35219C14.0811 5.52861 14.3428 6.48205 14.3341 6.48439C14.3253 6.48674 14.0534 5.53578 13.728 4.35988C13.4026 3.18398 13.1413 2.22951 13.1499 2.22768Z" fill="#263238"/>
<path d="M10.9584 11.7805C10.9605 11.7885 10.4321 11.9394 9.78229 12.1194C9.13245 12.2994 8.59989 12.4386 8.5977 12.4336C8.59551 12.4286 9.12398 12.2747 9.77381 12.0947C10.4236 11.9147 10.9561 11.7731 10.9584 11.7805Z" fill="#263238"/>
<path d="M17.9504 4.35831C17.958 4.36095 17.6182 4.76373 17.1941 5.25366C16.77 5.74359 16.421 6.13662 16.4144 6.13194C16.4078 6.12726 16.7466 5.72651 17.1707 5.23658C17.5947 4.74665 17.944 4.35312 17.9504 4.35831Z" fill="#263238"/>
<path d="M15.048 10.745L14.9984 10.3374L14.7134 10.0315L15.1638 9.96205L15.5163 9.68397L15.566 10.0917L15.8507 10.3981L15.4006 10.467L15.048 10.745Z" fill="#2E418E"/>
<path d="M13.6703 12.3022L13.6529 12.1591L13.5533 12.0518L13.7107 12.0275L13.8341 11.9301L13.8514 12.0732L13.951 12.1805L13.7937 12.2048L13.6703 12.3022Z" fill="#2E418E"/>
<path d="M16.7801 12.1094L16.7466 11.8335L16.5537 11.6261L16.8584 11.5796L17.0969 11.3912L17.1305 11.6672L17.3234 11.8745L17.0187 11.9211L16.7801 12.1094Z" fill="#2E418E"/>
<path d="M6.18368 9.28418L6.29981 9.47314L6.5119 9.57661L6.29981 9.68007L6.18368 9.86903L6.06756 9.68007L5.85547 9.57661L6.06756 9.47314L6.18368 9.28418Z" fill="#EDEBDF"/>
<path d="M6.95703 6.69548L7.07744 6.68838L7.17462 6.62402L7.18256 6.73202L7.25469 6.81874L7.13367 6.82583L7.03649 6.88965L7.02854 6.7822L6.95703 6.69548Z" fill="#EDEBDF"/>
<path d="M26.5078 15.2853L26.6282 15.2782L26.7254 15.2139L26.7333 15.3219L26.8055 15.4086L26.6845 15.4157L26.5873 15.4795L26.5793 15.372L26.5078 15.2853Z" fill="#EDEBDF"/>
<path d="M12.7383 9.9127L12.8587 9.90561L12.9565 9.8418L12.9644 9.94925L13.0359 10.036L12.9155 10.0431L12.8177 10.1069L12.8104 9.99943L12.7383 9.9127Z" fill="#EDEBDF"/>
<path d="M13.4727 5.30919L13.5931 5.3021L13.6902 5.23828L13.6982 5.34573L13.7697 5.43246L13.6493 5.43955L13.5521 5.50391L13.5442 5.39591L13.4727 5.30919Z" fill="#EDEBDF"/>
<path d="M9.76953 8.16764L9.95289 8.07343L10.0501 7.90625L10.1558 8.06962L10.3441 8.15675L10.1607 8.25041L10.0629 8.41813L9.95717 8.25477L9.76953 8.16764Z" fill="#EDEBDF"/>
<path d="M25.1758 17.4499L25.3591 17.3557L25.4563 17.1885L25.5621 17.3518L25.7497 17.4384L25.5663 17.5326L25.4692 17.6998L25.3634 17.5364L25.1758 17.4499Z" fill="#EDEBDF"/>
<path d="M24.2539 14.4655L24.4373 14.3713L24.5351 14.2041L24.6408 14.3675L24.8284 14.4541L24.6451 14.5483L24.5473 14.716L24.4422 14.5521L24.2539 14.4655Z" fill="#EDEBDF"/>
</svg>
