<svg width="26" height="26" viewBox="0 0 26 26" fill="none" xmlns="http://www.w3.org/2000/svg">
<path d="M9.39453 15.5239C9.39453 16.9214 10.467 18.0481 11.7995 18.0481H14.5187C15.6779 18.0481 16.6204 17.0622 16.6204 15.8489C16.6204 14.5272 16.0462 14.0614 15.1904 13.7581L10.8245 12.2414C9.9687 11.9381 9.39453 11.4722 9.39453 10.1506C9.39453 8.93725 10.337 7.95142 11.4962 7.95142H14.2154C15.5479 7.95142 16.6204 9.07808 16.6204 10.4756" stroke="#EDEBDF" stroke-width="1.5" stroke-linecap="round" stroke-linejoin="round"/>
<path d="M13 6.5V19.5" stroke="#EDEBDF" stroke-width="1.5" stroke-linecap="round" stroke-linejoin="round"/>
<path d="M13.0013 23.8334C18.9844 23.8334 23.8346 18.9832 23.8346 13.0001C23.8346 7.017 18.9844 2.16675 13.0013 2.16675C7.01822 2.16675 2.16797 7.017 2.16797 13.0001C2.16797 18.9832 7.01822 23.8334 13.0013 23.8334Z" stroke="#EDEBDF" stroke-width="1.5" stroke-linecap="round" stroke-linejoin="round"/>
</svg>
