<svg width="20" height="34" viewBox="0 0 20 34" fill="none" xmlns="http://www.w3.org/2000/svg">
<path d="M18.0329 18.6339L16.8138 17.4149C16.3567 16.9577 16.0858 16.3313 16.0858 15.6709V9.5757C16.0858 9.05083 15.8826 8.54289 15.5101 8.1704C15.1376 7.79792 14.6297 7.59474 14.1048 7.59474H13.563V4.49633C14.4604 4.27622 15.1207 3.48046 15.1207 2.51538V2.24448C15.1207 1.11009 14.2064 0.195801 13.072 0.195801H9.90587C8.97465 0.195801 8.19582 0.822256 7.94185 1.66882H4.80957C2.93021 1.66882 2.2191 2.41379 1.22016 3.42966L0.796875 3.85294L1.79582 4.85189L2.2191 4.41167C3.15031 3.44659 3.50587 3.09104 4.77571 3.09104H7.92492C8.14502 3.85294 8.77148 4.42861 9.58418 4.54712V7.61167H8.87307C8.3482 7.61167 7.85719 7.81485 7.46778 8.18734C7.07836 8.55982 6.89211 9.06776 6.89211 9.59263V15.6879C6.89211 16.3313 6.63815 16.9746 6.181 17.4318L4.96195 18.6508C4.23391 19.3789 3.82756 20.3778 3.82756 21.3937V31.8233C3.82756 32.3482 4.03074 32.8561 4.40322 33.2286C4.77571 33.6011 5.26672 33.8043 5.80852 33.8043H17.1694C17.6942 33.8043 18.2022 33.6011 18.5747 33.2286C18.9471 32.8561 19.1503 32.3651 19.1503 31.8233V21.3937C19.1503 20.3778 18.744 19.3789 18.0159 18.6508L18.0329 18.6339ZM9.27942 2.53231V2.26141C9.27942 1.90585 9.56725 1.63495 9.90587 1.63495H13.072C13.4106 1.63495 13.6985 1.92278 13.6985 2.26141V2.53231C13.6985 2.88786 13.4106 3.15876 13.072 3.15876H9.90587C9.55031 3.15876 9.27942 2.87093 9.27942 2.53231ZM12.1408 4.6995V7.52702H11.0233V4.6995H12.1408ZM8.3482 9.59263C8.3482 9.44025 8.41592 9.3048 8.51751 9.20321C8.6191 9.10162 8.75455 9.0339 8.90693 9.0339H14.1048C14.2572 9.0339 14.3926 9.10162 14.4942 9.20321C14.5958 9.3048 14.6635 9.45718 14.6635 9.59263V13.3852C14.2064 13.0635 13.6646 12.8434 13.1059 12.8265C12.4456 12.7926 11.7852 12.9789 11.2265 13.3344C10.9387 13.5207 10.6339 13.6223 10.2784 13.6053C9.93973 13.6053 9.61804 13.4868 9.33021 13.2836L8.36513 12.6064V9.5757L8.3482 9.59263ZM17.745 31.8233C17.745 31.9757 17.6942 32.1111 17.5757 32.2127C17.4741 32.3143 17.3387 32.382 17.1863 32.382H5.82545C5.67307 32.382 5.53762 32.3313 5.43603 32.2127C5.33444 32.1111 5.26672 31.9588 5.26672 31.8233V31.5016H17.7281V31.8233H17.745ZM17.745 30.0794H5.28365V21.3937C5.28365 20.7503 5.53762 20.1069 6.01169 19.6498L7.23074 18.4307C7.95878 17.7027 8.36513 16.7037 8.36513 15.6879V14.3503L8.51751 14.4519C9.02545 14.8244 9.63497 15.0275 10.2614 15.0275C10.8709 15.0275 11.4974 14.8582 12.0223 14.5196C12.3101 14.3164 12.6826 14.2318 13.0381 14.2487C13.3937 14.2656 13.7323 14.4011 14.0371 14.6381L14.6974 15.1461V15.6879C14.6974 16.7037 15.1038 17.7027 15.8318 18.4307L17.0508 19.6498C17.508 20.1069 17.7789 20.7334 17.7789 21.3937V30.0794H17.745Z" fill="#F2F2F2"/>
</svg>
