<svg width="80" height="81" viewBox="0 0 80 81" fill="none" xmlns="http://www.w3.org/2000/svg">
<g clip-path="url(#clip0_2667_5607)">
<path d="M40.0006 46.6101C43.3751 46.6101 46.1106 43.8746 46.1106 40.5001C46.1106 37.1257 43.3751 34.3901 40.0006 34.3901C36.6262 34.3901 33.8906 37.1257 33.8906 40.5001C33.8906 43.8746 36.6262 46.6101 40.0006 46.6101Z" fill="#EDEBDF"/>
<path d="M73.7369 54.08L70.9269 52.46L69.1869 55.48L64.6569 52.86L68.8969 45.52L66.0869 43.9L61.8469 51.24L57.3169 48.62L60.3069 43.44L57.4969 41.82L54.5069 47L50.7369 44.82C51.2769 43.48 51.5769 42.02 51.5769 40.49C51.5769 38.96 51.2769 37.5 50.7369 36.16L54.5069 33.98L57.4969 39.16L60.3069 37.54L57.3169 32.36L61.8469 29.74L66.0869 37.08L68.8969 35.46L64.6569 28.12L69.1869 25.5L70.9269 28.52L73.7369 26.9L71.9969 23.88L75.4469 21.89L73.8269 19.08L70.3769 21.07L68.6369 18.05L65.8269 19.67L67.5669 22.69L63.0369 25.31L58.7969 17.97L55.9869 19.59L60.2269 26.93L55.6969 29.55L52.7069 24.37L49.8969 25.99L52.8869 31.17L49.1169 33.35C47.3069 31.04 44.6469 29.44 41.6169 29.01V24.66H47.5969V21.42H41.6169V16.19H50.0869V12.95H41.6169V7.73H45.1069V4.49H41.6169V0.5H38.3769V4.49H34.8869V7.73H38.3769V12.96H29.9069V16.2H38.3769V21.43H32.3969V24.67H38.3769V29.02C35.3469 29.45 32.6869 31.05 30.8769 33.36L27.1069 31.18L30.0969 26L27.2869 24.38L24.2969 29.56L19.7669 26.94L24.0069 19.6L21.1969 17.98L16.9569 25.32L12.4269 22.7L14.1669 19.68L11.3569 18.06L9.61687 21.08L6.16687 19.09L4.54688 21.9L7.99687 23.89L6.25688 26.91L9.06687 28.53L10.8069 25.51L15.3369 28.13L11.0969 35.47L13.9069 37.09L18.1469 29.75L22.6769 32.37L19.6869 37.55L22.4969 39.17L25.4869 33.99L29.2569 36.17C28.7169 37.51 28.4169 38.97 28.4169 40.5C28.4169 42.03 28.7169 43.49 29.2569 44.83L25.4869 47.01L22.4969 41.83L19.6869 43.45L22.6769 48.63L18.1469 51.25L13.9069 43.91L11.0969 45.53L15.3369 52.87L10.8069 55.49L9.06687 52.47L6.25688 54.09L7.99687 57.11L4.54688 59.1L6.16687 61.91L9.61687 59.92L11.3569 62.94L14.1669 61.32L12.4269 58.3L16.9569 55.68L21.1969 63.02L24.0069 61.4L19.7669 54.06L24.2969 51.44L27.2869 56.62L30.0969 55L27.1069 49.82L30.8769 47.64C32.6869 49.95 35.3469 51.55 38.3769 51.98V56.33H32.3969V59.57H38.3769V64.8H29.9069V68.04H38.3769V73.27H34.8869V76.51H38.3769V80.5H41.6169V76.51H45.1069V73.27H41.6169V68.04H50.0869V64.8H41.6169V59.57H47.5969V56.33H41.6169V51.98C44.6469 51.55 47.3069 49.95 49.1169 47.64L52.8869 49.82L49.8969 55L52.7069 56.62L55.6969 51.44L60.2269 54.06L55.9869 61.4L58.7969 63.02L63.0369 55.68L67.5669 58.3L65.8269 61.32L68.6369 62.94L70.3769 59.92L73.8269 61.91L75.4469 59.1L71.9969 57.11L73.7369 54.09V54.08ZM48.3469 40.5C48.3469 45.1 44.5969 48.85 39.9969 48.85C35.3969 48.85 31.6469 45.1 31.6469 40.5C31.6469 35.9 35.3969 32.15 39.9969 32.15C44.5969 32.15 48.3469 35.9 48.3469 40.5Z" fill="#EDEBDF"/>
</g>
<defs>
<clipPath id="clip0_2667_5607">
<rect width="80" height="80" fill="white" transform="translate(0 0.5)"/>
</clipPath>
</defs>
</svg>
