<svg width="47" height="44" viewBox="0 0 47 44" fill="none" xmlns="http://www.w3.org/2000/svg">
<path d="M9.70465 27.8302C10.0022 28.4453 10.2823 29.0254 10.5648 29.603C12.0201 32.6011 13.4778 35.5966 14.9281 38.5971C15.0031 38.7521 15.0431 38.9397 15.0431 39.1122C15.0531 40.4799 15.0481 41.8477 15.0481 43.2179C15.0481 43.2979 15.0481 43.3804 15.0481 43.478H0.953125C1.00313 42.9154 1.05064 42.3728 1.10065 41.8277C1.27318 39.9448 1.44821 38.0595 1.62324 36.1767C1.79827 34.2838 1.9758 32.3935 2.15083 30.5007C2.33337 28.5203 2.46089 26.53 2.71343 24.5572C2.99098 22.3868 3.7011 20.3639 5.22137 18.7136C6.46909 17.3584 8.05186 16.6533 9.86218 16.4382C11.3799 16.2582 12.8552 16.4107 14.2504 17.0783C15.7957 17.8185 16.9634 18.9787 17.7686 20.4664C18.3512 21.5441 18.8237 22.6818 19.3088 23.8095C20.359 26.2449 21.3917 28.6904 22.4219 31.1333C22.4944 31.3058 22.5844 31.3758 22.7769 31.3933C25.905 31.7134 29.033 32.0335 32.1586 32.3785C32.9262 32.4635 33.5338 32.8961 33.8939 33.5737C34.459 34.6389 34.484 35.7566 33.9364 36.8318C33.4513 37.782 32.5511 38.1295 31.5485 38.2545C31.2409 38.292 30.9284 38.2995 30.6183 38.2995C27.0702 38.302 23.5221 38.272 19.9764 38.3145C18.0486 38.3371 16.7534 37.4569 15.9332 35.7816C14.8105 33.4962 13.7029 31.2033 12.5902 28.9129C12.3501 28.4203 12.1176 27.9227 11.87 27.4327C11.8375 27.3676 11.7225 27.2851 11.6675 27.2976C11.0249 27.4602 10.3873 27.6402 9.70215 27.8277L9.70465 27.8302Z" fill="#2E418E"/>
<path d="M22.7445 26.175C22.3769 25.3123 22.0269 24.4922 21.6893 23.6695C21.6568 23.592 21.6993 23.4645 21.7443 23.3795C22.6545 21.6742 23.5697 19.9739 24.4848 18.2711C24.9574 17.3909 25.4375 16.5158 25.9026 15.6306C26.1501 15.1605 26.5252 14.948 27.0553 14.948C32.1762 14.953 37.297 14.953 42.4154 14.948C43.008 14.948 43.4056 15.2105 43.6357 15.7581C44.3908 17.5635 45.1584 19.3638 45.9085 21.1716C45.9911 21.3691 46.0386 21.5992 46.0411 21.8117C46.0486 28.9479 46.0461 36.0842 46.0511 43.2204C46.0511 43.4305 46.0036 43.503 45.781 43.503C36.7369 43.498 27.6904 43.498 18.6463 43.498C18.5738 43.498 18.5013 43.498 18.4062 43.498V40.4549C18.8563 40.4824 19.3014 40.5325 19.749 40.5325C23.4196 40.54 27.0903 40.535 30.7609 40.5375C31.7361 40.5375 32.6912 40.4099 33.5889 40.0074C35.4042 39.1947 36.3494 37.7545 36.5169 35.7991C36.6319 34.4564 36.3894 33.1862 35.5842 32.066C35.0692 31.3484 34.3865 30.8408 33.5814 30.4907C33.4639 30.4382 33.3439 30.3907 33.2038 30.3307C35.6843 25.9474 38.1547 21.5842 40.6526 17.1659H40.2876C36.1668 17.1659 32.0461 17.1684 27.9254 17.1584C27.6754 17.1584 27.5528 17.2384 27.4378 17.4509C25.9251 20.2814 24.4048 23.1094 22.8845 25.9349C22.8495 25.9999 22.812 26.0599 22.7445 26.1725V26.175Z" fill="#2E418E"/>
<path d="M25.3199 8.17686C25.3224 12.4401 21.8718 15.8957 17.6186 15.8882C13.3828 15.8807 9.93971 12.4451 9.92971 8.21187C9.91971 3.96863 13.3603 0.513024 17.6085 0.500522C21.8543 0.48802 25.3149 3.93612 25.3199 8.17686Z" fill="#2E418E"/>
</svg>
