<svg width="35" height="36" viewBox="0 0 35 36" fill="none" xmlns="http://www.w3.org/2000/svg">
<path d="M8.75 15.0837V12.167C8.75 7.33991 10.2083 3.41699 17.5 3.41699C24.7917 3.41699 26.25 7.33991 26.25 12.167V15.0837" stroke="#EDEBDF" stroke-width="2" stroke-linecap="round" stroke-linejoin="round"/>
<path d="M17.5013 27.4797C19.5148 27.4797 21.1471 25.8474 21.1471 23.8338C21.1471 21.8203 19.5148 20.188 17.5013 20.188C15.4878 20.188 13.8555 21.8203 13.8555 23.8338C13.8555 25.8474 15.4878 27.4797 17.5013 27.4797Z" stroke="#EDEBDF" stroke-width="2" stroke-linecap="round" stroke-linejoin="round"/>
<path d="M24.793 32.584H10.2096C4.3763 32.584 2.91797 31.1257 2.91797 25.2923V22.3757C2.91797 16.5423 4.3763 15.084 10.2096 15.084H24.793C30.6263 15.084 32.0846 16.5423 32.0846 22.3757V25.2923C32.0846 31.1257 30.6263 32.584 24.793 32.584Z" stroke="#EDEBDF" stroke-width="2" stroke-linecap="round" stroke-linejoin="round"/>
</svg>
