<svg width="50" height="52" viewBox="0 0 50 52" fill="none" xmlns="http://www.w3.org/2000/svg">
<path d="M29.2116 14.1694V5.57129H20.8158V14.1523C20.7955 15.6815 20.186 17.1438 19.1144 18.2349L19.099 18.2511C17.5103 19.9344 16.6327 22.166 16.6494 24.4806V48.283C16.6401 48.6305 16.6993 48.9764 16.8237 49.3011C16.948 49.6257 17.1351 49.9226 17.3743 50.1749C17.6134 50.4272 17.8999 50.6299 18.2174 50.7715C18.5348 50.9131 18.8771 50.9908 19.2246 51.0001H30.7819C31.1294 50.9908 31.4716 50.9131 31.7891 50.7715C32.1066 50.6299 32.3931 50.4272 32.6322 50.1749C32.8713 49.9226 33.0584 49.6257 33.1828 49.3011C33.3072 48.9764 33.3664 48.6305 33.3571 48.283V24.4806C33.3702 22.1066 32.4485 19.8227 30.7914 18.1226C29.767 17.0629 29.1997 15.6433 29.2116 14.1694Z" stroke="#EDEBDF" stroke-width="2" stroke-linecap="round" stroke-linejoin="round"/>
<path d="M29.1151 38.9939C29.1151 42.0424 27.2621 44.5055 24.9695 44.5055C24.3875 44.4842 23.8185 44.3273 23.3079 44.0473C22.7972 43.7674 22.3589 43.372 22.0279 42.8928C21.2138 41.7579 20.7879 40.3904 20.8136 38.9939V27.783C20.8136 24.7456 22.677 22.2715 24.9696 22.2715C27.2621 22.2715 29.1151 24.7456 29.1151 27.783L29.1151 38.9939Z" stroke="#EDEBDF" stroke-width="2" stroke-linecap="round" stroke-linejoin="round"/>
<path d="M30.5573 2.07157V4.49962C30.5645 4.77635 30.4616 5.04463 30.2712 5.24554C30.0808 5.44646 29.8184 5.56358 29.5417 5.5712H20.3285C20.0518 5.56358 19.7894 5.44645 19.599 5.24554C19.4085 5.04463 19.3056 4.77635 19.3129 4.49962V2.07157C19.3056 1.79485 19.4085 1.52657 19.599 1.32566C19.7894 1.12474 20.0518 1.00762 20.3285 1H29.5417C29.8184 1.00761 30.0808 1.12474 30.2712 1.32565C30.4616 1.52657 30.5645 1.79485 30.5573 2.07157Z" stroke="#EDEBDF" stroke-width="2" stroke-linecap="round" stroke-linejoin="round"/>
<path d="M33.3569 28.9209H29.1172" stroke="#EDEBDF" stroke-width="2" stroke-linecap="round" stroke-linejoin="round"/>
<path d="M20.8149 28.9209H16.6484" stroke="#EDEBDF" stroke-width="2" stroke-linecap="round" stroke-linejoin="round"/>
<path d="M33.3569 37.7012H29.1172" stroke="#EDEBDF" stroke-width="2" stroke-linecap="round" stroke-linejoin="round"/>
<path d="M20.8149 37.7012H16.6484" stroke="#EDEBDF" stroke-width="2" stroke-linecap="round" stroke-linejoin="round"/>
<path d="M44.4986 15.5647V7.87402H37.0492V15.5407C37.0248 16.8806 36.484 18.1594 35.5396 19.1102L35.5259 19.1246C34.1162 20.6182 33.3376 22.5983 33.3524 24.6519V45.7713C33.3441 46.0796 33.3967 46.3866 33.507 46.6746C33.6174 46.9626 33.7834 47.2261 33.9956 47.4499C34.2078 47.6738 34.4619 47.8537 34.7436 47.9793C35.0253 48.1049 35.329 48.1738 35.6373 48.1821H45.8918C46.2002 48.1738 46.5038 48.1049 46.7855 47.9793C47.0672 47.8537 47.3214 47.6738 47.5336 47.4499C47.7458 47.2261 47.9118 46.9626 48.0221 46.6746C48.1325 46.3866 48.185 46.0796 48.1768 45.7713V24.6519C48.1876 22.5962 47.4092 20.6146 46.002 19.1159C45.0632 18.1693 44.5249 16.8977 44.4986 15.5647Z" stroke="#EDEBDF" stroke-width="2" stroke-linecap="round" stroke-linejoin="round"/>
<path d="M44.4136 37.5293C44.4136 40.2342 42.7695 42.4197 40.7354 42.4197C40.219 42.4008 39.7141 42.2616 39.261 42.0132C38.8078 41.7647 38.419 41.414 38.1253 40.9888C37.403 39.9818 37.0251 38.7684 37.0478 37.5293V27.5822C37.0478 24.8871 38.7012 22.6919 40.7353 22.6919C42.7695 22.6919 44.4136 24.8871 44.4136 27.5822L44.4136 37.5293Z" stroke="#EDEBDF" stroke-width="2" stroke-linecap="round" stroke-linejoin="round"/>
<path d="M45.6961 4.76866V6.92301C45.7025 7.16855 45.6112 7.40658 45.4422 7.58485C45.2732 7.76312 45.0404 7.86704 44.7949 7.8738H36.6202C36.3747 7.86704 36.1419 7.76312 35.9729 7.58485C35.804 7.40658 35.7127 7.16855 35.7191 6.92301V4.76866C35.7127 4.52313 35.804 4.28509 35.9729 4.10682C36.1419 3.92855 36.3747 3.82463 36.6202 3.81787H44.7949C45.0404 3.82463 45.2732 3.92855 45.4422 4.10682C45.6112 4.28509 45.7025 4.52312 45.6961 4.76866Z" stroke="#EDEBDF" stroke-width="2" stroke-linecap="round" stroke-linejoin="round"/>
<path d="M48.1759 28.5913H44.4141" stroke="#EDEBDF" stroke-width="2" stroke-linecap="round" stroke-linejoin="round"/>
<path d="M37.0484 28.5913H33.3516" stroke="#EDEBDF" stroke-width="2" stroke-linecap="round" stroke-linejoin="round"/>
<path d="M48.1759 36.3828H44.4141" stroke="#EDEBDF" stroke-width="2" stroke-linecap="round" stroke-linejoin="round"/>
<path d="M37.0484 36.3828H33.3516" stroke="#EDEBDF" stroke-width="2" stroke-linecap="round" stroke-linejoin="round"/>
<path d="M12.9674 15.5647V7.87402H5.51796V15.5407C5.49357 16.8806 4.95274 18.1594 4.0083 19.1102L3.99463 19.1246C2.58499 20.6182 1.80636 22.5983 1.82116 24.6519V45.7713C1.81289 46.0796 1.86544 46.3866 1.97579 46.6746C2.08615 46.9626 2.25215 47.2261 2.46433 47.4499C2.6765 47.6738 2.9307 47.8537 3.21239 47.9793C3.49409 48.1049 3.79777 48.1738 4.10609 48.1821H14.3606C14.669 48.1738 14.9726 48.1049 15.2543 47.9793C15.536 47.8537 15.7902 47.6738 16.0024 47.4499C16.2146 47.2261 16.3806 46.9626 16.4909 46.6746C16.6013 46.3866 16.6538 46.0796 16.6456 45.7713V24.6519C16.6564 22.5962 15.878 20.6146 14.4708 19.1159C13.532 18.1693 12.9936 16.8977 12.9674 15.5647Z" stroke="#EDEBDF" stroke-width="2" stroke-linecap="round" stroke-linejoin="round"/>
<path d="M12.8824 37.5293C12.8824 40.2342 11.2383 42.4197 9.20411 42.4197C8.68771 42.4008 8.18285 42.2616 7.72973 42.0132C7.27661 41.7647 6.88773 41.414 6.59404 40.9888C5.87171 39.9818 5.49382 38.7684 5.5166 37.5293V27.5822C5.5166 24.8871 7.16998 22.6919 9.2041 22.6919C11.2382 22.6919 12.8824 24.8871 12.8824 27.5822L12.8824 37.5293Z" stroke="#EDEBDF" stroke-width="2" stroke-linecap="round" stroke-linejoin="round"/>
<path d="M14.1648 4.76863V6.92299C14.1712 7.16852 14.0799 7.40656 13.911 7.58482C13.742 7.76309 13.5092 7.86701 13.2637 7.87377H5.08896C4.84344 7.86701 4.61063 7.76309 4.44167 7.58482C4.27271 7.40656 4.18141 7.16852 4.18782 6.92299V4.76863C4.18142 4.5231 4.27272 4.28507 4.44168 4.10681C4.61064 3.92855 4.84344 3.82463 5.08896 3.81787H13.2637C13.5092 3.82463 13.742 3.92855 13.9109 4.10681C14.0799 4.28507 14.1712 4.5231 14.1648 4.76863Z" stroke="#EDEBDF" stroke-width="2" stroke-linecap="round" stroke-linejoin="round"/>
<path d="M16.6447 28.5913H12.8828" stroke="#EDEBDF" stroke-width="2" stroke-linecap="round" stroke-linejoin="round"/>
<path d="M5.51713 28.5913H1.82031" stroke="#EDEBDF" stroke-width="2" stroke-linecap="round" stroke-linejoin="round"/>
<path d="M16.6447 36.3828H12.8828" stroke="#EDEBDF" stroke-width="2" stroke-linecap="round" stroke-linejoin="round"/>
<path d="M5.51713 36.3828H1.82031" stroke="#EDEBDF" stroke-width="2" stroke-linecap="round" stroke-linejoin="round"/>
</svg>
