<svg width="51" height="51" viewBox="0 0 51 51" fill="none" xmlns="http://www.w3.org/2000/svg">
<path d="M10.1484 3.625H29.7554C30.1698 3.625 30.5672 3.78962 30.8602 4.08265C31.1533 4.37567 31.3179 4.7731 31.3179 5.1875V8.67656H8.58594V5.1875C8.58594 4.7731 8.75056 4.37567 9.04358 4.08265C9.33661 3.78962 9.73404 3.625 10.1484 3.625Z" stroke="#EDEBDF" stroke-width="2" stroke-linecap="round" stroke-linejoin="round"/>
<path d="M8.58554 8.67676L4.79688 16.1639V43.9022C4.79688 44.3583 4.88671 44.8099 5.06124 45.2313C5.23577 45.6526 5.49159 46.0355 5.81408 46.358C6.13658 46.6805 6.51943 46.9363 6.94079 47.1108C7.36215 47.2854 7.81376 47.3752 8.26983 47.3752H31.092" stroke="#EDEBDF" stroke-width="2" stroke-linecap="round" stroke-linejoin="round"/>
<path d="M27.5312 16.1639L31.3199 8.67676L34.6575 16.1639V43.8121C34.6561 44.7562 34.2801 45.6611 33.6121 46.3282C32.944 46.9953 32.0385 47.3699 31.0944 47.3699C30.1503 47.3699 29.2448 46.9953 28.5767 46.3282C27.9087 45.6611 27.5326 44.7562 27.5312 43.8121V16.1639Z" stroke="#EDEBDF" stroke-width="2" stroke-linecap="round" stroke-linejoin="round"/>
<path d="M4.79688 16.1636H27.5288" stroke="#EDEBDF" stroke-width="2" stroke-linecap="round" stroke-linejoin="round"/>
<path d="M4.79688 42.1654L27.5288 42.0752" stroke="#EDEBDF" stroke-width="2" stroke-linecap="round" stroke-linejoin="round"/>
<path d="M20.9727 32.714C23.4802 29.7563 23.6147 25.7494 21.2731 23.7643C18.9316 21.7792 15.0007 22.5677 12.4933 25.5254C9.98582 28.4832 9.85131 32.4901 12.1928 34.4751C14.5344 36.4602 18.4652 35.6717 20.9727 32.714Z" stroke="#EDEBDF" stroke-width="2" stroke-linecap="round" stroke-linejoin="round"/>
<path d="M22.2373 24.9136L21.7403 25.9566C21.2897 26.9035 20.5813 27.7042 19.6965 28.267C18.8116 28.8298 17.7861 29.1319 16.7375 29.1386C15.7178 29.1451 14.7194 29.4309 13.8508 29.965C12.9821 30.499 12.2764 31.2609 11.8103 32.1678L11.2188 33.3181" stroke="#EDEBDF" stroke-width="2" stroke-linecap="round" stroke-linejoin="round"/>
<g clip-path="url(#clip0_2667_5790)">
<path d="M37.381 18.0136L37.3804 18.0135C37.0423 17.9339 36.7062 17.8543 36.3536 17.7699C36.1317 19.0271 35.5289 20.0625 34.5451 20.8948L34.5449 20.895C33.4721 21.801 32.1997 22.2237 30.7823 22.2366L30.7821 22.2366C29.6209 22.2463 28.5512 21.9318 27.6066 21.2989L27.6064 21.2988C26.3013 20.4226 25.5086 19.2253 25.2325 17.7401C25.1865 17.7473 25.1445 17.7546 25.098 17.7656C24.7521 17.8477 24.4048 17.9336 24.0564 18.0198C23.3636 18.1911 22.6663 18.3636 21.9654 18.5105C20.4495 18.8286 19.3052 19.6156 18.4518 20.8177C18.0927 21.3237 17.7338 21.8304 17.3748 22.3373C16.8001 23.1487 16.225 23.9608 15.6477 24.7712C15.4782 25.0094 15.3079 25.2454 15.1381 25.4807C14.8092 25.9365 14.4821 26.3898 14.1662 26.8522L14.166 26.8525C13.9751 27.131 13.9348 27.3514 13.9754 27.5258C14.0167 27.7032 14.1558 27.8934 14.4517 28.0796L14.4518 28.0797L14.4539 28.081C15.1805 28.539 15.9074 28.9973 16.6344 29.4587L37.381 18.0136ZM37.381 18.0136C38.2069 18.2057 39.0293 18.3977 39.8549 18.5927C41.209 18.9129 42.2556 19.6294 43.0423 20.7014V20.7096L43.0887 20.7748C43.8047 21.7787 44.523 22.7827 45.2413 23.7864L45.2456 23.7925C45.9625 24.7943 46.6791 25.7959 47.3933 26.7974C47.6288 27.1278 47.6816 27.3562 47.6459 27.527C47.6097 27.6999 47.4666 27.8935 47.1178 28.1139L47.1176 28.114C46.8501 28.2835 46.5829 28.4531 46.3157 28.6228C45.8685 28.9068 45.4213 29.1908 44.9723 29.4738C44.6423 29.6814 44.3876 29.7439 44.1756 29.7139C43.9647 29.6841 43.7444 29.5554 43.4986 29.2686L43.4981 29.268C43.3659 29.1146 43.2336 28.9617 43.1016 28.8091C42.7659 28.4211 42.4316 28.0346 42.1018 27.6443C42.0092 27.5326 41.8896 27.4063 41.7343 27.3279C41.5661 27.243 41.3727 27.2226 41.1604 27.2958C40.9384 27.3722 40.8181 27.5248 40.7671 27.6999C40.7296 27.8286 40.7309 27.9724 40.7318 28.0683C40.7319 28.0816 40.732 28.094 40.732 28.1053V28.1407V28.1762V28.2117V28.2472V28.2826V28.3181V28.3536V28.389V28.4245V28.46V28.4955V28.5309V28.5664V28.6019V28.6373V28.6728V28.7083V28.7437V28.7792V28.8147V28.8502V28.8856V28.9211V28.9566V28.992V29.0275V29.063V29.0985V29.1339V29.1694V29.2049V29.2403V29.2758V29.3113V29.3467V29.3822V29.4177V29.4532V29.4886V29.5241V29.5596V29.595V29.6305V29.666V29.7015V29.7369V29.7724V29.8079V29.8433V29.8788V29.9143V29.9497V29.9852V30.0207V30.0562V30.0916V30.1271V30.1626V30.198V30.2335V30.269V30.3045V30.3399V30.3754V30.4109V30.4463V30.4818V30.5173V30.5527V30.5882V30.6237V30.6592V30.6946V30.7301V30.7656V30.801V30.8365V30.872V30.9074V30.9429V30.9784V31.0139V31.0493V31.0848V31.1203V31.1557V31.1912V31.2267V31.2622V31.2976V31.3331V31.3686V31.404V31.4395V31.475V31.5104V31.5459V31.5814V31.6169V31.6523V31.6878V31.7233V31.7587V31.7942V31.8297V31.8652V31.9006V31.9361V31.9716V32.007V32.0425V32.078V32.1134V32.1489V32.1844V32.2199V32.2553V32.2908V32.3263V32.3617V32.3972V32.4327V32.4682V32.5036V32.5391V32.5746V32.61V32.6455V32.681V32.7164V32.7519V32.7874V32.8229V32.8583V32.8938V32.9293V32.9647V33.0002V33.0357V33.0712V33.1066V33.1421V33.1776V33.213V33.2485V33.284V33.3194V33.3549V33.3904V33.4259V33.4613V33.4968V33.5323V33.5677V33.6032V33.6387V33.6742V33.7096V33.7451V33.7806V33.816V33.8515V33.887V33.9224V33.9579V33.9934V34.0289V34.0643V34.0998V34.1353V34.1707V34.2062V34.2417V34.2771V34.3126V34.3481V34.3836V34.419V34.4545V34.49V34.5254V34.5609V34.5964V34.6319V34.6673V34.7028V34.7383V34.7737V34.8092V34.8447V34.8801V34.9156V34.9511V34.9866V35.022V35.0575V35.093V35.1284V35.1639V35.1994V35.2349V35.2703V35.3058V35.3413V35.3767V35.4122V35.4477V35.4831V35.5186V35.5541V35.5896V35.625V35.6605V35.696V35.7314V35.7669V35.8024V35.8379V35.8733V35.9088V35.9443V35.9797V36.0152V36.0507V36.0861V36.1216V36.1571V36.1926V36.228V36.2635V36.299V36.3344V36.3699V36.4054V36.4409V36.4763V36.5118V36.5473V36.5827V36.6182V36.6537V36.6891V36.7246V36.7601V36.7956V36.831V36.8665V36.902V36.9374V36.9729V37.0084V37.0438V37.0793V37.1148V37.1503V37.1857V37.2212V37.2567V37.2921V37.3276V37.3631V37.3986V37.434V37.4695V37.505V37.5404V37.5759V37.6114V37.6469V37.6823V37.7178V37.7533V37.7887V37.8242V37.8597V37.8951V37.9306V37.9661V38.0016V38.037V38.0725V38.108V38.1434V38.1789V38.2144V38.2498V38.2853V38.3208V38.3563V38.3917V38.4272V38.4627V38.4981V38.5336V38.5691V38.6046V38.64V38.6755V38.711V38.7464V38.7819V38.8174V38.8528V38.8883V38.9238V38.9593V38.9947V39.0302V39.0657V39.1011V39.1366V39.1721V39.2076V39.243V39.2785V39.314V39.3494V39.3849V39.4204V39.4558V39.4913V39.5268V39.5623V39.5977V39.6332V39.6687V39.7041V39.7396V39.7751V39.8106V39.846V39.8815V39.917V39.9524V39.9879V40.0234V40.0588V40.0943V40.1298V40.1653V40.2007V40.2362V40.2717V40.3071V40.3426V40.3781V40.4136V40.449V40.4845V40.52V40.5554V40.5909V40.6264V40.6618V40.6973V40.7328V40.7683V40.8037V40.8392V40.8747V40.9101V40.9456V40.9811V41.0166V41.052V41.0875V41.123V41.1584V41.1939V41.2294V41.2648V41.3003V41.3358V41.3713V41.4067V41.4422V41.4777V41.5131V41.5486V41.5841V41.6195V41.655V41.6905V41.726V41.7614V41.7969V41.8324V41.8678V41.9033V41.9388V41.9743V42.0097V42.0452V42.0807V42.1161V42.1516V42.1871V42.2225V42.258V42.2935V42.329V42.3644V42.3999V42.4354V42.4708V42.5063V42.5418V42.5773V42.6127V42.6482V42.6837V42.7191V42.7546V42.7901V42.8255V42.861V42.8965V42.932V42.9674V43.0029V43.0384V43.0738V43.1093V43.1448V43.1803V43.2157V43.2512V43.2867V43.3221V43.3576V43.3931V43.4285V43.464V43.4995V43.535V43.5704V43.6059V43.6414V43.6768V43.7123V43.7478V43.7833V43.8187V43.8542V43.8897V43.9251V43.9606V43.9961V44.0315V44.067V44.1025V44.138V44.1734V44.2089V44.2444V44.2798V44.3153V44.3508V44.3862V44.4217V44.4572V44.4927V44.5281V44.5636V44.5991V44.6345V44.67V44.7055V44.741V44.7764V44.8119V44.8474V44.8828V44.9183V44.9538V44.9892V45.0247V45.0602V45.0957V45.1311V45.1666V45.2021V45.2375V45.273V45.3085V45.344V45.3794V45.4149V45.4504V45.4858V45.5213V45.5568V45.5922V45.6277V45.6632V45.6987V45.7341V45.7696V45.8051V45.8405V45.876V45.9115V45.947V45.9824V46.0179V46.0534V46.0888V46.1243V46.1598V46.1952V46.2307V46.2662C40.732 46.4158 40.7286 46.5546 40.7086 46.6865C40.674 46.9046 40.5802 47.0699 40.4468 47.1856C40.3124 47.3021 40.1229 47.3811 39.8772 47.3984C39.8022 47.4025 39.7278 47.402 39.6458 47.4014C39.6162 47.4012 39.5857 47.401 39.5537 47.401H39.5195H39.4852H39.4509H39.4166H39.3823H39.348H39.3137H39.2795H39.2452H39.2109H39.1766H39.1423H39.108H39.0737H39.0395H39.0052H38.9709H38.9366H38.9023H38.868H38.8337H38.7995H38.7652H38.7309H38.6966H38.6623H38.628H38.5938H38.5595H38.5252H38.4909H38.4566H38.4223H38.388H38.3538H38.3195H38.2852H38.2509H38.2166H38.1823H38.148H38.1138H38.0795H38.0452H38.0109H37.9766H37.9423H37.908H37.8738H37.8395H37.8052H37.7709H37.7366H37.7023H37.668H37.6338H37.5995H37.5652H37.5309H37.4966H37.4623H37.428H37.3938H37.3595H37.3252H37.2909H37.2566H37.2223H37.1881H37.1538H37.1195H37.0852H37.0509H37.0166H36.9823H36.9481H36.9138H36.8795H36.8452H36.8109H36.7766H36.7423H36.7081H36.6738H36.6395H36.6052H36.5709H36.5366H36.5023H36.4681H36.4338H36.3995H36.3652H36.3309H36.2966H36.2624H36.2281H36.1938H36.1595H36.1252H36.0909H36.0566H36.0224H35.9881H35.9538H35.9195H35.8852H35.8509H35.8166H35.7824H35.7481H35.7138H35.6795H35.6452H35.6109H35.5766H35.5424H35.5081H35.4738H35.4395H35.4052H35.3709H35.3366H35.3024H35.2681H35.2338H35.1995H35.1652H35.1309H35.0966H35.0624H35.0281H34.9938H34.9595H34.9252H34.8909H34.8567H34.8224H34.7881H34.7538H34.7195H34.6852H34.6509H34.6167H34.5824H34.5481H34.5138H34.4795H34.4452H34.4109H34.3767H34.3424H34.3081H34.2738H34.2395H34.2052H34.1709H34.1367H34.1024H34.0681H34.0338H33.9995H33.9652H33.9309H33.8967H33.8624H33.8281H33.7938H33.7595H33.7252H33.691H33.6567H33.6224H33.5881H33.5538H33.5195H33.4852H33.451H33.4167H33.3824H33.3481H33.3138H33.2795H33.2452H33.211H33.1767H33.1424H33.1081H33.0738H33.0395H33.0052H32.971H32.9367H32.9024H32.8681H32.8338H32.7995H32.7652H32.731H32.6967H32.6624H32.6281H32.5938H32.5595H32.5253H32.491H32.4567H32.4224H32.3881H32.3538H32.3195H32.2853H32.251H32.2167H32.1824H32.1481H32.1138H32.0795H32.0453H32.011H31.9767H31.9424H31.9081H31.8738H31.8395H31.8053H31.771H31.7367H31.7024H31.6681H31.6338H31.5995H31.5653H31.531H31.4967H31.4624H31.4281H31.3938H31.3596H31.3253H31.291H31.2567H31.2224H31.1881H31.1538H31.1196H31.0853H31.051H31.0167H30.9824H30.9481H30.9138H30.8796H30.8453H30.811H30.7767H30.7424H30.7081H30.6738H30.6396H30.6053H30.571H30.5367H30.5024H30.4681H30.4338H30.3996H30.3653H30.331H30.2967H30.2624H30.2281H30.1939H30.1596H30.1253H30.091H30.0567H30.0224H29.9881H29.9539H29.9196H29.8853H29.851H29.8167H29.7824H29.7481H29.7139H29.6796H29.6453H29.611H29.5767H29.5424H29.5081H29.4739H29.4396H29.4053H29.371H29.3367H29.3024H29.2681H29.2339H29.1996H29.1653H29.131H29.0967H29.0624H29.0282H28.9939H28.9596H28.9253H28.891H28.8567H28.8224H28.7882H28.7539H28.7196H28.6853H28.651H28.6167H28.5824H28.5482H28.5139H28.4796H28.4453H28.411H28.3767H28.3424H28.3082H28.2739H28.2396H28.2053H28.171H28.1367H28.1024H28.0682H28.0339H27.9996H27.9653H27.931H27.8967H27.8625H27.8282H27.7939H27.7596H27.7253H27.691H27.6567H27.6225H27.5882H27.5539H27.5196H27.4853H27.451H27.4167H27.3825H27.3482H27.3139H27.2796H27.2453H27.211H27.1767H27.1425H27.1082H27.0739H27.0396H27.0053H26.971H26.9367H26.9025H26.8682H26.8339H26.7996H26.7653H26.731H26.6968H26.6625H26.6282H26.5939H26.5596H26.5253H26.491H26.4568H26.4225H26.3882H26.3539H26.3196H26.2853H26.251H26.2168H26.1825H26.1482H26.1139H26.0796H26.0453H26.011H25.9768H25.9425H25.9082H25.8739H25.8396H25.8053H25.771H25.7368H25.7025H25.6682H25.6339H25.5996H25.5653H25.531H25.4968H25.4625H25.4282H25.3939H25.3596H25.3253H25.2911H25.2568H25.2225H25.1882H25.1539H25.1196H25.0853H25.0511H25.0168H24.9825H24.9482H24.9139H24.8796H24.8453H24.8111H24.7768H24.7425H24.7082H24.6739H24.6396H24.6053H24.5711H24.5368H24.5025H24.4682H24.4339H24.3996H24.3653H24.3311H24.2968H24.2625H24.2282H24.1939H24.1596H24.1254H24.0911H24.0568H24.0225H23.9882H23.9539H23.9196H23.8854H23.8511H23.8168H23.7825H23.7482H23.7139H23.6796H23.6454H23.6111H23.5768H23.5425H23.5082H23.4739H23.4396H23.4054H23.3711H23.3368H23.3025H23.2682H23.2339H23.1996H23.1654H23.1311H23.0968H23.0625H23.0282H22.9939H22.9597H22.9254H22.8911H22.8568H22.8225H22.7882H22.7539H22.7197H22.6854H22.6511H22.6168H22.5825H22.5482H22.5139H22.4797H22.4454H22.4111H22.3768H22.3425H22.3082H22.2739H22.2397H22.2054H22.1711H22.1368H22.1025H22.0682H22.0339H21.9997C21.524 47.401 21.2569 47.3101 21.1041 47.1659C20.955 47.0253 20.8609 46.7825 20.8609 46.3405V46.305V46.2695V46.2339V46.1984V46.1628V46.1273V46.0917V46.0562V46.0207V45.9851V45.9496V45.914V45.8785V45.8429V45.8074V45.7719V45.7363V45.7008V45.6652V45.6297V45.5941V45.5586V45.523V45.4875V45.452V45.4164V45.3809V45.3453V45.3098V45.2742V45.2387V45.2032V45.1676V45.1321V45.0965V45.061V45.0254V44.9899V44.9544V44.9188V44.8833V44.8477V44.8122V44.7766V44.7411V44.7056V44.67V44.6345V44.5989V44.5634V44.5278V44.4923V44.4568V44.4212V44.3857V44.3501V44.3146V44.279V44.2435V44.208V44.1724V44.1369V44.1013V44.0658V44.0302V43.9947V43.9592V43.9236V43.8881V43.8525V43.817V43.7814V43.7459V43.7103V43.6748V43.6393V43.6037V43.5682V43.5326V43.4971V43.4615V43.426V43.3905V43.3549V43.3194V43.2838V43.2483V43.2127V43.1772V43.1417V43.1061V43.0706V43.035V42.9995V42.9639V42.9284V42.8929V42.8573V42.8218V42.7862V42.7507V42.7151V42.6796V42.6441V42.6085V42.573V42.5374V42.5019V42.4663V42.4308V42.3953V42.3597V42.3242V42.2886V42.2531V42.2175V42.182V42.1465V42.1109V42.0754V42.0398V42.0043V41.9687V41.9332V41.8976V41.8621V41.8266V41.791V41.7555V41.7199V41.6844V41.6488V41.6133V41.5778V41.5422V41.5067V41.4711V41.4356V41.4V41.3645V41.329V41.2934V41.2579V41.2223V41.1868V41.1512V41.1157V41.0802V41.0446V41.0091V40.9735V40.938V40.9024V40.8669V40.8314V40.7958V40.7603V40.7247V40.6892V40.6536V40.6181V40.5826V40.547V40.5115V40.4759V40.4404V40.4048V40.3693V40.3337V40.2982V40.2627V40.2271V40.1916V40.156V40.1205V40.0849V40.0494V40.0139V39.9783V39.9428V39.9072V39.8717V39.8361V39.8006V39.7651V39.7295V39.694V39.6584V39.6229V39.5873V39.5518V39.5163V39.4807V39.4452V39.4096V39.3741V39.3385V39.303V39.2675V39.2319V39.1964V39.1608V39.1253V39.0897V39.0542V39.0187V38.9831V38.9476V38.912V38.8765V38.8409V38.8054V38.7699V38.7343V38.6988V38.6632V38.6277V38.5921V38.5566V38.5211V38.4855V38.45V38.4144V38.3789V38.3433V38.3078V38.2722V38.2367V38.2012V38.1656V38.1301V38.0945V38.059V38.0234V37.9879V37.9524V37.9168V37.8813V37.8457V37.8102V37.7746V37.7391V37.7036V37.668V37.6325V37.5969V37.5614V37.5258V37.4903V37.4548V37.4192V37.3837V37.3481V37.3126V37.277V37.2415V37.206V37.1704V37.1349V37.0993V37.0638V37.0282V36.9927V36.9572V36.9216V36.8861V36.8505V36.815V36.7794V36.7439V36.7084V36.6728V36.6373V36.6017V36.5662V36.5306V36.4951V36.4595V36.424V36.3885V36.3529V36.3174V36.2818V36.2463V36.2107V36.1752V36.1397V36.1041V36.0686V36.033V35.9975V35.9619V35.9264V35.8909V35.8553V35.8198V35.7842V35.7487V35.7131V35.6776V35.6421V35.6065V35.571V35.5354V35.4999V35.4643V35.4288V35.3933V35.3577V35.3222V35.2866V35.2511V35.2155V35.18V35.1445V35.1089V35.0734V35.0378V35.0023V34.9667V34.9312V34.8957V34.8601V34.8246V34.789V34.7535V34.7179V34.6824V34.6468V34.6113V34.5758V34.5402V34.5047V34.4691V34.4336V34.398V34.3625V34.327V34.2914V34.2559V34.2203V34.1848V34.1492V34.1137V34.0782V34.0426V34.0071V33.9715V33.936V33.9004V33.8649V33.8294V33.7938V33.7583V33.7227V33.6872V33.6516V33.6161V33.5806V33.545V33.5095V33.4739V33.4384V33.4028V33.3673V33.3318V33.2962V33.2607V33.2251V33.1896V33.154V33.1185V33.083V33.0474V33.0119V32.9763V32.9408V32.9052V32.8697V32.8341V32.7986V32.7631V32.7275V32.692V32.6564V32.6209V32.5853V32.5498V32.5143V32.4787V32.4432V32.4076V32.3721V32.3365V32.301V32.2655V32.2299V32.1944V32.1588V32.1233V32.0877V32.0522V32.0167V31.9811V31.9456V31.91V31.8745V31.8389V31.8034V31.7679V31.7323V31.6968V31.6612V31.6257V31.5901V31.5546V31.5191V31.4835V31.448V31.4124V31.3769V31.3413V31.3058V31.2703V31.2347V31.1992V31.1636V31.1281V31.0925V31.057V31.0214V30.9859V30.9504V30.9148V30.8793V30.8437V30.8082V30.7726V30.7371V30.7016V30.666V30.6305V30.5949V30.5594V30.5238V30.4883V30.4528V30.4172V30.3817V30.3461V30.3106V30.275V30.2395V30.204V30.1684V30.1329V30.0973V30.0618V30.0262V29.9907V29.9552V29.9196V29.8841V29.8485V29.813V29.7774V29.7419V29.7064V29.6708V29.6353V29.5997V29.5642V29.5286V29.4931V29.4576V29.422V29.3865V29.3509V29.3154V29.2798V29.2443V29.2087V29.1732V29.1377V29.1021V29.0666V29.031V28.9955V28.9599V28.9244V28.8889V28.8533V28.8178V28.7822V28.7467V28.7111V28.6756V28.6401V28.6045V28.569V28.5334V28.4979V28.4623V28.4268V28.3913V28.3557V28.3202V28.2846V28.2491V28.2135V28.178V28.1425C20.8609 28.1299 20.861 28.1162 20.8612 28.1014C20.8622 28.0003 20.8637 27.8511 20.8238 27.7194C20.7983 27.6356 20.7547 27.5496 20.6808 27.4744C20.6071 27.3995 20.5143 27.3465 20.4067 27.3124L20.406 27.3122C20.1847 27.2427 19.9913 27.2745 19.8275 27.3691C19.6802 27.4544 19.5667 27.5859 19.4815 27.6873L19.4814 27.6875C19.1865 28.0391 18.887 28.3838 18.5859 28.7305C18.4345 28.9047 18.2827 29.0794 18.1309 29.2557L18.1304 29.2563M37.381 18.0136L18.1304 29.2563M18.1304 29.2563C17.8693 29.5614 17.6517 29.6912 17.4465 29.7196M18.1304 29.2563L17.4465 29.7196M17.4465 29.7196C17.2396 29.7481 16.986 29.6818 16.6344 29.4587L17.4465 29.7196ZM38.263 26.2691H38.267H38.263ZM38.263 26.2691H38.2591M38.263 26.2691H38.2591M38.2591 26.2691H38.2552M38.2591 26.2691H38.2552M38.2552 26.2691H38.2512M38.2552 26.2691H38.2512M38.2512 26.2691H38.2473M38.2512 26.2691H38.2473M38.2473 26.2691H38.2434M38.2473 26.2691H38.2434M38.2434 26.2691H38.2394M38.2434 26.2691H38.2394M38.2394 26.2691H38.2355M38.2394 26.2691H38.2355M38.2355 26.2691H38.2316M38.2355 26.2691H38.2316M38.2316 26.2691H38.2276M38.2316 26.2691H38.2276M38.2276 26.2691H38.2237M38.2276 26.2691H38.2237M38.2237 26.2691H38.2198M38.2237 26.2691H38.2198M38.2198 26.2691H38.2158M38.2198 26.2691H38.2158M38.2158 26.2691H38.2119M38.2158 26.2691H38.2119M38.2119 26.2691H38.2079M38.2119 26.2691H38.2079M38.2079 26.2691H38.204M38.2079 26.2691H38.204M38.204 26.2691H38.2001M38.204 26.2691H38.2001M38.2001 26.2691H38.1961M38.2001 26.2691H38.1961M38.1961 26.2691H38.1922M38.1961 26.2691H38.1922M38.1922 26.2691H38.1883M38.1922 26.2691H38.1883M38.1883 26.2691H38.1843M38.1883 26.2691H38.1843M38.1843 26.2691H38.1804M38.1843 26.2691H38.1804M38.1804 26.2691H38.1765M38.1804 26.2691H38.1765M38.1765 26.2691H38.1725M38.1765 26.2691H38.1725M38.1725 26.2691H38.1686M38.1725 26.2691H38.1686M38.1686 26.2691H38.1647M38.1686 26.2691H38.1647M38.1647 26.2691H38.1607M38.1647 26.2691H38.1607M38.1607 26.2691H38.1568M38.1607 26.2691H38.1568M38.1568 26.2691H38.1529M38.1568 26.2691H38.1529M38.1529 26.2691H38.1489M38.1529 26.2691H38.1489M38.1489 26.2691H38.145M38.1489 26.2691H38.145M38.145 26.2691H38.141M38.145 26.2691H38.141M38.141 26.2691H38.1371M38.141 26.2691H38.1371M38.1371 26.2691H38.1332M38.1371 26.2691H38.1332M38.1332 26.2691H38.1292M38.1332 26.2691H38.1292M38.1292 26.2691H38.1253M38.1292 26.2691H38.1253M38.1253 26.2691H38.1214M38.1253 26.2691H38.1214M38.1214 26.2691H38.1174M38.1214 26.2691H38.1174M38.1174 26.2691H38.1135M38.1174 26.2691H38.1135M38.1135 26.2691H38.1096M38.1135 26.2691H38.1096M38.1096 26.2691H38.1056M38.1096 26.2691H38.1056M38.1056 26.2691H38.1017M38.1056 26.2691H38.1017M38.1017 26.2691H38.0977M38.1017 26.2691H38.0977M38.0977 26.2691H38.0938M38.0977 26.2691H38.0938M38.0938 26.2691H38.0899M38.0938 26.2691H38.0899M38.0899 26.2691H38.0859M38.0899 26.2691H38.0859M38.0859 26.2691H38.082M38.0859 26.2691H38.082M38.082 26.2691H38.0781M38.082 26.2691H38.0781M38.0781 26.2691H38.0741M38.0781 26.2691H38.0741M38.0741 26.2691H38.0702M38.0741 26.2691H38.0702M38.0702 26.2691H38.0663M38.0702 26.2691H38.0663M38.0663 26.2691H38.0623M38.0663 26.2691H38.0623M38.0623 26.2691H38.0584M38.0623 26.2691H38.0584M38.0584 26.2691H38.0544M38.0584 26.2691H38.0544M38.0544 26.2691H38.0505M38.0544 26.2691H38.0505M38.0505 26.2691H38.0466M38.0505 26.2691H38.0466M38.0466 26.2691H38.0426M38.0466 26.2691H38.0426M38.0426 26.2691H38.0387M38.0426 26.2691H38.0387M38.0387 26.2691H38.0348M38.0387 26.2691H38.0348M38.0348 26.2691H38.0308M38.0348 26.2691H38.0308M38.0308 26.2691H38.0269M38.0308 26.2691H38.0269M38.0269 26.2691H38.0229M38.0269 26.2691H38.0229M38.0229 26.2691H38.019M38.0229 26.2691H38.019M38.019 26.2691H38.0151M38.019 26.2691H38.0151M38.0151 26.2691H38.0111M38.0151 26.2691H38.0111M38.0111 26.2691H38.0072M38.0111 26.2691H38.0072M38.0072 26.2691H38.0032M38.0072 26.2691H38.0032M38.0032 26.2691H37.9993M38.0032 26.2691H37.9993M37.9993 26.2691H37.9954M37.9993 26.2691H37.9954M37.9954 26.2691H37.9914M37.9954 26.2691H37.9914M37.9914 26.2691H37.9875M37.9914 26.2691H37.9875M37.9875 26.2691H37.9836M37.9875 26.2691H37.9836M37.9836 26.2691H37.9796M37.9836 26.2691H37.9796M37.9796 26.2691H37.9757M37.9796 26.2691H37.9757M37.9757 26.2691H37.9717M37.9757 26.2691H37.9717M37.9717 26.2691H37.9678M37.9717 26.2691H37.9678M37.9678 26.2691H37.9639M37.9678 26.2691H37.9639M37.9639 26.2691H37.9599M37.9639 26.2691H37.9599M37.9599 26.2691H37.956M37.9599 26.2691H37.956M37.956 26.2691H37.952M37.956 26.2691H37.952M37.952 26.2691H37.9481M37.952 26.2691H37.9481M37.9481 26.2691H37.9442M37.9481 26.2691H37.9442M37.9442 26.2691H37.9402M37.9442 26.2691H37.9402M37.9402 26.2691H37.9363M37.9402 26.2691H37.9363M37.9363 26.2691H37.9324M37.9363 26.2691H37.9324M37.9324 26.2691H37.9284M37.9324 26.2691H37.9284M37.9284 26.2691H37.9245M37.9284 26.2691H37.9245M37.9245 26.2691H37.9205M37.9245 26.2691H37.9205M37.9205 26.2691H37.9166M37.9205 26.2691H37.9166M37.9166 26.2691H37.9127M37.9166 26.2691H37.9127M37.9127 26.2691H37.9087M37.9127 26.2691H37.9087M37.9087 26.2691H37.9048M37.9087 26.2691H37.9048M37.9048 26.2691H37.9008M37.9048 26.2691H37.9008M37.9008 26.2691H37.8969M37.9008 26.2691H37.8969M37.8969 26.2691H37.893M37.8969 26.2691H37.893M37.893 26.2691H37.889M37.893 26.2691H37.889M37.889 26.2691H37.8851M37.889 26.2691H37.8851M37.8851 26.2691H37.8811M37.8851 26.2691H37.8811M37.8811 26.2691H37.8772M37.8811 26.2691H37.8772M37.8772 26.2691H37.8733M37.8772 26.2691H37.8733M37.8733 26.2691H37.8693M37.8733 26.2691H37.8693M37.8693 26.2691H37.8654M37.8693 26.2691H37.8654M37.8654 26.2691H37.8614M37.8654 26.2691H37.8614M37.8614 26.2691H37.8575M37.8614 26.2691H37.8575M37.8575 26.2691H37.8536M37.8575 26.2691H37.8536M37.8536 26.2691H37.8496M37.8536 26.2691H37.8496M37.8496 26.2691H37.8457M37.8496 26.2691H37.8457M37.8457 26.2691H37.8417M37.8457 26.2691H37.8417M37.8417 26.2691H37.8378M37.8417 26.2691H37.8378M37.8378 26.2691H37.8339M37.8378 26.2691H37.8339M37.8339 26.2691H37.8299M37.8339 26.2691H37.8299M37.8299 26.2691H37.826M37.8299 26.2691H37.826M37.826 26.2691H37.822M37.826 26.2691H37.822M37.822 26.2691H37.8181M37.822 26.2691H37.8181M37.8181 26.2691H37.8142M37.8181 26.2691H37.8142M37.8142 26.2691H37.8102M37.8142 26.2691H37.8102M37.8102 26.2691H37.8063M37.8102 26.2691H37.8063M37.8063 26.2691H37.8023M37.8063 26.2691H37.8023M37.8023 26.2691H37.7984M37.8023 26.2691H37.7984M37.7984 26.2691H37.7945M37.7984 26.2691H37.7945M37.7945 26.2691H37.7905M37.7945 26.2691H37.7905M37.7905 26.2691H37.7866M37.7905 26.2691H37.7866M37.7866 26.2691H37.7826M37.7866 26.2691H37.7826M37.7826 26.2691H37.7787M37.7826 26.2691H37.7787M37.7787 26.2691H37.7748M37.7787 26.2691H37.7748M37.7748 26.2691H37.7708M37.7748 26.2691H37.7708M37.7708 26.2691H37.7669M37.7708 26.2691H37.7669M37.7669 26.2691H37.7629M37.7669 26.2691H37.7629M37.7629 26.2691H37.759M37.7629 26.2691H37.759M37.759 26.2691H37.755M37.759 26.2691H37.755M37.755 26.2691H37.7511M37.755 26.2691H37.7511M37.7511 26.2691H37.7472M37.7511 26.2691H37.7472M37.7472 26.2691H37.7432M37.7472 26.2691H37.7432M37.7432 26.2691H37.7393M37.7432 26.2691H37.7393M37.7393 26.2691H37.7353M37.7393 26.2691H37.7353M37.7353 26.2691H37.7314M37.7353 26.2691H37.7314M37.7314 26.2691H37.7275M37.7314 26.2691H37.7275M37.7275 26.2691H37.7235M37.7275 26.2691H37.7235M37.7235 26.2691H37.7196M37.7235 26.2691H37.7196M37.7196 26.2691H37.7156M37.7196 26.2691H37.7156M37.7156 26.2691H37.7117M37.7156 26.2691H37.7117M37.7117 26.2691H37.7078M37.7117 26.2691H37.7078M37.7078 26.2691H37.7038M37.7078 26.2691H37.7038M37.7038 26.2691H37.6999M37.7038 26.2691H37.6999M37.6999 26.2691H37.6959M37.6999 26.2691H37.6959M37.6959 26.2691H37.692M37.6959 26.2691H37.692M37.692 26.2691H37.688M37.692 26.2691H37.688M37.688 26.2691H37.6841M37.688 26.2691H37.6841M37.6841 26.2691H37.6802M37.6841 26.2691H37.6802M37.6802 26.2691H37.6762M37.6802 26.2691H37.6762M37.6762 26.2691H37.6723M37.6762 26.2691H37.6723M37.6723 26.2691H37.6683M37.6723 26.2691H37.6683M37.6683 26.2691H37.6644M37.6683 26.2691H37.6644M37.6644 26.2691H37.6605M37.6644 26.2691H37.6605M37.6605 26.2691H37.6565M37.6605 26.2691H37.6565M37.6565 26.2691H37.6526M37.6565 26.2691H37.6526M37.6526 26.2691H37.6486M37.6526 26.2691H37.6486M37.6486 26.2691H37.6447M37.6486 26.2691H37.6447M37.6447 26.2691H37.6407M37.6447 26.2691H37.6407M37.6407 26.2691H37.6368M37.6407 26.2691H37.6368M37.6368 26.2691H37.6329M37.6368 26.2691H37.6329M37.6329 26.2691H37.6289M37.6329 26.2691H37.6289M37.6289 26.2691H37.625M37.6289 26.2691H37.625M37.625 26.2691H37.621M37.625 26.2691H37.621M37.621 26.2691H37.6171M37.621 26.2691H37.6171M37.6171 26.2691H37.6131M37.6171 26.2691H37.6131M37.6131 26.2691H37.6092M37.6131 26.2691H37.6092M37.6092 26.2691H37.6053M37.6092 26.2691H37.6053M37.6053 26.2691H37.6013M37.6053 26.2691H37.6013M37.6013 26.2691H37.5974M37.6013 26.2691H37.5974M37.5974 26.2691H37.5934M37.5974 26.2691H37.5934M37.5934 26.2691H37.5895M37.5934 26.2691H37.5895M37.5895 26.2691H37.5856M37.5895 26.2691H37.5856M37.5856 26.2691H37.5816M37.5856 26.2691H37.5816M37.5816 26.2691H37.5777M37.5816 26.2691H37.5777M37.5777 26.2691H37.5737M37.5777 26.2691H37.5737M37.5737 26.2691H37.5698M37.5737 26.2691H37.5698M37.5698 26.2691H37.5658M37.5698 26.2691H37.5658M37.5658 26.2691H37.5619M37.5658 26.2691H37.5619M37.5619 26.2691H37.558M37.5619 26.2691H37.558M37.558 26.2691H37.554M37.558 26.2691H37.554M37.554 26.2691H37.5501M37.554 26.2691H37.5501M37.5501 26.2691H37.5461M37.5501 26.2691H37.5461M37.5461 26.2691H37.5422M37.5461 26.2691H37.5422M37.5422 26.2691H37.5382M37.5422 26.2691H37.5382M37.5382 26.2691H37.5343M37.5382 26.2691H37.5343M37.5343 26.2691H37.5304M37.5343 26.2691H37.5304M37.5304 26.2691H37.5264M37.5304 26.2691H37.5264M37.5264 26.2691H37.5225M37.5264 26.2691H37.5225M37.5225 26.2691H37.5185M37.5225 26.2691H37.5185M37.5185 26.2691H37.5146M37.5185 26.2691H37.5146M37.5146 26.2691H37.5106M37.5146 26.2691H37.5106M37.5106 26.2691H37.5067M37.5106 26.2691H37.5067M37.5067 26.2691H37.5028M37.5067 26.2691H37.5028M37.5028 26.2691H37.4988H37.5028ZM34.2317 26.2629C34.0737 26.2629 33.885 26.2836 33.7274 26.3804C33.5499 26.4895 33.449 26.6713 33.4394 26.9054L33.4394 26.9061C33.4349 27.0231 33.4528 27.1346 33.5013 27.2344C33.5508 27.3362 33.6252 27.4113 33.7108 27.4637C33.8707 27.5618 34.0651 27.5777 34.2156 27.5777C34.2155 27.5777 34.2153 27.5777 34.2152 27.5777L34.2317 26.2629Z" fill="#2E418E" stroke="#EDEBDF" stroke-width="0.5"/>
<path d="M30.7627 21.1628C33.2342 21.1876 35.1035 19.3566 35.2615 17.377H26.3594C26.4746 19.1645 28.2451 21.138 30.7627 21.1628Z" fill="#2E418E"/>
<path d="M44.0871 20.1835C43.3137 19.0991 42.3133 18.241 40.9903 17.8103C40.1182 17.5253 39.2033 17.358 38.318 17.1071C36.7153 16.6548 35.0896 16.4689 33.4144 16.503C31.226 16.5494 29.0375 16.5092 26.8457 16.5185C26.408 16.5185 25.9604 16.537 25.5359 16.6269C24.1931 16.9088 22.8537 17.2186 21.5176 17.5315C20.0169 17.8816 18.74 18.6097 17.8547 19.8024C16.2388 21.9835 14.6756 24.1986 13.1256 26.423C12.5332 27.275 12.7636 28.2694 13.639 28.8612C14.4946 29.4405 15.3766 29.992 16.2685 30.5217C17.134 31.036 18.2167 30.8408 18.8749 30.0973C19.1415 29.7968 19.4015 29.4932 19.724 29.1214V29.6388C19.724 35.2525 19.7273 40.8693 19.724 46.483C19.724 47.84 20.7968 48.5061 21.8631 48.503C27.8132 48.4813 33.7666 48.4937 39.7167 48.4906C39.9405 48.4906 40.1741 48.4906 40.388 48.4348C41.4017 48.1777 41.9019 47.4899 41.9019 46.3808C41.9019 40.8011 41.9019 35.2215 41.9019 29.6419V29.1121C42.231 29.4901 42.4877 29.7937 42.7477 30.088C43.4289 30.8625 44.5248 31.0298 45.4199 30.4846C46.2427 29.9827 47.0556 29.4715 47.8651 28.9479C48.8853 28.288 49.0828 27.2223 48.3983 26.2557C46.9601 24.2327 45.5318 22.2034 44.0871 20.1804V20.1835ZM35.264 17.3735C35.106 19.3532 33.2367 21.1842 30.7652 21.1594C28.2476 21.1346 26.4771 19.1611 26.3619 17.3735H35.264ZM47.253 28.3128C46.5356 28.7651 45.8247 29.2236 45.1073 29.6729C44.3932 30.1221 43.8501 30.0446 43.3104 29.4188C42.8431 28.8767 42.3725 28.3376 41.9118 27.7923C41.734 27.5848 41.5399 27.4175 41.2437 27.5197C40.964 27.6158 40.9837 27.8667 40.9837 28.0929C40.9837 34.1465 40.9837 40.2001 40.9837 46.2538C40.9837 46.4056 40.9837 46.5636 40.9574 46.7123C40.8751 47.2544 40.4802 47.5952 39.8944 47.6355C39.7825 47.6417 39.6673 47.6386 39.5554 47.6386C33.7041 47.6386 27.8527 47.6386 22.0013 47.6386C21.0075 47.6386 20.6125 47.2668 20.6125 46.3281C20.6125 40.2621 20.6125 34.1961 20.6125 28.13C20.6125 27.8884 20.6356 27.6343 20.3328 27.5383C20.03 27.4423 19.849 27.6281 19.6746 27.8357C19.2303 28.3655 18.7729 28.8829 18.322 29.4064C17.7593 30.057 17.2492 30.1283 16.5021 29.6574C15.7748 29.1989 15.0475 28.7373 14.3202 28.2787C13.6653 27.8667 13.5304 27.3276 13.9615 26.6987C14.442 25.9955 14.9521 25.3108 15.4457 24.6137C16.3804 23.297 17.3117 21.9773 18.2496 20.6606C19.1382 19.4121 20.3361 18.5849 21.9158 18.2534C22.9656 18.0334 23.999 17.7577 25.0422 17.5098C25.1607 17.482 25.2824 17.4665 25.4404 17.4417C25.6609 18.9721 26.431 20.1897 27.7474 21.0788C28.6491 21.686 29.6693 21.9835 30.7817 21.9742C32.1507 21.9618 33.3651 21.5559 34.3853 20.6916C35.3923 19.8396 35.9781 18.7708 36.1493 17.451C36.5968 17.5563 37.0181 17.6585 37.4393 17.7577C38.2654 17.9498 39.0881 18.1418 39.9141 18.337C41.3556 18.6778 42.4679 19.4523 43.294 20.6079C44.7255 22.6155 46.167 24.6199 47.5986 26.6306C48.1021 27.3369 47.9935 27.8357 47.253 28.3035V28.3128Z" fill="#EDEBDF"/>
<path d="M38.2657 26.5194C37.5911 26.5194 36.9197 26.5194 36.2484 26.5194V26.5132C35.577 26.5132 34.9024 26.5132 34.231 26.5132C33.9447 26.5132 33.7011 26.5937 33.688 26.9159C33.6748 27.2567 33.9315 27.3249 34.2145 27.328C35.5704 27.3311 36.9263 27.3311 38.2789 27.328C38.5619 27.328 38.8219 27.2629 38.8087 26.919C38.7956 26.5999 38.5652 26.5163 38.269 26.5194H38.2657Z" fill="#EDEBDF"/>
</g>
<defs>
<clipPath id="clip0_2667_5790">
<rect width="36" height="32" fill="white" transform="translate(12.7969 16.5)"/>
</clipPath>
</defs>
</svg>
