<svg width="172" height="163" viewBox="0 0 172 163" fill="none" xmlns="http://www.w3.org/2000/svg">
<circle cx="85" cy="93.5" r="67" fill="#2E418E"/>
<circle cx="165.5" cy="33" r="6.5" fill="#2E418E"/>
<ellipse cx="10.5" cy="10.5" rx="10.5" ry="10" fill="#2E418E"/>
<ellipse cx="5" cy="137" rx="5" ry="5.5" fill="#2E418E"/>
<ellipse cx="153.5" cy="160.5" rx="2.5" ry="2" fill="#2E418E"/>
<path fill-rule="evenodd" clip-rule="evenodd" d="M84.9926 64C99.3594 64 111 75.6406 111 89.9926C111 104.345 99.3594 116 84.9926 116C70.6257 116 59 104.359 59 89.9926C59 75.6257 70.6406 64 84.9926 64ZM84.1531 105.949V102.785C82.5634 102.577 81.2857 102.22 80.2754 101.715C79.2949 101.195 78.4331 100.378 77.72 99.2411C76.9846 98.0897 76.5909 96.708 76.4646 95.0514L79.6291 94.4423C79.8817 96.1583 80.32 97.4137 80.9514 98.2086C81.828 99.3377 82.8977 99.9691 84.1531 100.095V90.1486C82.8309 89.8143 81.516 89.2497 80.1566 88.492C79.1537 87.9274 78.3737 87.1549 77.8314 86.1446C77.2891 85.1417 77.0143 84.0051 77.0143 82.7497C77.0143 80.4914 77.8091 78.664 79.3989 77.26C80.4686 76.3166 82.0583 75.7297 84.1531 75.5217V74.0137H86.0177V75.5217C87.86 75.7074 89.3086 76.2571 90.3931 77.156C91.7526 78.3074 92.592 79.8971 92.8669 81.9103L89.6206 82.4154C89.4497 81.16 89.056 80.1943 88.4691 79.5257C87.86 78.8571 87.0651 78.4189 86.0177 78.2034V87.3331C87.6074 87.7491 88.6771 88.0686 89.1823 88.2989C90.1629 88.7149 90.9651 89.2423 91.5891 89.8663C92.2206 90.4977 92.696 91.2257 93.0377 92.0874C93.3497 92.9491 93.5206 93.8703 93.5206 94.8731C93.5206 97.072 92.8297 98.892 91.448 100.363C90.044 101.826 88.2463 102.621 86.0251 102.733V105.934H84.1606L84.1531 105.949ZM84.1531 78.1811C82.92 78.3669 81.9543 78.872 81.2411 79.6669C80.528 80.4617 80.1714 81.4051 80.1714 82.512C80.1714 83.6189 80.4834 84.5029 81.0703 85.216C81.6794 85.9514 82.7046 86.4937 84.1457 86.8726V78.1811H84.1531ZM86.0177 100.11C87.2509 99.9617 88.276 99.4194 89.0783 98.5206C89.8731 97.5994 90.2743 96.4703 90.2743 95.1109C90.2743 93.9594 89.9994 93.0383 89.4349 92.3474C88.848 91.6566 87.7189 91.092 86.0177 90.6537V100.118V100.11ZM84.9926 70.0989C95.9869 70.0989 104.909 78.9983 104.909 89.9926C104.909 100.987 95.9869 109.909 84.9926 109.909C73.9983 109.909 65.0989 100.987 65.0989 89.9926C65.0989 78.9983 73.9909 70.0914 84.9926 70.0914V70.0989Z" fill="#D5EAFB"/>
<circle cx="113.5" cy="104" r="2.5" fill="#D5EAFB"/>
<circle cx="48" cy="76.5" r="4" fill="#D5EAFB"/>
<circle cx="106.5" cy="55" r="1.5" fill="#D5EAFB"/>
<circle cx="65" cy="125.5" r="2" fill="#D5EAFB"/>
<circle cx="87" cy="77.5" r="1" fill="#D5EAFB"/>
</svg>
