<svg width="50" height="50" viewBox="0 0 50 50" fill="none" xmlns="http://www.w3.org/2000/svg">
<path d="M45.7682 38.1878C45.7682 38.9378 45.6016 39.7087 45.2474 40.4587C44.8932 41.2087 44.4349 41.917 43.8307 42.5837C42.8099 43.7087 41.6849 44.5212 40.4141 45.042C39.1641 45.5628 37.8099 45.8337 36.3516 45.8337C34.2266 45.8337 31.9557 45.3337 29.5599 44.3128C27.1641 43.292 24.7682 41.917 22.3932 40.1878C19.9974 38.4378 17.7266 36.5003 15.5599 34.3545C13.4141 32.1878 11.4766 29.917 9.7474 27.542C8.03906 25.167 6.66406 22.792 5.66406 20.4378C4.66406 18.0628 4.16406 15.792 4.16406 13.6253C4.16406 12.2087 4.41406 10.8545 4.91406 9.60449C5.41406 8.33366 6.20573 7.16699 7.3099 6.12533C8.64323 4.81283 10.1016 4.16699 11.6432 4.16699C12.2266 4.16699 12.8099 4.29199 13.3307 4.54199C13.8724 4.79199 14.3516 5.16699 14.7266 5.70866L19.5599 12.5212C19.9349 13.042 20.2057 13.5212 20.3932 13.9795C20.5807 14.417 20.6849 14.8545 20.6849 15.2503C20.6849 15.7503 20.5391 16.2503 20.2474 16.7295C19.9766 17.2087 19.5807 17.7087 19.0807 18.2087L17.4974 19.8545C17.2682 20.0837 17.1641 20.3545 17.1641 20.6878C17.1641 20.8545 17.1849 21.0003 17.2266 21.167C17.2891 21.3337 17.3516 21.4587 17.3932 21.5837C17.7682 22.2712 18.4141 23.167 19.3307 24.2503C20.2682 25.3337 21.2682 26.4378 22.3516 27.542C23.4766 28.6462 24.5599 29.667 25.6641 30.6045C26.7474 31.5212 27.6432 32.1462 28.3516 32.5212C28.4557 32.5628 28.5807 32.6253 28.7266 32.6878C28.8932 32.7503 29.0599 32.7712 29.2474 32.7712C29.6016 32.7712 29.8724 32.6462 30.1016 32.417L31.6849 30.8545C32.2057 30.3337 32.7057 29.9378 33.1849 29.6878C33.6641 29.3962 34.1432 29.2503 34.6641 29.2503C35.0599 29.2503 35.4766 29.3337 35.9349 29.5212C36.3932 29.7087 36.8724 29.9795 37.3932 30.3337L44.2891 35.2295C44.8307 35.6045 45.2057 36.042 45.4349 36.5628C45.6432 37.0837 45.7682 37.6045 45.7682 38.1878Z" stroke="#2E418E" stroke-width="3.5" stroke-miterlimit="10"/>
</svg>
