<svg width="24" height="24" viewBox="0 0 24 24" fill="none" xmlns="http://www.w3.org/2000/svg">
<path d="M0.260457 13.6514L1.60209 11.2194L0.49174 10.6322C0.48782 10.6303 0.48586 10.6287 0.485533 10.6287C0.4839 10.6239 0.484227 10.6108 0.490433 10.5996C0.4937 10.5939 0.495007 10.5923 0.50546 10.5907L5.28334 9.81868C5.2853 9.81836 5.28661 9.81836 5.28661 9.81836C5.28792 9.819 5.29118 9.8222 5.29445 9.82859L7.26068 14.1449C7.26591 14.1567 7.26591 14.1625 7.26003 14.1724C7.25121 14.1868 7.23749 14.1938 7.23389 14.1941C7.23324 14.1941 7.23128 14.1935 7.22801 14.1919L6.12387 13.6019L3.0855 19.1155C2.96104 19.3416 2.87055 19.5837 2.81371 19.8331L2.51481 19.3435L2.46189 19.2572L0.306845 15.7244C-0.0851601 15.0848 -0.102474 14.3099 0.260131 13.6514H0.260457ZM9.81786 22.5309C9.81786 22.538 9.81001 22.5456 9.80283 22.5456H5.69364C4.93871 22.5456 4.23408 22.1593 3.85481 21.5383L3.8228 21.4855C3.47947 20.8808 3.47228 20.1072 3.80843 19.4967L4.89885 17.5178H9.80315C9.81034 17.5178 9.81818 17.5255 9.81818 17.5325V22.5306L9.81786 22.5309Z" fill="#FF6010"/>
<path d="M17.081 12.22C17.0589 12.1791 17.0662 12.1404 17.0725 12.1211C17.0797 12.0982 17.0966 12.0664 17.1348 12.0474L21.5417 9.83288L21.5446 9.83124C21.6027 9.80143 21.6747 9.82502 21.7084 9.88497L23.7456 13.6249C24.1004 14.2759 24.0826 15.0764 23.6984 15.7139H23.6977L23.6941 15.7195C23.3175 16.3433 22.6009 16.746 21.8665 16.746L19.5457 16.7453L17.081 12.2197V12.22ZM20.1157 21.6717C19.7236 22.3276 19.0278 22.7191 18.2548 22.7191L15.4013 22.7175V23.9825C15.4013 23.9871 15.401 23.9897 15.4013 23.9897C15.398 23.9936 15.3854 24.0002 15.3719 24.0002C15.3643 24.0002 15.362 23.9992 15.3557 23.991L12.3646 20.1462C12.3646 20.1462 12.3636 20.1449 12.3633 20.1446C12.3633 20.1432 12.3643 20.1396 12.3682 20.1341L15.3491 16.2984C15.3574 16.288 15.362 16.2857 15.3736 16.286C15.3904 16.2866 15.4033 16.2955 15.4052 16.2988C15.4052 16.2988 15.4059 16.3007 15.4062 16.3053L15.4 17.5674H15.8165C15.8165 17.5674 21.8658 17.569 21.8671 17.569C22.1315 17.569 22.3946 17.5313 22.6481 17.4606L22.551 17.6218L22.5398 17.6404L20.1164 21.671L20.1157 21.6717Z" fill="#FF6010"/>
<path d="M17.0616 1.06986L18.5233 3.59326L19.6011 2.92944C19.6047 2.9271 19.607 2.92643 19.607 2.9261C19.6122 2.92677 19.6249 2.93445 19.6323 2.94714C19.6369 2.95482 19.6375 2.95849 19.6323 2.97118L17.8669 7.56652C17.8646 7.5722 17.863 7.57454 17.863 7.57454C17.8624 7.57454 17.8594 7.57554 17.8536 7.5752L13.0805 6.98852C13.0691 6.98718 13.0655 6.98484 13.0603 6.97583C13.0528 6.96314 13.0518 6.94778 13.0531 6.94143C13.0538 6.9411 13.0548 6.94043 13.0561 6.93943L14.1365 6.28061L10.8521 0.623086C10.7188 0.392685 10.5536 0.183653 10.365 0H15.2272C15.9851 0 16.6714 0.400364 17.0622 1.06953L17.0616 1.06986ZM4.38177 4.77499L6.54091 1.05284C6.91903 0.403704 7.61089 0.000333987 8.346 0.000333987C9.07135 0.000333987 9.77947 0.413387 10.1495 1.0525L10.2681 1.25753H10.2691C10.4817 1.62316 10.9457 2.42122 11.3215 3.06868L8.70266 7.57621C8.6799 7.61494 8.64511 7.6283 8.62626 7.63297C8.60415 7.63831 8.57066 7.63998 8.53717 7.61761L4.41785 4.94529C4.36291 4.90956 4.34698 4.83476 4.38144 4.77532L4.38177 4.77499Z" fill="#FF6010"/>
</svg>
