<svg width="50" height="50" viewBox="0 0 50 50" fill="none" xmlns="http://www.w3.org/2000/svg">
<path d="M18.846 42.508C16.1407 40.6521 14.4073 36.9403 14.4073 33.1744V31.7978C14.3963 31.5843 14.4703 31.3751 14.6131 31.2159C14.7559 31.0567 14.9558 30.9605 15.1693 30.9482H30.1406C30.3541 30.9605 30.554 31.0567 30.6968 31.2159C30.8396 31.3751 30.9135 31.5843 30.9026 31.7978V33.1744C30.9026 36.9404 29.1733 40.6521 26.4679 42.508H18.846Z" stroke="#EDEBDF" stroke-width="2" stroke-linecap="round" stroke-linejoin="round"/>
<path d="M30.9006 32.9019C33.4474 33.3349 34.7206 35.3195 33.9804 37.1489C33.2928 38.8481 31.7225 39.9176 29.1875 39.5256" stroke="#EDEBDF" stroke-width="2" stroke-linecap="round" stroke-linejoin="round"/>
<path d="M16.4963 15.8716V21.562C16.461 22.1326 16.6525 22.6941 17.0291 23.1243C17.4057 23.5544 17.937 23.8184 18.5073 23.8588H25.828C26.3983 23.8184 26.9296 23.5544 27.3062 23.1243C27.6829 22.6941 27.8743 22.1326 27.839 21.562V15.8716" stroke="#EDEBDF" stroke-width="2" stroke-linecap="round" stroke-linejoin="round"/>
<path d="M20.6406 23.8584V26.9209H24.1852V23.8584" stroke="#EDEBDF" stroke-width="2" stroke-linecap="round" stroke-linejoin="round"/>
<path d="M27.8438 21.6343H36.6787" stroke="#EDEBDF" stroke-width="2" stroke-linecap="round" stroke-linejoin="round"/>
<path d="M36.6797 19.8198H45.2741C45.6992 19.8198 46.1069 19.9887 46.4075 20.2893C46.7081 20.5898 46.8769 20.9975 46.8769 21.4226V21.8463C46.8769 22.2714 46.7081 22.679 46.4075 22.9796C46.1069 23.2802 45.6992 23.4491 45.2741 23.4491H36.6797V19.8198Z" stroke="#EDEBDF" stroke-width="2" stroke-linecap="round" stroke-linejoin="round"/>
<path d="M3.125 42.5078H42.4837C42.4837 43.0813 42.3707 43.6492 42.1512 44.1791C41.9318 44.7089 41.6101 45.1904 41.2045 45.5959C40.799 46.0014 40.3176 46.3231 39.7877 46.5426C39.2579 46.762 38.69 46.875 38.1165 46.875H7.49219C6.91868 46.875 6.35079 46.762 5.82094 46.5426C5.29109 46.3231 4.80965 46.0014 4.40412 45.5959C3.99859 45.1904 3.6769 44.7089 3.45743 44.1791C3.23796 43.6492 3.125 43.0813 3.125 42.5078Z" stroke="#EDEBDF" stroke-width="2" stroke-linecap="round" stroke-linejoin="round"/>
<path d="M38.5774 3.125H7.03125C4.87389 3.125 3.125 4.87389 3.125 7.03125V11.9655C3.125 14.1229 4.87389 15.8717 7.03125 15.8717H38.5774C40.7348 15.8717 42.4837 14.1229 42.4837 11.9655V7.03125C42.4837 4.87389 40.7348 3.125 38.5774 3.125Z" stroke="#EDEBDF" stroke-width="2" stroke-linecap="round" stroke-linejoin="round"/>
<path d="M5.83594 15.8716V42.5076" stroke="#EDEBDF" stroke-width="2" stroke-linecap="round" stroke-linejoin="round"/>
<path d="M39.7734 42.5119V23.4507" stroke="#EDEBDF" stroke-width="2" stroke-linecap="round" stroke-linejoin="round"/>
<path d="M39.7734 19.8239V15.8701" stroke="#EDEBDF" stroke-width="2" stroke-linecap="round" stroke-linejoin="round"/>
<path d="M22.8025 12.9479C24.7472 12.9479 26.3237 11.4035 26.3237 9.49835C26.3237 7.59323 24.7472 6.04883 22.8025 6.04883C20.8578 6.04883 19.2812 7.59323 19.2812 9.49835C19.2812 11.4035 20.8578 12.9479 22.8025 12.9479Z" stroke="#EDEBDF" stroke-width="2" stroke-linecap="round" stroke-linejoin="round"/>
<path d="M22.803 9.49818L20.3281 7.07373" stroke="#EDEBDF" stroke-width="2" stroke-linecap="round" stroke-linejoin="round"/>
<path d="M15.0558 9.49854H7.64062" stroke="#EDEBDF" stroke-width="2" stroke-linecap="round" stroke-linejoin="round"/>
<path d="M37.9699 9.49854H30.5547" stroke="#EDEBDF" stroke-width="2" stroke-linecap="round" stroke-linejoin="round"/>
</svg>
