<?xml version="1.0" encoding="utf-8"?>
<!-- Generator: Adobe Illustrator 23.0.4, SVG Export Plug-In . SVG Version: 6.00 Build 0)  -->
<svg version="1.1" id="Layer_1" xmlns="http://www.w3.org/2000/svg" xmlns:xlink="http://www.w3.org/1999/xlink" x="0px" y="0px"
	 viewBox="0 0 48 48" style="enable-background:new 0 0 48 48;" xml:space="preserve">
<style type="text/css">
	.st0{fill:#EEECDF;}
</style>
<path class="st0" d="M35.8,13.8C35.8,13.8,35.8,13.8,35.8,13.8c-0.1-0.2-0.2-0.2-0.3-0.2L29,12.7c-0.1,0-0.3,0-0.4,0.2l-4,5.2
	c-0.1,0.1-0.1,0.2-0.1,0.3c0,0,0,0.1,0,0.1l2.5,6.1c0.1,0.1,0.2,0.2,0.3,0.2l6.6,0.9c0,0,0,0,0,0c0.1,0,0.1,0,0.1,0c0,0,0,0,0.1,0
	c0,0,0,0,0,0c0.1,0,0.1-0.1,0.1-0.1h0l4-5.2c0.1-0.1,0.1-0.3,0.1-0.4L35.8,13.8L35.8,13.8L35.8,13.8z M29.1,13.5l5.6,0.8l-3.5,4.5
	L25.6,18L29.1,13.5z M25.5,18.8l5.6,0.8l2.2,5.2l-5.6-0.8L25.5,18.8L25.5,18.8z M34,24.5l-2.2-5.2l3.5-4.5l2.2,5.2L34,24.5z"/>
<path class="st0" d="M28.4,26.9c0-0.1-0.1-0.2-0.2-0.2l-5.7-3.3c-0.1-0.1-0.3-0.1-0.4,0l-5.7,3.3c-0.1,0.1-0.2,0.1-0.2,0.2
	c0,0,0,0.1,0,0.1v6.6c0,0.1,0.1,0.3,0.2,0.3l5.7,3.3c0,0,0,0,0,0c0,0,0.1,0,0.1,0c0,0,0,0,0.1,0c0,0,0,0,0.1,0c0.1,0,0.1,0,0.1,0
	c0,0,0,0,0,0l5.7-3.3c0.1-0.1,0.2-0.2,0.2-0.3V27C28.5,27,28.5,27,28.4,26.9L28.4,26.9L28.4,26.9z M22.3,24.2l4.9,2.8l-4.9,2.8
	L17.4,27L22.3,24.2z M17,27.7l4.9,2.8v5.7L17,33.4V27.7z M22.7,36.2v-5.7l4.9-2.8v5.7L22.7,36.2z"/>
<path class="st0" d="M13.6,23.4c0,0,0.1,0.1,0.1,0.1l0,0c0,0,0,0,0.1,0c0.1,0,0.1,0,0.1,0c0,0,0,0,0,0l6.6-0.7
	c0.1,0,0.3-0.1,0.3-0.2l2.7-6c0,0,0-0.1,0-0.1c0-0.1,0-0.2-0.1-0.3l-3.9-5.3c-0.1-0.1-0.2-0.2-0.4-0.2l-6.6,0.7
	c-0.1,0-0.2,0.1-0.3,0.2c0,0,0,0-0.1,0.1l-2.7,6c-0.1,0.1-0.1,0.3,0.1,0.4L13.6,23.4C13.6,23.4,13.6,23.4,13.6,23.4z M14.5,22.7
	l2.3-5.2l5.7-0.6l-2.3,5.2L14.5,22.7z M19,11.5l3.4,4.6l-5.7,0.6l-3.4-4.6L19,11.5z M12.8,12.6l3.4,4.6l-2.3,5.2l-3.4-4.6L12.8,12.6
	z"/>
</svg>
