<svg width="24" height="25" viewBox="0 0 24 25" fill="none" xmlns="http://www.w3.org/2000/svg">
<path d="M16.188 3C19.3978 3 22 5.66116 22 8.94374V16.0563C22 19.3388 19.3978 22 16.188 22H7.81204C4.60219 22 2 19.3388 2 16.0563V8.94374C2 5.66116 4.60219 3 7.81204 3H16.188ZM16.188 4.48651H7.81204C5.40498 4.48651 3.45358 6.48213 3.45358 8.94374V16.0563C3.45358 18.5179 5.40498 20.5135 7.81204 20.5135H16.188C18.595 20.5135 20.5464 18.5179 20.5464 16.0563L20.546 15.779L17.3499 15.7798C15.5084 15.7787 14.0159 14.2531 14.0147 12.3695C14.0147 10.5491 15.4101 9.06244 17.1673 8.96431L17.3504 8.95916L20.546 8.959L20.5464 8.94374C20.5464 6.55454 18.7081 4.60431 16.3991 4.49165L16.188 4.48651ZM20.546 10.445L17.3508 10.4457C16.3109 10.4463 15.4683 11.3074 15.4683 12.369C15.4689 13.3811 16.2329 14.2102 17.2033 14.2874L17.3504 14.2933L20.546 14.293V10.445ZM17.7942 11.5652C18.1956 11.5652 18.521 11.8979 18.521 12.3084C18.521 12.6847 18.2475 12.9957 17.8928 13.0449L17.7942 13.0517H17.4921C17.0907 13.0517 16.7653 12.7189 16.7653 12.3084C16.7653 11.9322 17.0388 11.6212 17.3935 11.572L17.4921 11.5652H17.7942ZM12.3539 7.49736C12.7553 7.49736 13.0807 7.83013 13.0807 8.24062C13.0807 8.6169 12.8073 8.92788 12.4525 8.97709L12.3539 8.98388H7.12203C6.72063 8.98388 6.39524 8.65111 6.39524 8.24062C6.39524 7.86434 6.66866 7.55337 7.0234 7.50415L7.12203 7.49736H12.3539Z" fill="#2E418E"/>
</svg>
