<?xml version="1.0" encoding="utf-8"?>
<!-- Generator: Adobe Illustrator 23.0.4, SVG Export Plug-In . SVG Version: 6.00 Build 0)  -->
<svg version="1.1" id="Layer_1" xmlns="http://www.w3.org/2000/svg" xmlns:xlink="http://www.w3.org/1999/xlink" x="0px" y="0px"
	 viewBox="0 0 322.4 321.1" style="enable-background:new 0 0 322.4 321.1;" xml:space="preserve">
<style type="text/css">
	.st0{fill:#274493;}
	.st1{fill:#E9E8DA;}
</style>
<g>
	<circle class="st0" cx="160.7" cy="161.2" r="143.5"/>
	<path class="st1" d="M127.3,148.9c2.4,0,4.3-1.9,4.3-4.3c0-2.4-1.9-4.3-4.3-4.3c-2.4,0-4.3,1.9-4.3,4.3
		C123,147,125,148.9,127.3,148.9"/>
	<path class="st1" d="M189.2,148.9c2.4,0,4.3-1.9,4.3-4.3c0-2.4-1.9-4.3-4.3-4.3c-2.4,0-4.3,1.9-4.3,4.3
		C184.9,147,186.8,148.9,189.2,148.9"/>
	<path class="st1" d="M212.9,180.1l0.1-10.4h-4.4c0-2.9,0-15.5,0-15.9c0-1.7,0.1-6.6-1.1-12.6c-0.4-2.3-1.1-4.4-2-6.5
		c2.8-2.9,7.4-9,7.4-17.5V91.5c0-4.8-2.7-9.1-7.1-11.1c-4.4-2-9.4-1.3-13.1,1.8c-8.9,7.5-16.1,18.2-21.6,31.8h-12.8h-12.8
		c-5.5-13.6-12.7-24.3-21.6-31.8c-3.7-3.1-8.7-3.8-13.1-1.8c-4.4,2-7.1,6.3-7.1,11.1v25.7c0,8.5,4.6,14.6,7.4,17.5
		c-0.9,2.1-1.6,4.3-2,6.5c-1.3,6.9-1.1,12.4-1.1,13.1h-0.1v15.3h-4.2v17.9l-0.1,0.9c0,30.2,24.5,54.7,54.7,54.7c12,0,23-3.9,32-10.4
		h20c7.3,0,13.9-3,18.7-7.7c4.8-4.8,7.7-11.4,7.7-18.7C236.7,192.7,226.3,181.4,212.9,180.1 M192.8,168.4
		c-1.3-7.3-5.5-13.9-11.9-18.7c-6.3-4.8-14.3-7.4-22.6-7.4c-8.3,0-16.3,2.6-22.6,7.4c-6.3,4.8-10.6,11.4-11.9,18.7l-0.2,1.3h-8.9
		v-15.3h0c0-0.7-0.2-5.9,1-11.8c1.5-7.5,6.3-14.1,13.2-18l-3.3-5.9c-4.4,2.5-8.2,5.9-11,9.9c-1.9-2.4-4.1-6.3-4.1-11.2V91.5
		c0-2.2,1.2-4.1,3.2-5c2-0.9,4.2-0.6,5.9,0.8c8.5,7.2,15.4,17.7,20.5,31.2l0.8,2.2h17.4h17.4l0.8-2.2c5.2-13.5,12.1-24.1,20.5-31.2
		c1.7-1.4,3.9-1.7,5.9-0.8c2,0.9,3.2,2.8,3.2,5v25.7c0,4.9-2.2,8.8-4.1,11.2c-2.8-4-6.6-7.4-11-9.9l-3.3,5.9
		c7,3.9,11.8,10.5,13.2,18c0.9,4.8,1,9.1,1,10.9c0,0.5,0,13.3,0,16.2H193L192.8,168.4z M186.1,169.6L186.1,169.6l-24.5,0.1v-12.8
		c3.1-0.9,5.7-3.2,7.1-6.1c2.9,1,5.7,2.4,8.1,4.3C181.8,158.8,185.1,163.9,186.1,169.6 M130.4,169.7L130.4,169.7
		c1-5.7,4.3-10.9,9.3-14.7c2.4-1.8,5.1-3.3,8.1-4.3c1.4,2.9,4,5.2,7.1,6.1v12.8H130.4z M124.5,222.2c-8.9-8.9-13.9-20.8-14-33.4
		l0.1-0.9v-11.2H206l-0.1,11.8c0,12.7-5,24.7-14,33.7c-9,9-21,14-33.7,14S133.5,231.2,124.5,222.2 M210.3,226.5h-12.8
		c2.6-2.7,4.9-5.6,6.9-8.7h5.9c6.3,0,11.4-5.1,11.4-11.4c0-5.6-4-10.2-9.3-11.2c0.3-2.2,0.4-4.4,0.4-6.7l0-2.1
		c9.9,1.3,17.6,9.8,17.6,20C230.5,217.5,221.4,226.5,210.3,226.5"/>
</g>
</svg>
